<svg xmlns="http://www.w3.org/2000/svg" xml:space="preserve" id="Camada_1" x="0" y="0" style="enable-background:new 0 0 888 522" version="1.1" viewBox="0 0 888 522">
  <style>
    .st0{fill:#6b6a6a}
  </style>
  <path d="m152.1 458.4-31.5-9.1-25-7.6A310.5 310.5 0 0 1 56 425.4c-1-1.1-2.3-2-3.6-2.7l-8.4-4.6c-1-.6-1.9-1.2-3-1.3-5.1-3.4-10-7-14.6-11.1A71 71 0 0 1 14.3 392c-1.4-2.1-2.6-4.3-3.5-6.7-.6-1.6-1-3.3-1.2-5.1-.3-3.3.4-6.4 2-9.3a32.6 32.6 0 0 0 3.9-15c0-5.2-.5-10.3-.8-15.4-.4-5.4-1-10.8-1.6-16.1a157.8 157.8 0 0 1 .3-34.5c1.3-8.8 3-17.5 5.7-26 1.4-4.4 3.6-8.5 6-12.5 3.9-6.3 8-12.4 12.3-18.2 3.6-4.7 7-9.5 10.5-14.2 7-9.5 15.5-17.4 25-24.3 10.6-7.7 22-14 34-19.2 6-2.6 12.1-4.9 18.3-7l2.3-.7c.2.5.1.8-.2 1.1-.6.6-1.3 1-2 1.2l-9.7 3.8c-3.3 1.3-6.4 2.7-9.6 4.1-1.4.6-2.6 1.6-3.8 2.5-.8.5-1.2 1.3-.9 2.3l.1 1c-.4.5-.5 1-.5 1.7 0 2.3-.8 4.3-2.4 5.9l-4.9 5c-7.6 7.1-14 15.3-20 23.9-.8 1.2-1.6 2.5-2.1 4a15 15 0 0 0-.8 7.8c.7 5.3-.2 10.4-2 15.4-1.4 4.1-3 8.1-4.5 12.2l-.5 1.4c0 .3.2.6.5.7l1 .3c0 .4 0 .7.6.8l1.4.2c-1 .5-2 .4-3.1.5-1 0-1.7.5-2 1.5l-.5 1.3c-.7 1.6-1.4 3.3-2.2 4.8a8.3 8.3 0 0 1-5.7 4.5c-3 .7-6 .7-8.9.5-6.4-.5-11-3.7-13.4-9.8-1-2.5-1.5-5-2-7.7l-.5-2.1-.3-.3-.4.2c-.2.1-.2.3-.3.4a64.2 64.2 0 0 0-3.9 8.8c-2 6-3.2 12-4.3 18l-.5 4.2c-.4 3.9-.7 7.8-1.3 11.7-.6 4.2-.6 8.3-.4 12.5 0 2.4.6 4.6 1.5 6.8 1.7 4.1 4 7.9 6.9 11.3.7 1 1.5 1.9 2 3v.7c-.5 1.1-1 1.2-2 .5l-.3-.3-1.8-2.3-3.1-4.2c-.7-.9-1-2-2-2.6-.8 1 .1 2.2.1 3.3a8 8 0 0 0 2.1 5.3l1.7 2c.7 1.2 0 2.3-.5 3.3a29.3 29.3 0 0 0 4.5 18.4c2.9 4.8 6.7 8.7 11 12.3 3.8 3.2 8 6 12.5 8.5 7.2 4.1 15 7.2 22.7 10.1 8.2 3.1 16.4 6 24.7 9a518 518 0 0 0 92.8 22.9 1021.3 1021.3 0 0 0 63.3 8.9c2.2.1 4.3.1 6.5.8l-1.7.1c-.6 0-1 .4-1.3.9-1.3.2-2.5 0-3.7-.2l-2.9-.2-.5.2.4.1 1.6.4 13.3 2.6a35.1 35.1 0 0 1 17.5 7.7 181.3 181.3 0 0 1 15.8 14.6c1.4 2 2.5 4 1.6 6.5-.2.5.1.9.7 1h2.4c17.3.2 34.5.3 51.7-.8l16.4-1.1c6.8-.6 13.5-1.3 20.2-2.3 5.6-1 11.1-1.9 16.5-3.4 5-1.5 5.6-1.8 8.7-6a70 70 0 0 0 6.6-11.2 161.5 161.5 0 0 0 8.7-22.5c.1-.5-.2-.8-.7-.8h-1l-32.2 2.3c-7.3.5-14.7.9-22 1.2-8.8.4-17.7.5-26.6.2a61.7 61.7 0 0 1-26.4-6.8c-4-2.3-7.6-5.2-10.6-8.6-.2-.2-.3-.5-.3-.7 0-.2.4-.3.6-.3h7c9.1 0 18.2 0 27.3-.2 10.6-.2 21.1-.8 31.7-1.3l19.3-1.2 16.1-1.1a760.6 760.6 0 0 0 26-2c.5 0 .8.4.7.9l-1.2 6.1a172.3 172.3 0 0 1-9.6 31.9 83.3 83.3 0 0 1-8 15.1c-3 4.3-6.3 8-10.8 10.6-2.8 1.7-5.8 3-9 4.2-8 3-16.1 4.9-24.5 6.1-12.4 1.9-25 3-37.5 3.3-9.7.3-19.4.5-29 .2-3.9-.2-7.8-.4-11.6-.4-7.6 0-15.1-.8-22.7-1.4-1.2-.1-2.6.3-3.6-.7-.4-.3.3-.5 3.7-.4 6.5.1 12.9.5 19.4.5a793.8 793.8 0 0 0 56.2-2.2c6.3-.6 12.6-1.4 19-2.3 4.2-.6 8.5-1.2 12.8-2.3.7-.2 1.4-.2 2-.7-.8-.4-1.5 0-2.2 0l-.7.2-17.6 1.6c-10.1.9-20.3 1.4-30.4 1.6-15.2.2-30.5.2-45.7-.4l-12.3-.4c-.2 0-.5 0-.5-.3l.4-.3 3.6-1.2 7.5-2.1c1.6-.5 3.2-.9 4.7-1.8.2 0 .4-.3.4-.5 0-.3-.3-.4-.6-.4l-8-.6a775.6 775.6 0 0 1-123.5-20.1A456.8 456.8 0 0 1 121 428 484 484 0 0 1 64.8 405c-5-2.5-9.6-5.5-14-8.9-1.3-1-2.4-2.1-3.4-3.4a8 8 0 0 1-1.6-6.6l.5-2.9c0-.4 0-.8-.3-1-.6-.6-1.2-1.2-2-1-.5.3-.6.8-.5 1.4l-.1.4c-.4.6-.5 1.3-.4 2v.5c-.6.6-.6 1.4-.7 2.2 0 .2-.1.5-.4.4l-.2-.3-.2-1.9v-.4c.6-1 .6-2 .5-3 .3-.4.5-.8.4-1.4.2-.9 0-1.6-.8-2l-1.2-.9c-3.6-2.4-7-5-10-8l-.6-.4c-.1-.1-.3-.2-.4-.1l-.2.4.2 1.2c1 5 2.5 9.7 5 14 0 1 .5 1.6.9 2.4.2.5 0 .9-.5 1l-.2-.2-.4-.6-.4-.5a45.3 45.3 0 0 1-6.4-18.5c-.3-2.3-1.6-3.8-3.1-5.3l-.7-.4c-.7-.3-1.3 0-1.4.7v3.1a75 75 0 0 0 3 15.2 42 42 0 0 0 7.7 14.9l1 1.4c0 .2 0 .5-.2.7-.2.2-.6.2-.9 0a16 16 0 0 1-3.2-3.2c-2.3-3-4-6.2-5.5-9.7a80.5 80.5 0 0 1-5-16.9l-.2-.2c-.1 0-.4 0-.4.2l-3 6c-1 2-1 4-.5 6.1.4 1.7 1 3.3 1.8 4.8a75 75 0 0 0 19.6 21c8.6 6.3 18 11.4 27.6 15.9 12.9 6 26.2 10.9 39.6 15.3a825.6 825.6 0 0 0 79 21 1746.1 1746.1 0 0 0 63.7 12.4c13 2.1 26 4 39 5.4 1.8.2 3.6.3 5.2.9l-1.1.1c-.2 0-.5 0-.5.4l.4.3 2 .2c.9 0 1.8 0 2.5.5 1 .7 1 .7 2.2 1 9 1.4 18 3 26.8 4.8a204 204 0 0 0 25.3 3.7 422.5 422.5 0 0 0 70.2.7c9-.8 17.9-1.6 26.7-3.3 5-.9 9.9-2 14.9-3 1-.2 1.8-.6 2.2-1.6l1.3-2.9a60 60 0 0 0 3-10.4l1-5v1.4c.3 1 1 1.5 2 1.4.5 0 1-.2 1.4-.4.6-.2 1.3-.4 2-.3-.4 1.1-1 2.2-1.2 3.4l-1.1 5.2c-.2.5-.2 1-.3 1.6 0 .4.4.8.8.7 1.4-.4 2.3-1.4 3.3-2.4.6-.8.8-1.5.6-2.5l-.8-4.2c-.2-.8-.3-1.6-1-2.2-.7-.5-1-1.2-.9-2.2.2-1.4 1-2.6 1.5-4 0 .6.3 1.2.3 1.7l1.5 9c.7 4.4 2 8.5 3.3 12.7a68.4 68.4 0 0 0 13 23.4c.4.4.8.9 1.4.9h.2l.2-.4-.6-.8c-3.4-4-6-8.3-8.1-13a99.6 99.6 0 0 1-8.3-32.9c-.4-5.5-1.1-11-1.1-16.6v-.5c-.1 0-.2-.1-.2 0h-.2l-.5 2.7c-.3 2.1-.4 4.3-1 6.4l-.1-3.1c-.3-1.6-.8-3.2-2.8-3.3h-.2.2c-.1.5-.1 1.1-.4 1.6-.6 1.1-1 2.3-1.2 3.6 0 .2-.3.4-.4.6 0-2.6.5-5.1.8-7.7.1-1.3.2-2.7.7-4 0 .6 0 1.3.2 1.9 0 .7.4 1.4 1 1.9.3.3 1 .4 1.3 0 .7-.6 1.5-1.2 1.7-2.2.8-2.8 1.8-5.6 1.6-8.7 0-1-.1-2 .5-3v1.7c0 .9.4 1.2 1.3 1.3.8.1.1.6 0 .9-1 .1-1.3.8-1.3 1.7 0 2.4-.5 5 .4 7.4l-.1.9-.4 1.1c0 2.3.1 4.5.4 6.7.1.7.5.9 1 .7l1.6-.7c2-1.1 4.1-1.2 6.3-.7l1.9.4c.7.1 1-.1 1-.9l-.1-6.7c0-.6-.3-1-1-1.3l-1.1-.3c-1.4-.3-2.8-.7-4.3-.5-.2 0-.6.1-.6-.2 0-.4.4-.4.7-.4 1.2-.1 2.4 0 3.6.2l1.4.2c.9.2 1.2 0 1.3-1v-5.7c0-.3-.3-.6-.4-.9-.2 0-.3-.2-.5-.3l-.4-.2c-.5-.4-1-.6-1.6-.5h-.7c-1-.5-2.1-.6-3.2 0 0-.4.1-.7.5-.8.7-.2 1.6-.1 2.3 0l3.1.5c.6 0 1-.2 1-.8.4-2.2.7-4.5.4-6.7-.1-1.1 0-2.1.1-3.2.5-.8.4-1.6.4-2.5.4-1.6.5-3.3.6-5 0-1.4.2-2.7.4-4 .4-1.9.6-3.7.8-5.5.2-1-.2-1.7-1.1-2.1a9.5 9.5 0 0 0-7.5-.8c-.7.2-1 .6-1.1 1.2l-1.4 6.6c-.2.7.2 1 1 .9l1.9-.4c.2 0 .5 0 .6.2 0 .1-.2.3-.4.3l-2.3.8c-.9.2-1.4.7-1.5 1.6-.5 2.2-1.1 4.4-1.1 6.6-.4.8-.5 1.7-.5 2.6 0 .3.4.5.7.4l.9-.4.4-.1c.3 0 .7-.2 1-.4h-.1l1.9.1c-.5.6-1.2.6-1.8.8l-1.5.6c-1.3.4-2 1.2-2.4 2.4-.5-1-1.3-1.1-2.2-.8-1 .3-1.7 1-2.2 2l-1 2c0-.6 0-1.4.2-2l2.3-13c3.6-19.5 8.9-38.5 16.2-57a259.3 259.3 0 0 1 20.8-41.4l3.7-6c.4-.5 0-.8-.6-1-.7-1-.6-1.1.4-1.2.7-.1 1.4 0 2-.6 1.5-1.6 2.6-3.5 3.9-5.3 1.2-.7 2-1.8 2.7-3 .7-1 1.6-2 2.5-3l5.8-6.4c.3-.3.4-.7.6-1l1.6-1.5c3.8-3.5 7.8-6.8 12.2-9.5 3.5-2.3 7.3-4.1 11.4-5.2 7.3-2 14.4-1.5 21.3 2a41 41 0 0 1 15 13.5 65 65 0 0 1 8.5 18.8c2.3 8 3.4 16 3.8 24.3.6 12.8 0 25.5-1.5 38.1-.2 1.7-.2 3.4-.8 5 0-1-.2-2-1.6-1.8-.7 0-1-.4-1.4-.9-.3-.5-.7-1-1.4-1.2-.1-2 .4-3.7.5-5.6.5-5.6 1-11.2 1.2-16.8.5-11.1 0-22.1-2.1-33a67.4 67.4 0 0 0-7.5-20.8c-3-5-6.6-9.5-11.5-12.8-3-2-6-3.7-9.6-4.4-4.8-.8-9.5-.4-14 1.4a52 52 0 0 0-15.9 10l-.3.4c-.2.2 0 .7.2.7l2.4.6c3.8.8 7.5 1.8 11.2 2.9a35.8 35.8 0 0 1 18.7 12.6c3.6 4.7 6.7 9.7 9 15.1 2.8 6.6 4.7 13.5 6.1 20.6a171.8 171.8 0 0 1 1.5 53.4l-.1 2.2c0 .3 0 .6.2.9.5.8 1.3 1 2.2 1.4.7.3 1.4.1 2-.3 0 1-.6 1.7-1.7 2-.7 0-1.4.2-2.1.5-1 .3-1.7 0-2.4-.7l-1.4-1.7c-.5-.6-1-.8-1.9-.5-.9.3-1.1.1-1.1-.8 0-1.1-.2-2.3 0-3.3.5-2.4.4-4.8.4-7.2 0-.8 0-1.6.6-2.3V388.3l.2.3.1-.2v-.5c.7-3.9.8-7.8 1-11.8.3-9-.2-17.8-1.3-26.7-1-8.2-2.7-16.2-5.5-24a54.3 54.3 0 0 0-7.5-14.5c-2-2.8-4.5-5-7.5-6.8-3-1.7-6-2.4-9.5-2.2-3 .2-5.8 1.1-8.5 2.5a41 41 0 0 0-9.9 7.2c-5.2 5.1-9.5 11-13.3 17.2-6.2 10-11 20.8-14.8 31.9a242.6 242.6 0 0 0-13 65.7 171 171 0 0 0 4.4 53.6 62.3 62.3 0 0 0 6.4 15.4c2.2 3.7 4.8 7 8.3 9.6a16.9 16.9 0 0 0 16.7 2.4c3.4-1.3 6.5-3.1 9.3-5.5 5.2-4.3 9.5-9.4 13.2-15 5.5-8.2 10.2-17 14-26 1-2.4 2-4.7 2.8-7 .1-.2 0-.4-.1-.4 0 0-.2 0-.2.2l-.8 1.7c-3 6.8-6.3 13.4-10.1 19.8-3.5 5.8-8 10.9-13.2 15.2-3 2.5-6.2 4.4-10 5.3l-2.1-.1c-.7 0-1.3-.3-1.8-.9h.5a20 20 0 0 0 10.2-3.8c.3-.1.7-.3.5-.6-.2-.3-.6 0-.9.1-1.8.8-3.7 1.6-5.6 2-4.2 1-8.2.9-12-1.2.6-1 1.5-1.4 2.5-1.5l1.2.3 1.9.4c1.5.1 1.6-.4 1.3-1.5-.6-1.8-1.5-3.4-2.3-5-.5-1.2-1.2-1.8-2.5-1.9-1.6 0-3-.4-4.4-1.2l-4.8-2.8c-.5-.3-.7-.7-.4-1.2 1-1.7 1.5-3.7 2.6-5.4.2.5.5.8 1 1 0 1-.7 1.6-1 2.5 0 .3.2.6.6.6a24 24 0 0 0 5.3-1.3c.6-.2 1-.6 1-1.3l.4-6.4c.1-1 0-2 .4-2.9l.1 3.1c0 .8.2 1.5 1 1.8 0 3.2-.3 6.3-.9 9.4-.1.8-.1 1.4.6 2 1.4 1 2.2 2.5 2.8 4 .2.7.5 1.2.8 1.8l.3.3c.2-.1.5-.3.5-.5.3-1.1 0-2.4.6-3.5.2.8.3 1.6 1 2v2.7c0 .5-.6 1.2.2 1.4.4.2.7-.5 1-.8l1.7-2a8.3 8.3 0 0 0 2.2-6.2c-.4-7.1-.5-14.3-.7-21.4v-3.2c.4.8.5 1.5.5 2.3v3.8c.1.7-.3 1.5.6 1.9.5-.5.3-1.2.4-1.8.8 0 1.1-.6 1.5-1.1 1-1.6 2-3.3 3.1-4.8.6-.8.8-1.7.7-2.7l.6 1.2c.3.3.5.2.7-.1l.1-.7a141.5 141.5 0 0 1 2.4 8.3 3 3 0 0 0 1.7 2.3c1.5.7 2.8 1.8 4 3l.9.9c.2.2.5.4.8.3.4-.1.4-.5.4-.8l-.3-3.1c-.1-1.8-.8-3.6-.7-5.5.7-.2.8-.8 1-1.5l.5 1.4.6 2.5c0 .3.2.5.5.5v-.5c-.2-2.6-.4-5.2-1-7.8-.5-1.6-1.1-3-1.2-4.7.9-1.3.5-2.6 0-4 1 .2 1.2-.5 1.4-1l4-11.7c0-.5.2-1 .3-1.4.3-.9 0-1.6-.7-2.1l-1.3-1c-.5-.4-1-.3-1.2.3l-3.7 11c-.2.7-.2 1.4-.2 2.1-.7-1-1.2-2.2-1.3-3.5.4-.1.6-.4.7-.8 1.2-3.4 2.4-6.8 3.3-10.3.2-.5 0-.9-.4-1.2a36.8 36.8 0 0 0-5.8-3.7c-.5-.3-.8 0-1 .4l-.7 2.8c-.3 1-.6 2-1.2 2.8-.4-.4-.6-1-.8-1.5l.8-3c.7-2.5.7-2.5-1.3-4.1v-1h.7a60.9 60.9 0 0 1 14.8 9.6c.5.5 1 1 1.7 1.3a317.1 317.1 0 0 0 6.4 1.4c.1 0 0-.3 0-.4l-2-2.2c.5-.5.3-1 .2-1.6.8.2 1.2.8 1.7 1.3l2.8 3c.1.2.4.4.6.3.3 0 .5-.3.5-.7l.1-.4a79.8 79.8 0 0 0 0-15.8 3 3 0 0 0-2-2.6c-.8-.7-1.8-.8-2.8-1l-5.2-.9-8.6-1.5c-.7-.1-1.4-.3-1.7-1l6 .7c1.4.1 1.6 0 1.7-1.3l1-6.7.5-4.2c0-.8-.5-1-1.1-.7l-6.5 3.6c-.8.4-1.2 1-1.3 1.9l-.3 2.9-.6 1c0 .1-.2.3-.3.2l-.3-.3v-1.2c-.2-.7.3-1.7-.6-2.1-.8-.3-1.4.4-2.1.9-1.5.9-1.5.9-.6 2.6l.5 1c0 .4 0 .6-.3.9l-2.7-3.5c-.2-.4-.2-.7.3-1l.4-.3c8.6-4.8 17-10 25.4-15.3 2.4-1.6 4.8-3.2 7-5.1 1.7-1.4 1.7-2 .4-3.9l-.1-.1c-2.6-3.4-5.7-6.4-8.7-9.4-.4-.4-.7-.3-1 .1-2.4 3-5.2 5.8-8 8.5-.5.5-1 1.2-1.8 1.4l-1.2-.6 2.3-2.4c2.5-2.6 2.1-1.5 2-5.4v-1.2c-.2-.4-.4-.8-.7-1 .4-1.8 1.7-3 2.8-4.4l.4 4.8v1.4l.3.4c.2 0 .5 0 .6-.2l1.4-1.6c.4-.4.6-1 .5-1.5l-.8-5.5c-.1-.5-.6-.4-1-.3.6-1.8 1.5-3.4 3-4.8-.2.7-.2 1.4 0 2.2.3 1.6.8 3.3.9 5 .1 2 1 3.6 2.4 5 2.4 2.4 4.9 4.9 7 7.7l.3.3c.1 0 .3.2.4.1.3 0 .3-.3.4-.5v-1l-.7-8.4a111.4 111.4 0 0 0-3.8-20.5c-.1-.2-.3-.4-.5-.4s-.4.1-.5.3l-1.7 3.2c-1.4 2.4-2.5 4.9-4.3 7 0-.7 0-1.3-.4-1.9l.7-1.8 3.3-5.9 1.2-2.3c.2-.6.2-1.1-.2-1.6-1.9-2.4-4-4.4-6.6-6-.7-.4-1-.2-1.3.5l-2 6c-3.4 10-7.6 19.6-12.8 28.8l-.9 1.5c-.2.3-.6.5-1 .2-.3-.2-.4-.5-.3-.8l1.5-3a156.5 156.5 0 0 0 12.3-28.9l1-3.7c.1-.3-.2-.7-.5-.6-1.7.5-3.3 1.1-3.6 3.1l-.5 1.4a153 153 0 0 1-5.8 14.3 45.3 45.3 0 0 0-2.9 8c-1.5 5.6-3.2 11.2-5.3 16.7-.7 2-1.6 3.9-2.5 5.8a4 4 0 0 1-.8 1.1c-.1.2-.5.1-.7 0-.2 0-.3-.4-.3-.5l1-2.5c2.4-5.5 4.4-11.3 6-17 3.3-12 5.8-24.2 7.5-36.4l.3-.5c.3-.5 0-1.3.6-1.7.8.6.2 1.3.2 2-.2 1.6 0 1.8 1.7 2.6.4.3.9.5 1 1 1.2 1.8 2.6 1.8 4.3.9 1.8-1 3.5-.6 5.1.6 1.5 1.1 3 2.2 4.3 3.5.2.2.6.5.8.5.3-.2 0-.6 0-.9a29 29 0 0 0-12.5-14.8l1-2 .4.1.6.3c1.1.5 2.1 1.1 3 1.9l3.5 3 .6.3c.2-.2 0-.4-.1-.6a20 20 0 0 0-7.5-6.7c-1.6-.8-3.4-1.2-5.3-1.3a19 19 0 0 0-8.8 1.6c-1.5.3-2.8 1-4 2l-.2.4.4.2c2.4-.2 2.4-.2 1.6 2l-.3.6a40.6 40.6 0 0 0-10 8.7c0 .2.1.3.3.2l.8-.6c1.9-1.7 4-3 6.5-3.6.7-.1 1.3-.5 2-.7.4 0 .7-.2 1-.5h.4l.5-.4.5-.1c.5.2.7.6.2 1l-1.2 1c-.4 0-.7.1-1 .4l-1.4.8c-2.9 1.6-3 1.7-3.3 5-.6 6.5-1.3 13-2.4 19.4-.5 3.6-.9 7.3-.7 11 0 1.2 0 2.4-.3 3.6V366c-.1-2-.2-4-.1-6 0-1.5-.3-2.9-.5-4.3 0-.2-.2-.5-.5-.4l-.3.5-.2 1.2c-.3-.7-.3-1.5-.3-2.3l-1.2-13-.3-2.4c0-.4-.5-.5-.7-.2l-1.6 1.8c-2.5 3.5-4.6 7.2-6.7 10.9-.4.7-.7 1.4-.7 2.2-.5.3-.7.6-.6 1.2v.9c-.4-.2-.7-.2-1 .2-.6 1.1-1 2.2-.9 3.5-.4 0-.8.1-.8.6l-.1 1c-.6.3-.7.8-1 1.3l-1.5 3.8c-1 2.5-1 2.5 1.6 3.5-.4.4-.7.8-.5 1.4-.6.8-1.4 1.2-2 1.7-2 1.5-2.7 3.7-2.9 6 0 .3 0 .7.4.8.5.3.8 0 1-.3.6-.9 1.2-1.8 2-2.4l.5.5-.5.8c-.6.8-1.4 1.5-1.6 2.4-.2 1 1.2 1.5 1.6 2.5-.2.9.2 1.5.8 2 1 .8 2 1.4 2.5 2.5l-.5.5c-.9-.3-1.5-1-2.1-1.5-.5-.5-1-1-1.5-1.3-.3-.3-.7-.4-1-.2l-2.3-1.9c-.3-.2-.6-.1-.8.2l-.3 1-2 8.6c-.4 1.8-1 3.4-1 5.2v.5c-1.2 2.8-1.2 5.8-1.5 8.7-.6 1-.5 2.2-.4 3.4l-.5 4.3c0 1-.3 1.9 0 2.8 1.3 0 1.7-1.1 2.4-1.7l.5-.5.5-.5.5-.5.5-.5.4-.5.5-.5.4-.5.2-.4c0-.2.2-.4.3-.5l.1-.5.4-.2c.3-.1.4.1.4.4 0 .7-.3 1.2-.7 1.7-1 1-1.8 2.2-2.8 3.3-.5.6-1 1.1-1.3 2l-2.2 2.2c-.4.3-.7.7-.7 1.2 0 1.8-.4 3.7-.2 5.5 0 .6.5.8 1 .5 3.3-2.1 6.5-4.5 9.4-7.1l1.5-1.2.9.8c-.8 1.3-2 2.2-3 3a97 97 0 0 1-8.2 6c-.6.3-1.2.6-1.5 1.2-.4.6-.3 1.4-.2 2.1 0 2.7.2 5.3.3 8l.1 1.2c.1.5.5.5 1 .3-.1.8-.7 1.6-.1 2.4a6.3 6.3 0 0 0-.4 3.8l1.4 8.3c0 .4.2.9.4 1.3.2.6.2.6 1 0 .2.5.4.9 1 1l-.3 1c-.8 1.5-.6 3 0 4.4.4 1 .8 2 1.1 3.2.3.9.2 1.2-.8 1.6l-.7.2c-.4.2-.6.5-.5 1l.6 1.8c.9 2.3 2.1 4.5 3.2 6.7l-.5 1c-.2.3-.2.7-.3 1-.1.4-.6.5-.9.1-1-1.1-1.7-2.5-3.3-3a53.6 53.6 0 0 1-3.3-10.4c-1.7-7.3-2.7-14.7-3.2-22.2-.8-13.4-.3-26.8 1.6-40.2l1-5.7c.7-3.7 1.3-7.4 2.2-11.1a188.1 188.1 0 0 1 21.3-53c3-4.6 6.2-8.9 10.2-12.6 2.9-2.6 6-5 9.6-6.5a17 17 0 0 1 18.1 2.4c1 .8 2 1.8 3 2.9 2.1 2.5 3.8 5.3 5.2 8.3 2.6 5.3 4.2 11 5.4 16.7a158 158 0 0 1 2.7 32.5c0 .8 0 1.6-.3 2.3v-4.3l-.2-2-.3-.2-.3.3-.7 6.5-.5 8.1c0 .6-.2 1.1-.4 1.6-.1-2.3.1-4.6.3-7v-3.3c0-.4-.4-.6-.7-.4l-.8.5-7.1 5c-1 .5-1.4 1.1-1.5 2.2a223.8 223.8 0 0 1-2.3 18c0 .4.2.9.7 1l2.5.9c1.6.6 2.7 1.8 3 3.5.3 1 .5 2 .5 3a757.7 757.7 0 0 0 .2 5.6h.4l.4-1.2c.6-2 .7-4.1 1.4-6l.1 1.6c0 .8.4 1.6.7 2.3 1.2 2 2.9 2.6 5 1.6l.5-.2v1.5a251 251 0 0 1-12.5 40.8c-3.9 9.3-8.2 18.4-13.8 26.8a95.7 95.7 0 0 1-12.5 15.3c-2.1 2.1-4.5 4-7 5.6-5 3.4-10.5 5-16.4 5.7-5.2.7-10.3.4-15.5-.2a244 244 0 0 1-34.8-6.6 80.6 80.6 0 0 1-18-6.8l-1.7-1a9.5 9.5 0 0 0-4.1-1.9c-9-2-17.9-3.2-27-2.8-8.4.3-16.8.8-25.2.9a522.6 522.6 0 0 1-55.5-2.4c-6.3-.7-12.6-1.8-18.8-3.1-6.5-1.4-13-2.6-19.7-3.7-10.6-1.7-21.3-3.3-32-4.8-10.7-1.6-21.5-3.1-32.2-4.8a685 685 0 0 1-56.9-11.1c-1-1-2.5-1-3.8-1.5a65.7 65.7 0 0 0-10.3-3.2l-12.8-2.8a4 4 0 0 0-2-.3zm-60.9-55.6a1003.6 1003.6 0 0 1-8.5-3.9c-4.5-2.1-9-4.7-13.6-6.6l-8-3.2-2-.6c-.1 0-.4-.1-.5.2 0 0 0 .3.2.4l1.2.7 12.5 7.3c5 2.8 10.2 5.2 15.4 7.6.2.3.5.5 1 .5 0 1-.2 1.1-.9 1-.7-.3-1.3-.6-2-.6-2.7-1.3-5.4-2.5-8-3.9-3.2-1.6-6.2-3.1-9.7-3.8-3-.6-5.9-1.5-8.8-2.6l-1.8-.5-.4.1c-.1.1 0 .4 0 .4l2 1.4c3.6 2.3 7.4 4.4 11.2 6.2 7.8 3.8 15.8 7.4 23.9 10.6 9.1 3.7 18.4 7 27.8 10.4a458.6 458.6 0 0 0 47.8 14.4c1.3.3 2.5.7 3.8.7a355.2 355.2 0 0 0 9.3 2.4l.7.1c13 2.8 26.2 5.3 39.4 7.4l25.8 3.7a384.3 384.3 0 0 0 24 2.6l16 1.4h1.3c.3 0 .5-.5.3-.8l-2.1-2.3a9.5 9.5 0 0 1-3-3.1 3.5 3.5 0 0 0-2.3-1.8l-1.8-1.5c-.8-.6-1.7-1-2.7-1a47 47 0 0 0-11.5-.2l-6.7 1c-1 0-2 .3-3 .5-.1 0-.3.1-.2.2l.1.3 1.5.3 11.7 1.4c-.1 1-.7 1.4-1.6 1.5-1 0-2 0-2.8.4l-10.3.5h-3.6a8 8 0 0 1 .6-3.7c.2-.5.2-1 .2-1.6.8-.5 1.7-.5 2.6-.6l5.9-1.1.9-.3v-.4l-1.4-.3c-3-.1-6-.6-8.9-1.1 0-.6.1-1 .7-1h3.2l3.6.4 14.7 1.6c.7 0 1.5.5 2.3 0 0-1-1.2-1.1-1.8-1.6-.7-.5-1.6-.8-2.4-1.3-1.9-1-3.9-1.3-6-1l-10.4 1h-4.8c-.2 0-.5 0-.5-.4l.4-.3 1.6-.3 4.6-.5 1.1-.4.2-.3-.1-.2-2.1-.5-6.5-.7c-1-.2-1.7 0-2 1.1-.2.5-.5.2-.6-.1l-.5-.9c-.6-.7-1.5-.7-2.4-.8l-12.7-1.9c-1.2-.2-2.4-.3-3.6-.2l-7.7.8c-.4.1-1.3-.2-1.2.6 0 .5.7.5 1.2.6l2.6.5 9.8 1.4 1.5.7.2.4-.4.2c-1 .2-2 .1-3 0-1.4-.3-2.7-.4-4.1-.3-2.1-.5-4.2-.6-6.3-.2-1.1.2-2.2.2-3.3.2-1.4-.8-1.4-2.4-1.7-3.7-.1-.5.3-1 .8-1l3.5-.7c.9-.1 1.3-.5 1.2-.9-.3-.5-.8-.5-1.2-.5h-.8c-1.9-.2-3.8-.4-5.7-.8l-11-2.2-3.8-.7c-2-.4-3.9-.4-5.8 0-1.3.3-2.7.4-4 .4l-3.4-.2-.3-.3.2-.4.7-.4 1.8-.5.2-.4-.3-.2h-.5c-1.2-.4-2.5-.8-3.7-1l-1.9-.5c-.4 0-.7 0-1.1.2-.8.6-1 .6-1.3-.2-.4-.7-1-.9-1.6-1l-11.3-2.5c-.7-.2-1.4-.3-2.1-.2l-7 .8c-.2 0-.7 0-.6.4 0 .2.3.4.5.5l1.2.3 15 3.6c.4 0 .9.2 1.3.4.2.1.4.4.4.6 0 .3-.2.4-.5.4-.8.2-1.7 0-2.6-.2l-11.7-2.7c-.8-.5-1.6-.5-2.4.1-1-.2-2-.2-3 .4h-3.3c0-.9.3-1.6 1.4-1.5h.4c.6-.2.8-.7.4-1.1-.8-.6-1.3-1.2-.8-2.2.8-.4 1.7-.4 2.6-.5l2.8-.5.3-.3-.3-.4-4.8-1.2c-1.1-.7-2.3-.5-3.5-.5-.4-.5-1-.7-1.6-.9l-12.9-3c-2.1-.6-4.2 0-6.4.3l-.2.4.2.3 2.3.8 4.1 1.2c.5.3 1 .5 1.5.4.4.4.9.6 1.5.5.5.5 1.2.6 1.9.5 0 .7-.4 1.2-1 1.5-.4-.4-1-.6-1.5-.5h-.4c-.3-.3-.7-.5-1.1-.4-1.4-.4-2.8-.7-4.2-.5l-4.8-.1c-1.4 0-1.6-.2-2-1.6 0-.5-.1-1-.5-1.3l-2-1-9.3-3c-1.8-.7-3.6-1.2-5.6-.9-1 .2-2 0-2.9 0-.1-.2-.2-.6 0-.8.8-.7.7-1.4 0-2.1-.7-.8-1.3-1.5-1.4-2.7 0-.8-.3-1-1.3-.8-.5.1-1 .2-1.3-.2a5 5 0 0 0-2.5-1.4l-6.1-2-1.6-.4-.5.1c-.2.2 0 .5.2.6l3 1.5c.4.2.4.5-.1 1-.4-.3-.9-.5-1.4-.5-.3-.3-.7-.4-1-.4zm436-101.6c-.5.4-.7 1-1 1.5-.4.5-1 1-1.3 1.6-.5.6-.4 1.1.4 1.3 1.7.5 3.2 1.4 4.5 2.5.8.7 1 .7 1.9 0l1.1-1.3c.4-.3.3-.7 0-1l-.7-.7.5-.5.6.4c1 .6 1 .6 1.8 0l1-.8c.4-.5.4-.7 0-1.4l-.6-.6.6-.5c1.6 1.3 1.6 1.3 3.2.2l1-.7c.2-.3.3-.7 0-1l-.8-1 .4-.4c.6.3 1 1 1.8 1.2.7 0 2.8-1 2.9-1.5 0-1-.9-1.3-1.5-1.8l-1.5-.8a17 17 0 0 0-6.7-1.5c-.8 0-1.6 0-2.3.5-.5.7-1 1.2-1.6 1.7a13.7 13.7 0 0 0-3.7 4.6zm-418 105.4c-.9-.6-1.7-.6-2.6-.3l-.4.6c0 .3.2.5.6.6h.4a8449.1 8449.1 0 0 0 16.1 5.8c.4.1.7 0 .8-.4.3-.9 0-1.9-.9-2.2l-1.3-.5-12.8-3.6zM469.8 495c-.2.8-.8 1-1.5 1-.7.1-1.4-.2-2.1-.3-.2 0-.5 0-.6.2-.1 0-.1.3 0 .4.9 1.5 1.6 3.2 3.8 3.2l1.2.3c1.5.4 2.3-.7 3.1-1.7.6-.7-.2-1.3-.4-2l-.4-.8c-.9-1.6-.9-1.6-2.5-.4l-.7.2c0-.7.5-1 .8-1.5.5-.9.6-1.7.2-2.7l-1.3-3.3c-.3-.6-.7-.7-1.1-.3-1 1.1-2 2-3.7 2.1-.8 0-1.3.8-1.7 1.5-.3.7.1 1.2.5 1.8l.6 1c.3.6.8.8 1.5 1 1.4.5 2.8.4 4.3.3zm12.5 0c-.5 2-1.3 2.5-3.2 2.2-1-.1-1.9-.2-2.8.2-.6.2-.7.6-.5 1.1l1.2 1.8c.3.4.5.9.9 1.1.5.4.8-.2 1.3-.3h1.4l2.6.3c.4.1.8.1 1.1-.1.9-.7 1.4-1.6 1-2.7l-1.6-2.7c-.4-.5-.9-.7-1.4-.8.3-2.3-1-4-2-5.8-.1-.3-.4-.5-.7-.2l-.5.5c-1.2 1.2-2.5 1.9-4.1 1.4-.9-.2-1.6.4-2.4.2a1 1 0 0 1 1-.9h1.7c1.4 0 2.4-.5 3.4-1.5.6-.8.9-1.5.6-2.4L478 483c-.3-.8-.7-.9-1.3-.3a5.7 5.7 0 0 1-4.5 1.8 3 3 0 0 0-1.8.6c-.6.4-.7.8-.5 1.4l1.3 3.4c.3.6.7 1 1.4 1.3-.2 1-.2 1.9.5 2.7l.8 1.5c.3.5.5 1.2 1.1 1.4.5.2.9-.3 1.4-.3.3 0 .7-.2 1.1-.1h2.7c.9 0 1-1.3 2-1.4zm57.5-25.6c-.1 2.9 0 5.7.2 8.6l.2.7c.6 3.4-1 6-3.3 8.4l-1.5 1.5c-.3.3-.7.6-.4 1 .2.2.6.1 1 0a29.3 29.3 0 0 0 10.6-6.4 61 61 0 0 0 7.6-8.4l2.3-3.4c.3-.4.3-1-.2-1.3-.9-.5-1.5-1.3-2.1-2l-3.5-2.9c-.4-.2-.7-.5-1.1-.4-.7.2-1.3 1-2-.1 0 0-.4 0-.5.2l-.8.6h-.2l-.1-.2.8-1.7c.2-.6.4-1.1.3-1.7l-1-4.2c-.1-.3-.6-.3-.8 0l-3 4.3c-.8 1.1-2 2-2.3 3.4-.3 1.3-.1 2.7-.2 4zM64.2 209c-.7 0-1.1.6-1.6 1a76.2 76.2 0 0 0-7.5 8.2l-13.6 18.1c-2.5 3.4-2.5 3.4-2.4 7.6.1 3.4.7 6.7 2 9.9 1.5 3.5 3.6 6.5 7.3 8.3l.8.5c-3.5-.7-6-2.8-7.6-5.9a28 28 0 0 1-3.5-12.4c0-.8.2-1.6-.2-2.4-1.1 0-1.2 1.2-1.7 1.8-1 1.2-1.7 2.5-2.5 3.8-.5.9-.8 1.8-.8 2.8a50.7 50.7 0 0 0 2.9 15.4 10 10 0 0 0 8 6c2.6.4 5 .4 7.5 0 .5 0 1-.2 1.4-.3a4.2 4.2 0 0 0 3-2.4l1.7-4c.7-1.5.6-1.6-1.3-1.5l-3.6.1c-1.2 0-2.4-.3-3.4-1l3.4.1c1.6 0 3.2 0 4.8-.3.7-.1 1.3-.5 1.6-1.2l.4-1 5.5-14.8.8-2.6c.3-1.2 0-2.3-.8-3.3-1-1-1.7-2.2-2.4-3.4a49 49 0 0 1-4-9c-1.1-3-1-6 .2-8.9 1-2.4 2.4-4.7 4-6.8.6-.8 1.3-1.5 1.6-2.4.1-.1.2-.1 0-.2v.2zM377 415.4l8.2-.5a25279.7 25279.7 0 0 0 34.6-2.1 4 4 0 0 0 1.9-.5c-.5-.5-1.1-.2-1.7-.3l-2.4-.1c-3.6-.3-7-.5-10.5-1.4a139 139 0 0 0-19-3.3l-15.9-1.7c-1.7-.2-3.5-.3-5.2-.3l-8.5.4-15.7.5h-1.4c-.4 0-.9.2-1 .6-1 2.5-3.1 3.6-5.3 4.7l-1.7 1s-.2.2-.1.3c0 .2.1.3.3.4l.9.3a72.2 72.2 0 0 0 18.8 2.4c8 .1 15.8 0 23.7-.4zM89 192.2v-.5l.1-.2c.1-.5-.2-.5-.5-.4a69.6 69.6 0 0 0-26.2 22.2 24.8 24.8 0 0 0-3 5.7c-.9 2.1-1 4.2-.5 6.4 1 4.1 2.5 8 4.7 11.5l1.6 1.9c.4.4 1 .2 1-.4.5-1.9.5-3.8.2-5.7-1-5.5.5-10.3 3.6-14.8 4-5.8 8.3-11.5 13-16.8l5.2-6.3c.6-.8 1.2-1.6.8-2.6zm470.6 271.4-.2 1.7c0 .3-.4.7.1 1l.6-.7 1-1.5a155.6 155.6 0 0 0 12.1-30.3c.3-.9.1-1.2-.7-1.5-1.8-.9-3.7-1.6-5.6-2-2.7-.5-2.7-1-3.6 2.2-1.5 4.8-3.1 9.6-5.1 14.3a5 5 0 0 0-.3 3.5l.5 2a44 44 0 0 1 1.2 11.3zM488.1 383c-1 0-1.4.1-1.7 1-.8 2.1-1.4 4.4-1.9 6.7 0 .5.2.9.8 1h2l.3.4c0 .1 0 .2-.3.2l-2.4.3c-.5 0-1 .3-1 .8-.7 2-1.2 4-1.5 6-.1.5.2.8.7.8h.7a9 9 0 0 1 5.7.7l1 .4c.8.2 1.2 0 1.4-.6l1-5.2c0-.4 0-.8-.3-1.2-.3-.3-.9-.5-.8-.8 0-.4.7 0 1-.3l.4-.5c.6-2.1 1-4.3 1.4-6.4 0-.5-.2-1-.6-1.2-1.9-1.1-3.8-1.9-5.9-2zm-64.7 27.4h8.7c1.7 0 1.8 0 2.3-1.8.6-1.6 1-3.2 1.5-4.9.9-3.1.9-3.1-2.5-2.8l-2 .3c-.6 0-1 .4-1 1l-.3 2c0 1 0 2-.2 3 0 1-.3 1.2-1.2 1.3-2.4.2-4.8.3-7.2-.3-1.9-.4-3.8-.6-5.7-.6l-4.6-.1c-1.3 0-2.5-.4-3.7-1l-2.4-1.5c-2.9-2-2.9-2-6.3-1.7l-1.7.2c-.3 0-.7 0-.8.3-.1.4.2.6.5.8 4.4 2.3 9 4 13.8 4.8 4.3.6 8.5.7 12.8 1zm61.4 50.9c1-.2 2.1.3 3.3.3 1.1 0 1.6-.4 1.5-1.4l-.6-7.4c-.1-.8-.6-1.1-1.3-1.3-2.9-.8-5.8-1.3-8.6.4a4 4 0 0 1-.9.3c-1 .3-1.4 1-1.3 2l.8 7.2v.3c.2.7.6 1 1.2.7l1.4-.5c1.3-.6 2.8-.7 4.4-.6zm1.8 11c1 0 2.2 0 3.4-.2 1 0 1.3-.5 1.2-1.4l-1.1-7c-.2-1-.8-1.6-1.8-1.6-3.1-.3-6.2-.4-9.2 1-.7.3-1 .7-1 1.5.3 2.6.7 5.2 1.3 7.8.2.6.6 1 1.1.7 2-1 4-.9 6-.8zm.8.2c-2.3-.1-4.5.3-6.5 1.3-.7.3-1 .5-.8 1.3l1.3 5.6c.2.7.6.9 1.3.6a18 18 0 0 1 5.6-.9h3.4c1.4-.1 1.6-.4 1.3-1.6l-1.1-4.7c-.2-.9-.7-1.4-1.6-1.4l-3-.2zm7.8 14.3v-1l-1.2-3.4c-.3-1-1-1.3-2-1.3-2.3 0-4.7.1-7.1.4-.8 0-1.4.3-2 .7-.4.3-.6.6-.5 1 .4 1.7 1 3.3 1.7 4.8.2.5.6.7 1.1.5 2.6-1 5.2-1 7.9-1.2l1.6-.2c.2 0 .4-.3.5-.3zM491 374.3c-1.4 0-1.6 0-2 1.1l-1.8 5.8c-.2.7 0 1 .8 1.1 1.6 0 3 .6 4.4 1.3l1.6.6c.6.2 1 0 1.1-.5l1.6-6.3c.1-.5 0-1-.5-1.2-1.6-1.1-3.4-1.8-5.2-2zm2.2 114c-2 0-3.8.1-5.4.5-3.2.8-3.5.1-1.9 3.7l.6 1.3c.6 1.1.7 1.2 1.9.8 1.1-.3 2.3-.4 3.5-.5l5.3-.5c.6 0 .8-.4.6-1l-.6-1.5c-1.6-3.4-1-2.8-4-2.8zM509 342c0-.4-.2-.6-.5-.8-1-.9-2.2-1.6-3.5-2-.9-.4-1.2-.3-1.7.6l-2.5 5.2c-.3.7-1 1.5-.6 2.2.3.5 1.1.6 1.6 1l2.6 1.6c.9.6 1.2.5 1.5-.3l3-6.9.1-.6zm-13.4 152.5-5 .5c-.6 0-1.2.1-1.7.3-1.1.4-1.2.6-.7 1.5.4 1 1 1.9 1.5 2.8.7 1.2 1 1.4 2.5 1 1.7-.4 3.5-.7 5.2-.8l3.1-.5c.3 0 .5-.4.4-.7l-1-2c-1.4-2.5-1-2.2-4.3-2zm9.3-142.9-.4-.5c-1.1-1-2.4-2-3.8-2.5-1-.3-1.5-.1-1.9.9l-2.5 6c0 .1-.2.3-.1.4 0 .3 0 .6.2.7 1.9.4 3.3 1.5 5 2.5.5.3.8.2 1-.4a537 537 0 0 0 2.4-6.3l.1-.8zm-8 6c-1.1 0-1.6.1-1.9.9l-2 5.6c-.3.7 0 1.1.7 1.3 1.6.4 3.2 1 4.6 1.9l.5.1c.3.2.7 0 .8-.2l1.9-6c0-.3 0-.7-.2-.9a9.1 9.1 0 0 0-4.5-2.6zm-3.7 8.6c-.6-.2-1 0-1.2.6a35 35 0 0 0-2 5.4c-.1.7.1 1 .9 1.2 1.9.2 3.6.8 5.2 1.7l.5.2c.3 0 .6 0 .7-.4.7-1.8 1.2-3.7 1.6-5.5 0-.5-.1-.8-.5-1a9.6 9.6 0 0 0-5.2-2.2zm-443 20.6c0 1.5.3 2.4.9 3.2 1 1.3 2.2 2.3 3.8 2.8l11.2 3.7 1.1.2c.3 0 .5 0 .6-.2 0-.2 0-.4-.2-.4A451.6 451.6 0 0 0 51.3 386c-.4-.2-1 0-1 .4v.5zm468-62.3-.4-.6c-1-.9-2-1.8-3.2-2.5-.8-.3-1.2-.3-1.6.4l-3 5.2c-.4.6-1 1.2-.7 2 .2.6 1 .6 1.6 1l2.3 1.6c.6.4 1 .4 1.2-.2l3.6-6.2.2-.7zm-50 156.8c0 1 .4 1.8.8 2.6.2.2.5.5.8.3 1.4-.6 2.8-.6 4.3-.8 1.4-.3 2-1.5 2.8-2.4.2-.2.2-.5.1-.7-.4-1.7-.7-3.5-1.4-5-.2-.5-.6-.6-1-.3a7.3 7.3 0 0 1-4.5 2.5c-.3 0-.6.2-.7.5-.6 1-1 2.2-1.2 3.3zm45-148c0-.3-.1-.6-.3-.7-1-.8-1.8-1.5-3-2-1.3-.7-1.5-.7-2.2.6l-2.5 4.8c-1 2-.7 1.9 1 2.6l2.6 1.7c.7.4 1 .3 1.3-.3l2.9-5.9.3-.9zm-175.7 73.3-.2-.4-1.4-.1h-13.7a5 5 0 0 0-1 0l-.2.3.1.4c2.1 1.5 4.3 2.8 6.7 3.9.7.3 1.5.3 2.3 0l5.2-2.4 1.9-1.1.4-.6zm87-5-5.4.6c-1.3.1-1.6.8-1.1 2 .6 1.2 1.6 2 2.9 2.3 2 .6 4.3.6 6.4.8.6 0 1-.3 1-.9l.2-4c0-.7-.3-1-1-1l-3 .3zm144.3-10.4v-1.1c0-.5-.4-.7-.8-.5-1.4.5-2.2 1.3-2.3 3l-1.2 9.3-.6 3.6.1.9c.5.6 1.3.6 2 .5.5 0 .7-.4.7-.8l1-6 1.1-9zm-67.9 109-6.3.7c-.9 0-1.7.4-2.6.6-.3.1-.5.5-.3.8l1.6 2.1c.5.6 1.1.7 2 .6l7.3-.8c.6 0 1.4.2 1.7-.5.2-.6-.4-1-.7-1.5l-.7-1c-.6-.7-1.3-1-2-1zm21.6-182-.4-.7c-.8-.7-1.5-1.5-2.4-2-1.9-1-2-1-3.2.6l-.7 1c-.5 1-1.6 1.8-1.4 3 .2.9 1.5 1 2.2 1.7.6.5 1.2 1 1.8 1.3.4.3.8.2 1-.1l2.9-4.2.2-.7zm18.2 15.9c0-.2 0-.5-.2-.6-.3-.2-.6 0-.9.2l-1.9 1.8c-.6.5-.8 1.1-.7 2l1.2 11c0 .4 0 .8.2 1.1l.2.4.3-.3c.1-.5.3-1 .3-1.6l1-9.9.5-4.1zm-38.3 171-6 .5c-.9 0-1.3.4-1.3.8.1.5.6.7 1 .9l1 .2 7.2 1c1.1 0 2.2 0 3.3-.4.6-.2.7-.5.3-1-1.2-1.5-2.5-2.6-4.5-2h-1zm-12.5 1 .5-.2c0-.2 0-.5-.2-.7l-3.2-4.2c-.5-.7-.8-.7-1.3 0-.8 1.2-1.9 1.5-3.3 1-.8-.3-1.7-.4-2.6-.2-.4.1-.6.5-.5 1 .2 1.2 1.2 1.6 2.3 1.8l7.3 1.4 1 .1zm33.4-189 .5-.3 2.2-2.8c.2-.3.2-.6 0-.9a7.1 7.1 0 0 0-4.6-2.8c-.3 0-.7 0-.9.2-1 .8-1.7 1.7-2.1 2.8-.1.3-.1.6.1.7 1.7.6 2.9 1.7 4.2 2.8l.6.2zm6.4-7.6-.2-.5c-.8-.9-1.5-1.7-2.6-2.1-3.3-1.3-3.5-1-5.2 1.4l-.1.2c-.3.4-.2.8.2 1 1.5.5 2.8 1.1 4 2.1 1.2 1 1.3 1 2.3 0 .5-.5 1-1 1.3-1.5l.3-.6zM413.4 406c.9 0 1.8 0 2.6-.2.5 0 .7-.3.6-.8 0-.5-.2-1-.4-1.4-.3-1-.5-1.2-1.5-1.2l-7.2.5c-.6 0-1.5-.2-1.6.7 0 .6.7.8 1.2 1.1.2.2.6.3.9.4 1.7.8 3.5.9 5.4.9zm123.3-113.9c-.8 0-1.4 0-1.8.4l-.2.4.2.4 3 .7a13 13 0 0 1 7 3.3c.6.6 1.3.7 2 .5l1.2-.4c1-.3 1-.6.2-1.3-1-.8-1.8-1.5-3-2a33 33 0 0 0-8.6-2zm-83.1 198c-2.2 0-4.1 1-6.2 1.2l-.3.4.3.3 4 1.2c1.9.4 2.9-.1 3.7-1.8.3-.6 0-1.1-.7-1.2h-.8zM389 404.1c-1.8.1-3.6 0-5.3.5-.2 0-.5 0-.5.3l.4.2 9.3 1 2.6.4.4-.2c0-.2 0-.4-.2-.4-1.7-1.2-3.4-2.2-5.5-1.8H389zm85.5 98.8c1.5.1 2.2-.8 1.7-2l-.8-1.4c-.5-.8-1-1-1.6-.4-1.2 1.4-2.6 2.1-4.4 1.4l-.4.1c0 .3 0 .6.2.6 1.7.9 3.6 1.4 5.3 1.7zm-8-3-.1-.4-1.7-2.4c-.3-.4-.7-.6-1.2-.5-1.5.4-2.9.3-4.3-.3h-.4c-.2 0-.3 0-.4.2-.2.2 0 .5 0 .7l.3.1c2.2 1.3 4.6 2.2 7.1 2.9l.5-.1.1-.2zM558 340c.1-.8-.2-1.3-.7-1.8-.4-.4-1-.3-1 .3l-1.2 5.9c-.2.8-.5 1.7-.2 2.6 1-.4 1-1.5 1.3-2.3l1.8-4.8zM461.7 496l1.5-.3c.4-.1.6-.4.5-.7-.4-1-.8-2.2-1.8-2.5-1-.2-1.1 1.1-1.7 1.7a2 2 0 0 0-.3.4c-.4.5-.1 1 .6 1.2l1.3.2zm6.8-10.9-.5-1.3c-.1-.2-.3-.5-.5-.5-.3 0-.5.2-.7.5l-1.8 3.7v.6c.3.4.6.2.9 0 1-.5 1.7-1.4 2.4-2.3l.2-.7zM552 296.4c0-.4-.1-.6-.4-.8-.8-.5-1.8-.7-2.7-.9l-.2.1c0 .1-.2.3-.1.4l1.5 1.5c.5.4 1.1.3 1.6 0 .2 0 .2-.2.3-.3zm-26.8 181.2c-.1-.4-.3-.7-.7-.6l-2 .6c-.3 0-.6.2-.5.6 0 .4.3.5.6.7.4.2.9.2 1.4.2.7-.2 1.2-.8 1.2-1.6z" class="st0"/>
  <path d="m101.4 183.7-.1-1c-.3-1 .1-1.7.9-2.3 1.2-.9 2.4-1.8 3.8-2.4 3.2-1.4 6.3-2.9 9.6-4 3.2-1.3 6.3-2.7 9.6-3.9.7-.2 1.4-.7 2-1.2.4-.3.5-.7.3-1l5.2-2c8.3-2.3 16.5-4.8 25-6.4 2-.4 4-1 6-1.9l12.7-5.2 1.8-.6c.8.5 1.6.2 2.3 0l6.8-1.7c1.8-.5.6 2 2.4 1.5 2.4-.7 3.2-.5 5.8-1 .8 0 5-1.6 5.8-1.9l8.7-2.9c1.7-.5 4-.3 5.8-1 2-.7 3.3-4 5.5-4.5 2.5-.5 5-.8 7.5-1.6 1-.3 2-.3 3 .2.7.4 1.5.8 2.3.6 3-.5 5.7-1.5 8-3.6.6 0 1-.4 1.4-1 .6 0 1.1-.4 1.5-.9.5 0 1-.2 1.4-.6.7-.8 1.7-1.2 2.6-1.8.5-.4 1.2-1.2 1.8-.7.8.6-.4 1.1-.6 1.7 0 .3-.2.4-.3.7-.5.6-.4 1.3-.2 2 .4 1 1.3 1.2 2 .6 2.5-2.5 5.2-4.8 7.9-7l4.2-3.7c3.3-3.2 6.2-6.7 10-9.4 2.7-1.8 5-4 7.4-6.2 3-3 6.4-5.4 9.5-8.2 1.8-1.7 3.8-3.2 5.6-5l6.9-6c2.3-2 5-3.5 7-5.8l.8-.7 6-4.5 4.5-3.9.7-.7c.2-.3.3-.6 0-.8-.2-.2-.5-.3-.7-.3l-3 .9c.6-.5 1-1 1.7-1.4l14-10.3c.7-.6 1.7-1 2.2-1.8.3 0 .6-.2.8-.4v-.2c0-.2-.1-.3-.3-.2l-.6.6c-1 .2-1.8.9-2.6 1.4-4.3 3-8.7 5.8-12.9 9-5.1 3.8-10.1 7.9-15.2 11.8-.7.6-1.5 1-2.2 1.5-1.1-.5-2.3-.4-3.5-.2-1.9.3-3.5 1.1-5.1 2-3.3 1.9-6.2 4.1-9 6.5-1.8 1.4-3.5 2.8-4.2 5.1-.4 1.5-1.6 2.2-3.1 2.1-1 0-1.8 0-2.7-.2a6 6 0 0 0-3.3.3c-.7.3-.7.8-.5 1.4l-.6.1h-.2c-1.2 0-2.4-.3-3.5.3l-1.4.1c0-.3 0-.6.3-.8l1.4-.9c.2-.1.2-.7 0-.8l-1-.3a11 11 0 0 0-5.3 1.8l-4.4 3.3c-.5.4-1 .2-1.2-.3l.5-.6.5-.5.4-.5.5-.5c.2 0 .4-.3.5-.4l.5-.4.4-.4.4-.2.6-.4h.3l.7-.5c.3-.4.8-.6 1.3-.6l.6-.3.5-.1 1-.4.8-.1 1.1-.4 1.3-.1c.7 0 1.4 0 2.1-.4 2.3-.2 4.5-.4 6.8 0h.8l.7-.6.4-.4.5-.3.9-.7.6-.5.5-.4.5-.4c.3.4.7.2 1 0L289 89l7.7-6.2c.4-.3.6-.7.4-1.2.3-.6.8-.8 1.2-1.2A514 514 0 0 1 332.1 56a314.6 314.6 0 0 1 55-29.2c11.5-4.6 23.2-8 35.3-10.8 8.6-2 17.3-3.5 26.1-4.7 4.8-.7 9.6-1 14.4-1.6 6.3-.8 12.7-1.2 19-1.7l9-.6 15.9-.6a1263.1 1263.1 0 0 1 80.9-.4c10.8.5 21.6 1 32.3 1.7 6.9.4 13.7.7 20.5 1.2l20 1.7a292 292 0 0 1 18.2 2.2c7.2 1 14.3 2.3 21.5 3.5 7 1.3 14 2.7 21.1 3.8 4.2.8 8.5 1.3 12.7 1.8a85.9 85.9 0 0 1 46.2 20.3c10.5 8.4 20 17.8 28.8 27.8 3.6 4.1 7 8.3 10.4 12.4l2.7 3.2c1.3 1.6 2.9 2.7 4.8 3.5l2 .8c3.5 1.2 6.6 3 9.6 5.1 4 3 8.4 5.4 13 7.3 3.2 1.3 5.2 3.5 6.4 6.5 1.6 4.1 2.4 8.4 3 12.7a294 294 0 0 1 1.4 26l.5 11.6c.2 3 .7 5.8 1.4 8.6a116.8 116.8 0 0 1 0 59.3l-.5 1.3c-1.2-1.8-3-2.5-5-2.7-.6 0-1-.2-1.3-.6-.9-1-1-1-2-.4-.7.4-1.2 1-1.3 1.9l-.1 1.4c-.4-.8-.3-1.6-.3-2.4 0-3.6-.6-7.2-1.2-10.7l-.8-3.3c0-.2-.3-.5-.4-.5-.2 0-.5.3-.5.5-.9 3.7-2.1 7.2-3.5 10.7l-.4 2.2c0 .5.2 1 .8 1h2.1c1.2 0 1.9.5 2.3 1.5l.6 1.6.7 1.5c.2.2.4 0 .5-.3l.2-.4c.6 1 .4 2.1.3 3.2 0 .6 0 1.2.5 1.6l3.2 2.8c.5.4 1 .3 1.5-.2a8 8 0 0 0 1.3-2.2c.5-1.2 1-2.4 2-3.3l-.4 1.4c-1.3 3.7-2.6 7.4-4.7 10.7-.4.7-.4 1.4-.5 2l-1.4 12.5c-.5.9-.5 1.9-.4 2.9-.7 1.4-.7 3-1 4.4-.7 4.4-1.5 8.7-2.8 13h-.5l1-5c.9-2.6 1.3-5.3 1.6-8 .2-1.9-.2-2.4-2.3-3l.9-6.7c.5-4.3 1.1-8.6 1.1-13 0-1.2.3-2.5-.2-3.8-1.3.1-2 1.4-3.1 2-.8.4-1.4 1-2.2 1.5-.7.5-1 1-1 2-.2 3-.2 5.9-.8 8.8a2 2 0 0 0 .7 2c1.7 1.7 3 3.7 3.8 6 .1.6.5.9.9 1.1a9 9 0 0 0-1 5.6 22 22 0 0 1-1.5 10c-.2.5-.6 1-.9 1.4 0-.8.2-1.5.4-2.3.8-2.2 1.1-4.5 1.4-6.8.2-1.6 0-3.1-1.2-4.4a18.5 18.5 0 0 0-10.6-7c-.5-.2-1.1-.3-1.7-.3-.3 0-.6 0-.7.5-.1.3 0 .6.1.9.3.5.8.8 1.3 1 2 .9 3.8 2 5.5 3.4 1.1.9 2.3 1.5 3.6 2l-1 .5c-1.4.1-1.4.1-1.7 1.2-.6 2.5-1.2 5-2 7.4-.4 1.3-.3 2.5.2 3.7.7 1.7 1.3 3.3 1.7 5-.1.5-.1 1-.5 1.5-.1-1.3-.6-2.4-1-3.5l-3.9-10.1a56.5 56.5 0 0 1-3-11l-.4-2.3c-.1-.8.3-1.2 1-1.2 1.9-.1 3.5.6 5.2 1.2l1.8.7.2-.1v-.4l-2-1.3c-2.3-1.5-5.1-1.9-7.3-3.6-.3-.2-.7 0-.8.3-.4 1-.4 2.2 0 3.3.5 1.3 1 2.6 1.2 4 .8 4 2.2 8 3.5 12 1.6 4.5 2.7 9.2 3.5 14l-.5 1-.8-3.8c-1.2-4.7-2.5-9.3-4-13.9a59.6 59.6 0 0 1-2.8-10l-.3-.2-.4.2c-.5 1-.3 1.9-.1 2.8 1 4.6 1.8 9.2 2 13.8.2 3 .5 6.1 1 9.1-.5 1.3-1 2.7-1 4.2.1.2.1.4-.2.5l-.1-.7-.1-8c0-.9 0-1.9-.4-2.8-.2-5.1-.9-10.2-2-15.2a7 7 0 0 0-1.7-3.4c-.6-.6-1.2-.6-1.5.1l-.6 1.4a34 34 0 0 1-4.3 8.5l-1.1 1.9-.4.3c-.2.2-.5.4-.7.1-.3-.2-.2-.5 0-.8l.6-.7 2.3-3.6c1.4-2.4 2.6-4.8 3.2-7.4.6-2.1.9-4.3.5-6.4 0-.6-.4-1-1-.7a6 6 0 0 1-3 .3l-1-.5c-.4-.2-.1-.4 0-.5l2.4.2c.7 0 1.2-.3 1.5-1 .4-.6.6-1.2.4-2-.2-.6-.8-1-1.4-1.1-1-.5-2-.6-3 0l-.6.2v-.4c.3-.4.6-.6 1-.6l2.2-.2a3 3 0 0 1 1.8.5c.3.2.6.5.8.5.5-.1.5-.6.5-1 .3-1.7.5-3.5-.2-5.2a29 29 0 0 0-3-6.2c-.2-.2-.3-.2-.5 0v.4c-.6-1-.5-2.1-.3-3.2 0-.4.4-.6.8-.6 0 .8 0 1.7.5 2.5 1.5 2 2.4 4.2 3.3 6.4.2.4.4.9.7 1.2.1.3.4.2.6 0l.2-.4A60.4 60.4 0 0 0 833 220c-.2-2.2-.3-4.5-.8-6.7 0-.2-.1-.5-.5-.4-.1 0-.3.1-.3.3l-.7 1.5c-.3.3-.5.6-.5 1v.4c-.3.3-.5.6-.5 1v.5l-.4.6-.2.8-.3.6-.2.9-.3.6-.1.8-.3.6-.2.9c-.3.3-.4.6-.4 1l-.1.9-.3.6-.2.9c-.2.3-.4.6-.3 1l-.2.9c-.2.3-.4.6-.3 1l-.2 1c-.2.2-.3.5-.3 1l-.1.3c-.5-.8-.3-1.7 0-2.5 1.2-4.9 2.5-9.7 4.2-14.4l.4-1.4v-.6c-.3-.2-.5.1-.6.3l-1 2.7a163.5 163.5 0 0 0-8.8 42.6l-.5 8c0 .9-.3 1.7-.4 2.6-.6-1-.5-2-.6-3V261l.7-9.2c1-8.2 2.5-16.3 4.7-24.4 1.6-6.2 3.6-12.3 6.2-18.2 1.3-3.2 3-6.1 5-8.9a17 17 0 0 1 4.4-4.4c3-2 6.2-1.6 8.7 1l1.7 2c.3.5.5 1 .9 1.4 0 .2.2.3.3.3.3 0 .3-.4.3-.6a44.7 44.7 0 0 0-5-12c-1-1.2-2-2.3-3.5-3a4 4 0 0 0-4.5.6 8 8 0 0 0-2 2.3c-.7 1.3-1.5 2.5-2.1 3.8-4.2 8.7-7.8 17.7-10.5 27-.2.8-.3 1.6-.8 2.3-2-.5-2.9-1.9-3.2-3.8-.1-1.2-.4-2.3-.7-3.5-.5-2-.5-4 .1-5.9.3-.7.4-1.5 0-2.3 0-.3 0-.6.2-1 2-5.6 3.3-11.5 4.8-17.3.4-1.7.9-3.3 1.2-5a202 202 0 0 0 4.1-40c0-6-.5-12-1.4-18-.4-3-.4-3-3-1.6-2.1 1.1-4.2 2.4-6.5 3.2.3-.5.7-.7 1.1-1l3-1.8 2.8-1.6c.3-.2.8-.4.7-.8 0-.5-.5-.6-.8-.8l-.7-.3-11.6-5.8-4-2.1a18.4 18.4 0 0 1-7-6.6l-.6-1c-.2-.3-.5-.3-.8-.1l-6.7 5.6c-1.4 1.1-2.6 2.5-4.3 3.3 0-.4 0-.8-.2-1.2.6-.9 1.5-1.4 2.3-2.1l8.6-7.7c2.2-2 3.5-4.4 4.2-7.2l.5-3.4c.5-4.5 0-9-.6-13.4 0-.3-.2-.6-.4-1h-.1c-.2 0-.4 0-.4.2v1.9c-.2 4-.7 8-1.8 12-1 3.8-2.9 7.2-6.1 9.8-2.3 1.9-4.6 3.9-7 5.6a240.4 240.4 0 0 1-23.7 15.3 501.8 501.8 0 0 1-57.7 27.6l-1.3.5c-.5.3-.7.7-.5 1.2l1.5 3c.3.6.7.7 1.3.5l.4-.2c10.1-3.8 20-7.9 29.7-12.8.8-.4 1.5-.9 2.4-1 .2.4.6.7 1 .9a85.7 85.7 0 0 0 5 16c2.3 5.3 4.3 10.6 6.1 16l2.5 7.5c.2.7.6.8 1.1.6a35 35 0 0 0 2-.9l11.8-5.5.6-.3.4-.1c.3 0 .7.1 1 .5-.5 0-.8.1-1 .4l-13.4 6.2c-1.3.6-1.8 1.3-2 2.7a394.1 394.1 0 0 1-7.6 58.4c-1 5.3-2 10.6-2.3 16a37.4 37.4 0 0 0 3.4 18.3c.2.3.5.4.8.2l1-.6 10.3-6.5a612.2 612.2 0 0 0 39.3-27.5l.9-.4h.2c.2.1.2.2 0 .4-.2.5-.7.8-1.1 1.2l-8.4 6a688.8 688.8 0 0 1-41.6 28.2c-.4.2-.7.6-.7 1.2 0 2.2-1 4.2-1.9 6.2-1.5 3.3-3.2 6.4-5 9.6-1.4 2.3-2.6 4.8-4 7.2 0 .3-.4.7 0 1 .4.4.8 0 1.1-.1l1.5-.8 31.7-17.1a49 49 0 0 0 8-5.3l.5-.4.4-.2c.1.3.3.7 0 1-.4.8-.2 1.6 0 2.4a44.3 44.3 0 0 1-6 3.8l-8.2 4.5-35.7 19.3-50.5 27.5c-11.8 6.4-23.6 12.8-35.3 19.6-4 2.3-8 4.6-11.7 7.1L619.3 375c-3.6 2.4-7 5.2-9.8 8.5l-.5.5-.7-2c-.3-.6-.5-1.4-1.3-1.3-.6 0-.5.9-.9 1.3 0-2 .4-4 .9-5.9v2c0 .6.3 1.2 1 1.5.1.4.3 1 .9.5 1.1-.9 2-2 3.2-2.9 1.3-1 2-2.2 2.3-3.8 2-9.3 3.2-18.7 4.1-28.1 1.2-11.6 2-23.1 2.4-34.7a963.8 963.8 0 0 0 .4-61c-.2-3-.2-3-3-1.7-.5.3-1 1-1.9.6 0-1.1 1-1 1.6-1.4 3-1.4 3-1.4 2.2-4.6-1.4-5.7-2.7-11.4-3.6-17.2-1.2-8.2-3.3-16-6.8-23.6-1.5-3.4-.9-3.2-4.7-2.4-.9 0-1.7 0-2.4.5-1-.1-2 0-3 .3H598c-.4 0-.2-.2 0-.4l.3-.3.5-.1c.5 0 1 0 1.5-.4l.4-.1c.5 0 1 0 1.5-.4.5 0 1-.2 1.4-.3 1.2-.4 2.4-.4 3.5-1 0-1.4-1-2.3-1.6-3.4-1.7-3.4-2.5-7-2-10.7v-1.5c0-.6-.3-.9-.9-.8l-4.7 1-21 5.5A1293.3 1293.3 0 0 0 467 222.4c-23 8.6-45.4 18.2-67.7 28.3l-9.9 4.5v-.3c.3-.6 1-.7 1.4-1l14.4-6.8a986.1 986.1 0 0 1 53.2-22.3c2.3-1 4.7-1.6 6.9-2.8l.5-.1c.2 0 .5-.1.6-.3l.8-.3.6-.3.9-.2.4-.3.5-.1.7-.3.8-.2.5-.3 1-.2.4-.3c.7 0 1.3-.4 2-.7l.6-.2.8-.2.6-.3.9-.2.5-.3 1.2-.3 14-5c28.8-10.1 58-19.1 87.4-26.8 3.1-.9 6.3-1.6 9.4-2.4.4 0 .7 0 1-.4 1-.1 2-.4 2.5-1.4.8-.2 1.7-.3 2.5-.6l6.6-2.1c1-.3 1.7-.8 2-1.9 0-.3.2-.5.4-.8.5.4 1 .3 1.6 0 .8 0 1.4-.3 1.7-1l1-2.2a498.5 498.5 0 0 1 29.6-65c6.1-11.2 12.8-22 20.5-32.2a109 109 0 0 1 34-29.5 75.2 75.2 0 0 1 34.2-8.2 97.2 97.2 0 0 1 56.4 17.8l.6.4c.2.1.4.5.5 0 0 0 0-.2-.2-.3-1.8-1.6-3.8-3-5.7-4.4-1-.8-2.2-1.4-3.1-2.3-.1-1-1-1.7-1.4-2.4.2-.5 0-.8-.4-1l-3.6-3a78.8 78.8 0 0 0-35-14.1c-5.6-.8-11.2-1.5-16.7-2.4a36 36 0 0 0-12.8 0c-5.4.8-10.7 2.1-15.8 4.3-7.6 3.3-14.8 7.2-21.6 11.8-1.8 1.3-3.6 2.5-5.1 4-2.8 2.7-5.3 5.7-8 8.5-1.1.8-2.4 1-3.8.5l2.6-3c.4-.5 1.3-1 1-1.7-.2-.9-1.3-.6-2-.7l-9.9-1.2-12.4-1.6-18.7-2.3-21.8-2.5a1911 1911 0 0 0-53.4-5.2l-20-1.5-20.3-1.3c-11.3-.8-22.7-1.1-34-1.6a833.7 833.7 0 0 0-72.7.3 13 13 0 0 0-4.7 1c-7 3.1-14 6.6-20.8 10.2l-1 .6-.2.2c0 .2.1.2.3.1l1.4-.5 7.3-2.4a88.6 88.6 0 0 1 31.8-3.5l12.3.5 24.2 1.2 9.6.4 22.4 1.4 19 1 8 .5c5.7.4 11.3 1 16.9 1.3a1308.2 1308.2 0 0 1 89.9 8.8c3.7.6 7.3 1.3 10.9 2.3 2.4.8 4.8 1.7 7 3.1 4.4 2.9 5.7 7.2 3.7 12-.8 1.7-1.8 3.2-2.8 4.8-4.2 6-8.5 12-12.7 18.2a365.7 365.7 0 0 0-16.5 26.7l-18.6 33.9-6.8 12a22.8 22.8 0 0 1-14.5 10.7 45 45 0 0 1-14.2 1.3c-5.4-.3-10.7-.9-16.1-1.4l-20-2.3-14.3-1.6-20-2.3-14.6-1.6-24.5-2.7-19.2-2.2-14.6-1.6-19.7-2.2-22.5-2.6-18.3-2.2-20.6-2.7c-7.7-1-15.4-2-23.2-3.2l-24.1-3.6c-5.2-.8-10.5-1.7-15.7-3-1.6-.3-3.2-.8-4.7-1.7-1.7-1-2.8-2.4-2.8-4.4l-.1-1.5c-.1-.6-.6-1-1.2-.9a5 5 0 0 0-2.2 1c-2 1.4-3.8 2.7-6 3.7l-7.3 3.2-1.3.6-.2.4.2.4 1.6.6c2.2.9 4.4 1.4 6.5 2.5-1 .3-2.2.5-3 1.4l-8-3.1a7.2 7.2 0 0 0-5.3-.4c-3.6 1.2-7.3 2-10.9 3 0-.8-.5-.8-1.1-.7-3.5.8-6.8 2-10 3.7-1 .1-2 .5-3 .9-.8.3-2.2 1.8-3 1.8-.5-.5-.4-.2-1 0-1.3.4-2.5-.6-3.8-.2-8 2.7-16 5.8-23.8 9.2-2 1-4 1.6-6.1 2-6 1.2-6 1.2-11.3 4l-.7.2v-.7c0-.3 0-.7-.5-.6l-1.6.3c-6.2 1.8-12.4 3.6-18.5 5.8l-1.7.4a2 2 0 0 0-1.4-.1l-2.5.6a7.4 7.4 0 0 0-4.2 2.6c-.4.3-1 .5-1.5.5-.5-.3-.7 0-1 .4a29 29 0 0 1-5.3 2.3c-.2 0-.4-.3-.4.2-2.1 1.3-4.5 2.2-6.8 3.2zm730.8-65.1c-.2 0-.4.2-.5.3l-.4.2-.6.3c-1.1.6-1 1.5-.8 2.5 1 6.2 1.6 12.4 1.8 18.7a180.6 180.6 0 0 1-4.1 43l.1.3.4-.2 1.6-3.3c2.3-4.7 4.8-9.2 8-13.4 1.5-2 3.1-3.7 5-5.2 2-1.6 4-3 6.5-3.7a7 7 0 0 1 6 .8l1.2.8c.5.3 1 0 1-.6v-4.8c-.3-8.7-.4-17.4-1-26 .3-2-.3-3.9-.5-5.8-.3-3.4-1-6.7-2-10-.7-2.5-2.1-4.4-4.8-5.2l-1.4-.4c-4.5-2.2-8.9-4.8-13-7.7a29 29 0 0 0-6.4-3.5l-3-1.2c-3.2-1.2-5.7-3.1-7.7-5.7-2-2.4-3.9-4.8-5.9-7l-5.6-6.4c-.2-.2-.4-.3-.6-.1-.1 0-.2.3-.1.4.6 2.6.8 5.3 1 7.9.6 5.8.3 11.4-2.8 16.6-.5 1-.4 1.8 0 2.7.6 1.2 1.3 2.3 2.2 3.2 1.6 1.8 3.4 3.2 5.6 4.2l17 8.5c.5.2 1 .3 1.4.2l.6-.3.4-.2.6-.3.4-.2.4.5zm-171 66.6.6.1c.7.2.8.4.3.9l-.5.5-3.3.8c-14.8 3.6-29.7 6.7-44.5 9.9-2.8.6-2.8.5-1.6 3.2a87.1 87.1 0 0 1 7.4 27 252 252 0 0 0 3.6 16c.1.5.5.6 1.1.4l1.3-.7 6.5-3.1 67-31.8 51.7-24.4c1.9-1 2-1 1.4-3l-.2-.9c-2.2-6.6-4.3-13.2-7-19.5-2.3-5.3-4.2-10.7-5.6-16.2l-.1-.5c-.2-.7-.6-1-1.3-.7l-1 .6c-5.5 2.5-11 5-16.6 7.3l-11.2 4.5c-1.6.6-1.6.6-1 2.3.5 1.3 1 2.7 1.3 4 .6 2.3.4 4.4-.4 6.5-.7 1.8-1.7 3.4-3 4.9-2.9 3-6.5 4.6-10.5 5.6a41 41 0 0 1-6.4 1c-1.2 0-2.4-.1-3.4.5h-3c-2 0-3.9.3-5.8 1.2-1 .5-2.2.7-3.4 1-1 .3-2 .3-3-.2a8 8 0 0 0-3.9-.5l-8 .6c-.4 0-.7.2-1 .3-6.6.4-13.2.8-19.8 1-6 .2-12 1.3-17.8 3l-10.9 3.3c-3.4 1-3.4.6-1.6 4l.1.3c1.3 2.3 1.5 2.4 4 1.9l19.1-4.1 28.8-6.5c.6 0 1-.1 1.5-.5zm31.8-40.6c-.4-.2-.7-.6-1.2-.7-2.3-.7-4.6-1.3-7-1.6l-13.1-1.8c-2.8-.4-5.5-.8-8.2-.8-1.7 0-3.2.6-4.4 1.7l-.2.4c.2 0 .3.2.5.1l3.4-1c.3 0 .4.1.3.3l-.4.3-.1.2a8.8 8.8 0 0 0-7.4 6.4c-1.2 3.8-2.7 7.4-4 11.1a64.7 64.7 0 0 0-3 11.5c0 .6.3 1 .8 1l3.2-.1 28.4-2c5-.3 10-.6 15-1.3 1.7-.2 3.4-.6 5.2-1 1.4-.3 1.6-.7 1.4-2.2v-.2c-.7-2.6-1.2-5.2-2-7.8-.5-2-1.2-4.1-2.3-6-1.7-3-4.1-5.2-7.6-6l-5.4-1c.9-.5 1.8-.4 2.7-.2l5 1.1c1.2.4 2 1 3 1.8 2.4 1.9 3.8 4.5 4.7 7.4a82 82 0 0 1 3 11.2c.1.5.7.6 1.1.3.8-.6 1.2-1.3 1-2.3a71.1 71.1 0 0 0-6.1-13.9 10.4 10.4 0 0 0-6.3-4.9zm141.1 35.8c2.6-4.6 5.9-8.6 10.3-11.7 1.2-.8 2.5-1.4 3.9-1.8 3.2-.9 6.2-.4 8.8 1.8l1.1.9c.2.1.5.3.7.2.2 0 .2-.4.1-.6l-1.1-4.7c-1.3-4.3-5.1-6.1-9.3-4.5-1.2.4-2.4 1-3.4 1.9l-2.7 2.4a59.9 59.9 0 0 0-13.5 23c0 .5.5.3.8.3 0 .9-.6 1.5-1 2.2-.7 1.3-1.2 2.6-1.8 4-.5 1.3-.2 2.5.7 3.5.5.6 1 .7 1.5.2 1.5-1.3 2.7-3 3.5-4.8 1.3-2.9 2.2-5.9 4-8.5.7-1 0-2-.5-3-.5-.8-1.2-1-2-.8zM619.5 61c-1.9-1.3-4.2-1.8-6.5-2.2a588.9 588.9 0 0 0-38.3-5.1l-24-2.3-21.3-1.6-22.6-1.7-18.8-1.2-27.5-1.7a2345.4 2345.4 0 0 0-56-2.6 98 98 0 0 0-20.5 1.1c-2.8.5-5.7 1-8.5 1.9-.2 0-.4 0-.7.2l-.3.3c0 .4.3.3.4.3 4.4-.5 8.7-.3 13-.3 1 .4 2 .3 3 .4l8.8.1h4.8c.3.2.7.4.3.9a6 6 0 0 1-2.8 1.8c-.9.2-1.7.4-2.4 1.2l-9.7 3.7c-.6.3-1.3.4-1.9.6l-.5-1 .9-.5 8.6-3.7 1.8-.8s.2-.3.1-.4l-.3-.2-.7-.1a305 305 0 0 0-25.8 0 27 27 0 0 0-11.4 3c-8 4.4-15.7 9.5-23.3 14.7-9 6.3-17.6 13.3-26.2 20.2a798.6 798.6 0 0 0-27.3 22.6L270.5 120 258 131.5a165 165 0 0 0-5 4.9c-.6.6-.5 1.2.2 1.6l2 .8 4.3 1a854 854 0 0 0 34 5.4l19.2 2.7 16 2.1 13 1.7 13.1 1.6 14.9 1.7 15.1 1.7 14.7 1.6 19.6 2.3 14.7 1.6 19.4 2.2 23.5 2.6 19.7 2.2 19.7 2.1c7.9.9 15.8 1.9 23.7 2.5a54.1 54.1 0 0 0 17.7-1.5c.2 0 .5-.2.4-.5l-.4-.2-3.4-.5-17.6-2.7-22.5-3.2-18.1-2.7c.5-.4 1.2-.3 1.8-.5l1.7.2 29.2 4.2 19 2.8c3.9.6 7.7 1 11.5 1.7 1.2.2 2 0 3-.7 2-1.4 3.6-3.1 5-5.2l3-5 18.8-34.2c3-5.4 5.8-10.8 9-16a677.5 677.5 0 0 1 23.8-36l1.4-2c.5-.8.7-1.6.6-2.5l-.2-1.5c1 .6 1 .6 1.4-.4v-.2l.5-.8c0-1.1-.4-2-1.2-2.7-.9-.9-1.7-2-3.1-1.7-.4 0-.8-.2-1-.5l-.6-.5zM753 186.7v-1c0-1.3-.3-1.5-1.4-1l-2 .8-11.4 5.4-40 18.8-42.5 20.2-29.8 14.3-1.5.8c-.5.2-.7.6-.7 1.2v1.4l.3 9c.2 21.7 0 43.4-1.1 65.2-.3 6-.6 12-1.2 18-1 10.3-2.2 20.5-4 30.7l-.2 1c0 .3-.2.8.2 1 .3.2.6 0 .9-.2l1.2-.8 10.6-7.1c3.6-2.4 7.2-4.7 10.9-6.9 14.7-8.5 29.6-16.7 44.5-24.8 14-7.7 28.2-15.3 42.3-22.9 2-1 3.9-2.2 5.9-3.3.6-.3 1.1-.8 1.4-1.5 1.2-3.6 3-7 4.9-10.2 1.9-3.4 3.6-6.8 5.2-10.4.5-1 1-2 1.2-3.1 0-.2 0-.4-.2-.5h-.4l-1.7 1-15.7 9a2058.7 2058.7 0 0 1-78.8 40.4c-.2.1-.5.4-.5 0l.3-.3a2637.5 2637.5 0 0 0 67.1-34.7 492.3 492.3 0 0 0 29.3-16.5c.4-.3.6-.8.4-1.3l-.7-2a38.3 38.3 0 0 1-2.6-19.7c.6-4 1.2-8 2-12 1.2-6 2.6-12.2 3.6-18.4 1.5-9.5 2.4-19 3.3-28.6l.9-11zM552.1 11.1a1124.5 1124.5 0 0 0-85 3.5 297.6 297.6 0 0 0-48.1 7.7c-6.6 1.5-13 3.6-19.4 5.6-1 .4-2.3.4-3 1.3-.3.3.2.4 3.3.3 12-.4 24.1-.6 36.2-.5l31 .7c8 .2 16 .7 24 1h.8l24.3 1.7 17.1 1.2 25 2.3 17.4 1.6 29.7 3.3a1295.2 1295.2 0 0 1 27.1 3.3l16.5 2.2 9.1 1.2a3 3 0 0 0 2.7-.8c1-1 2.2-1.9 3.4-2.8 7.6-5.8 16-10.5 24.7-14.5a59.7 59.7 0 0 1 18.4-5.4l-.2-.4a15 15 0 0 0-1.9-.5c-6.7-1.2-13.4-2.5-20.2-3.6a386.8 386.8 0 0 0-31.4-3.9c-5.5-.5-11-.8-16.6-1.2l-18-1.2-11.4-.6c-10.2-.7-20.4-1-30.7-1.2-8.2-.3-16.5-.3-24.8-.3zm80.8 135.8.2 4.8.4 10.4c0 1 .3 1.2 1.2 1 3.4-1 6.7-2 10-2.8 1.2-.3 1.8-1 2.2-2l4.7-12.7a23 23 0 0 1 2.9-5.3c2-2.7 4.5-4.3 8-4.5 1.7 0 3.5 0 5.2.2 5 .6 10 1.2 14.9 2 5.4.7 10.8 1.6 15.7 4.4.7.4 1.3.3 2 0l12.7-5.3c1.7-.7 1.8-.9 1.6-2.7v-1c-.5-4.3-.8-8.7-1.2-13a703.1 703.1 0 0 0-3-25c-.7-5.3-1.6-10.8-2.5-16.2l-2.3-11.5a195.5 195.5 0 0 0-5.4-19.6c-.1-.1-.5-.3-.7-.2-.4 0-.9.3-1.3.5a87 87 0 0 0-20.7 14A135 135 0 0 0 656 88a296.1 296.1 0 0 0-23.1 41.6c-.7 1.3-1 2.7-.9 4.2l.8 13.2zm98.8-105h-6l-2.4.2c-.5.1-.6.5-.5 1l.5 1.3c3.9 11 7.4 22.1 10 33.5 3.1 13.3 5.6 26.8 7.1 40.4l.6 5c.2 1.4.4 1.5 1.7.9l.4-.2a430.4 430.4 0 0 0 34-18.3c.2 0 .4 0 .5.2v.4l-1.8 1.2c-10.5 6.1-21.2 11.9-32.2 17.2l-1.5.7c-.5.3-.8.8-.8 1.4l.1 1c0 .6.5.8 1 .6l2-.9a315.6 315.6 0 0 0 39.7-23.4l3.2-2.5c.8-.6 1-1.4.9-2.4l-1-4.7c-2.8-12.6-6.4-25-9.6-37.4-.3-1.1-.8-1.9-1.8-2.4a95.5 95.5 0 0 0-17.7-8.3c-8.8-2.9-17.9-4.1-26.5-4.5zm-4.6 86.8c-.5-10.3-1.7-20.4-3.3-30.5a384.4 384.4 0 0 0-12-52.2c-.6-2-.8-2.1-2.7-1.6l-6.5 2.1c-1.4.5-1.5.7-1 2.1l.3 1.2 3.3 12.3c2.5 10.2 4.3 20.5 5.8 30.8a557 557 0 0 1 4.7 41.8c.1 1.3.3 1.5 1.6 1.6l5.5.6c1.3.2 2.4-.2 3.5-.7.8-.4 1.1-1 1-1.7 0-2 0-4-.2-5.8zm11.8.4-.2-1.2a325 325 0 0 0-15.2-74.6c-1-3.3-2.2-6.4-3.4-9.6-.4-1.1-.6-1.2-1.8-1.1-.5 0-1.1 0-1.7.2-3 .6-3 .2-2.1 3.3l.1.4c3.3 11.3 6.2 22.7 8.6 34.2a321 321 0 0 1 6.7 52.4c.1.7.6 1 1.2.7l6.6-3c.8-.4 1.3-1 1.1-1.7zm121.9 71.8c0-5.4-.5-10.6-1.5-15.9-.6-3-1.5-6-2.9-9a10 10 0 0 0-2.4-3.2 4.3 4.3 0 0 0-4.5-.8c-1.3.5-2.4 1.2-3.4 2-2.2 1.6-4 3.7-5.5 6-.5.6-.3 1 .5 1.1 3.6.4 6 2.6 7.9 5.4l1.7 3c2 3.8 3.3 8 4.2 12.2a125.7 125.7 0 0 1 2.8 21.5c0 .2.2.4.4.6l.2-.4.4-1.7c1.4-6.9 2-13.8 2-20.8zm-230-46.6h-.2a7489 7489 0 0 0-.9-16.4l-.2-.3-.4.1-.5.9c-4 9-8 18-11.6 27.3l-2.5 6.5c-.2.7 0 1 .7.8l2.1-.5c2-.6 3.9-1 6-1l4.5-.1c3-.4 3-.5 3-3.2v-14zm12.3 21-4 .3c-4.9.5-9.7.5-14.5.5a22 22 0 0 0-6.4.9l-8 2.3c-1.2.3-2.4.8-3.7.7-.6 0-.9.3-1 .8l-.1.2c-.6 2.5-.6 5-.2 7.4.1.7.5 1 1.2.9l1.6-.5 12.3-3.5 1.4-.4c1-.4 1.1-.6 1.1-1.6V182c0-1 0-1.1 1-1.3l6-.8c6.4-.6 12.8-.9 19.3-1.1l9.4-.5c1 0 1.9-.3 2.8-.4.2 0 .3-.2.4-.3l-.3-.2c-1-.3-2.1-.3-3.2-.2l-4.3.1c-5.4 0-10.8.6-16.2.7A96 96 0 0 0 614 182h-.7l-.1-.2v-.2c.4-.5 1-.6 1.7-.8a77.1 77.1 0 0 1 18-3.3 137 137 0 0 1 14.5-.6c2.4-.4 4.8-.3 7.2-.5 1.8 0 3.7-.3 5.5-.4l.4-.2-.4-.1h-3l-9 .4c-1.2 0-2.3.2-3.3-.6-.5-.3-1.1-.3-1.7-.3zm200.6 24.2c0-.5-.4-.7-.7-.7-1.2.1-2.1.7-3 1.4a22.2 22.2 0 0 0-4 4.5c-1.5 1.8-2.2 4-2.3 6.2a56 56 0 0 0 .2 8.2c.6 5.7.3 11.4-.9 17-.2 1.2-.6 2.3-.6 3.6 1.1-.8 1.2-2.2 1.9-3.3l.3-.9c3.6-8.4 5.8-17.3 7.3-26.4.5-3 .8-6 1.6-9l.2-.6zm1.2 8.7c-1.7-.1-1.8 0-2.2 1.6l-.2 1a108 108 0 0 1-9 29.4l-.4 1.4c0 .1 0 .3.2.4h.4l1.1-1.3 3.7-5.4c2.4-3.7 4.7-7.5 6.4-11.5.6-1.4 1-2.7 2.2-3.7.5-.4.6-1.1.9-1.7l1.6-5 .8-2.9c.2-1 0-1.3-1-1.6-1.5-.6-3-.5-4.5-.8zm-8 37.9c1.6 0 4-.5 5-1 3.7-2 7.2-4.2 10.5-7 .9-.7 1.2-1.6 1-2.7a210 210 0 0 0-2-7.2c-.2-.6-.6-.6-1 0-1.2 1.7-2.3 3.5-3.6 5.1-2.2 3-4.3 6-7 8.5-.8.7-1.5 1.4-2.4 1.7-.1 0-.4 0-.4-.2-.1 0-.1-.3 0-.4 0-.2.3-.4.5-.5 1.2-.7 2.1-1.7 3-2.8l4.7-5.8c1.6-2 3-4.2 4.4-6.3.2-.2.2-.5-.1-.6-1.6-.4-2.6 0-3.5 1.4-.6 1.1-1.2 2.3-2 3.4a773 773 0 0 1-5.6 8.4l-.8.8c-.2.2-.3.1-.4 0v-.3c0-.3.3-.7.4-1 .1-.2.4-.5.2-.7-.3-.2-.5.1-.6.3-1 1.5-2.1 3-3.6 4.2-.3.2-.3.6 0 .8.9 1 1.7 2.2 3.3 1.9zM798.7 79.5l-.2-2.9c0-1.8-.7-3.4-2-4.8-2.7-3.1-5.7-6-9-8.5l-.5-.3h-.4l-.2.4.6 2.1c3 8.9 5.6 17.8 7.5 27l.3.9.3.3.4-.2 1-1.7c1.5-3.8 2-7.9 2.2-12.3zm-6.2 16.3-.2-.8-1.2-5.9a259.3 259.3 0 0 0-9.6-30.5s-.3-.2-.4-.1l-.2.3.4 2.1 4.8 18.2 4 16.2c.1.8.4 1.7.7 2.5.1.3.5.4.8.2.7-.4 1-1 .9-2.2zm-159 71v2.2c0 1 .3 1.3 1.3 1l4-1 4.3-1.1c.8-.2 1.3-.7 1.5-1.5l.9-4c.2-1-.1-1.3-1.1-1l-8.1 2.1c-3 1-2.8.6-2.9 3.2zm88-29c0-.2-.3-.3-.5-.3l-4.8-.4c-.6 0-1.1.1-1.6.3-4.3 2-8.6 3.7-13 5.4-1.4.6-1.4.8-.3 2 1.2 1.4 1.2 1.5 3 .7l16-6.7 1.1-.5.1-.4zm115.1 115.8-.8.1c-.1.1-.3.2-.3.4l.2.3 1.8.8c4.1 1.5 7.6 4 10.5 7.3l1.4 1.4h.4l.3-.3v-.7c-.7-2.6-2-5-4-6.8a6 6 0 0 0-3.2-1.6l-6.3-.8zm6.8-48.1c-.1 1.4.1 1.7 1.2 1.8 1.8.2 3.5.1 5.2.5.5.1.8-.3.6-.8-.9-2.7-2.3-5.2-4.4-7.2-.7-.6-1.2-.5-1.5.3-.5 1.8-1 3.7-1.1 5.4zm-163.5-28.8c4.3-.3 8.9-1 13.4-1.7a18 18 0 0 0 5.3-1.6l.6-.3c.2 0 .3-.3.3-.4 0-.3-.3-.2-.5-.2-3.7.7-7.5 1.4-11.2 1.8l-8.7 1-2.6.5c-.2 0-.4.3-.3.5l.3.3c1 .4 2.1.1 3.4.1zM836 250.1l-.1 1.2c0 1.2.1 1.5 1.3 1.6l1.7.2c.8 0 1.2-.2 1.3-1l.6-3.4c.2-2-.1-2.3-2.1-1.9-2.8.6-2.6-.2-2.7 2.8v.5zm-3.8-.4c0-1-.1-2.1-.3-3.1 0-.4-.7-.6-1-.3l-.5.8a17.6 17.6 0 0 0-1 9.6c.1.2.3.4.5.4.3.1.6 0 .8-.2l.5-1.1c.5-2 1-4 1-6.2zm11.5 1v1.4l.1 1.5.5.4.6-.3.2-.7c.6-2.7.6-5.4.8-8.2v-.4c-.2-.3-.4-.4-.6-.3-.5.2-1 .6-1 1 0 2-.7 4-.6 5.6zm-10.6-.8v2.3c0 .4.3.6.7.7.3 0 .6-.1.8-.4l.2-.5c.2-1.4.3-2.8.2-4.3 0-.2 0-.5-.2-.7l-3-3h-.3l-.2.5c0 .2.2.4.4.5 1.2.8 1.4 1.9 1.4 3.2v1.7zm15.5-50.4v-.2a8.3 8.3 0 0 0-3.4-3.3 4.9 4.9 0 0 0-3.7-.2 8.3 8.3 0 0 0-3.7 2.4c-.2.2-.4.4-.1.6h.4l1.2-.8c2.5-1.4 5-1.4 7.4.4l1.5 1.2h.4zm-8.8 74.1.2 1.3.3.3c.3.2.5 0 .5-.3a56.7 56.7 0 0 0 1.9-9.1l-.4-.3c-.2 0-.4 0-.6.2-.3.3-.3.7-.4 1.1l-1.2 5.7-.3 1.1zm-1.4-3.9.3 1.6.3.3c.3 0 .5-.2.5-.4.5-2 1-4 1.3-6 0-.3 0-.6-.2-.7 0-.2-.3-.3-.6-.4l-.4.2a23.6 23.6 0 0 0-1.3 5.4zm4.9-23v-.4c-.1-.2-.2-.5-.5-.5-.2 0-.5.1-.6.3l-.4.8-.6 5-.1.7c0 .5.3.7.8.7.4 0 .7 0 .8-.6l.6-6zm-7.2 16.2 1.1 4.2.4.3.3-.3.7-2.8c.3-.8 0-1.4-.7-1.8l-1-.6c-.5-.2-.9 0-.8 1zm-4.4-3.6c0-1-.2-1.2-1-1.1-.5 0-1 .1-1.4-.1-.3-.2-.6-.2-.8.1-.2.4-.2 1 .2 1.3l1.5 1.2c.5.3 1 .2 1.3-.5l.2-1zm-192.8-88 1.4-.1 2.5-.5c.4 0 .8-.3.7-.8-.1-.3-.5-.4-.8-.3l-4 .9c-.3 0-.5.2-.8.3l-.1.2.1.2h1zm-441-21.6c0-.5-.3-.6-.6-.6-.4 0-.8.1-.9.6 0 .4.3.6.7.6.4 0 .8-.2.9-.6zm631.8 95.5c-.4.1-.4.4-.4.7l.2.6.5-.4a1 1 0 0 0 0-.6l-.3-.3z" class="st0"/>
  <path d="M851.1 278.5h.5c-.7 6.2-2.9 12-5 17.8-.9 2.3-1.8 4.5-2.3 6.9-1.8 4-4 7.7-6.7 11.1-2.2 2.8-5 5-8.3 6.3-3 1.3-6 1.8-9.2 1.8a123.5 123.5 0 0 1-35.1-5.9 14 14 0 0 1-6.3-4.7l-2.5-3.2c-.5-.6-1-.8-1.7-.6l-3 1.1c-7 3-13.7 6.3-20.4 9.9-18.4 9.7-36.5 19.8-54.7 29.8-14.1 7.7-28.3 15.4-42.2 23.4a847.6 847.6 0 0 0-36 21.2l-1 .6a4 4 0 0 0-2.3.8l-2.2 1.4c-2.9 2-6 4-8.4 6.5-.6.6-1.2 1.3-2.1 1.5 1.5-2 3.4-3.8 5.4-5.4 2.3-2 4.4-4.2 6.4-6.3.8-.8 1.3-1.8.7-2.9l1.3-1 9.5-5.8c20.2-12 40.8-23.4 61.4-34.8l38.7-21.2c11-6 22-12 33.3-17.6 5.7-2.8 11.5-5.4 17.7-7.1 6.7-2 13.4-4.6 19.8-7.4.8-.4 1-.6.6-1.5v-1.1l1-2.5a129 129 0 0 0 6.8-21.6l4.2-18.4c.6-2.5 1-5 2-7.4.2.6.7.9 1.5.8 1.6-.2 3.2-.6 4.7-1.2v.7l-4 19.8c-.6 2.3-.8 4.5-.8 6.7 0 9.5.6 18.8 2.5 28 .8 4 1.8 8 3.5 11.6.9 2 1.8 4 3.2 5.6 3.5 4 6.4 4.2 10.5 1a30.4 30.4 0 0 0 7.2-9.8c0-.3.1-.6-.1-.8l-.5.1-1.3 1.2a19.4 19.4 0 0 1-3.8 3 6.2 6.2 0 0 1-7.7-1 15 15 0 0 1-3.8-5.9 64.7 64.7 0 0 1-4-20c.2-2 .4-4-.3-6v-9.5l.4-.2c0 1 0 2.1.6 3 0 1.9 0 3.7.6 5.5.2.7.2 1.5.3 2.3 0 .5-.1 1.4.4 1.5.8.1.4-.8.6-1.2l.1-.3.4-.2s.3.1.3.3l.2.9-.3 2.9c-.2 1-.3 1.9-.2 2.8.4 3.9 1 7.7 2 11.4 0 .4.2.8.4 1.1 0 .2.2.3.4.3.3 0 .4-.2.5-.4.2-1.4.3-2.7.6-4 1.6-7.8 2.4-15.6 3.4-23.4l.5-5c0-.3.2-.4.3-.3.2 0 .4.1.4.3.3.7.1 1.5 0 2.3l-1.9 15.3a44 44 0 0 0-.4 7v9.2c0 1.3-.4 2.2-1.9 2.3-.6 0-.7.5-.5 1 1 2.3 2.4 4 4.8 4.8 1.3.6 2.4.4 3.5-.6l.3-.1.6-.4c1.8-1.3 3.1-3 4.4-4.8a4 4 0 0 0 1.9-3c.7-.5.9-1.2.9-2 0-1.5.5-2.7 1.5-3.7l.6 7.1c0 .2.2.3.3.3l.4-.1 1-1.7a1098.5 1098.5 0 0 0 4.6-11.8l1.3-6.4zm-40.6 13.6-.1-1.2c-.4-2.7-.8-3-3.6-2.7-.6 0-1 .3-1.3.9l-2 4.6c-.3.7.2 1 1 .9 1.6-.4 3.2-.8 4.9-1 1-.1 1.1-.4 1.1-1.5zm1 5.5-.4-1.6c-.3-1.1-.6-1.4-1.6-1.3-1.1 0-2.3 0-3.4.4-1.9.4-2.6.8-2 2.9l.2 1.2c.1.7.5 1 1.2.7 1.6-.5 3.3-1 5-1 .7-.1 1-.4 1-1.3zm-9-1.6-.5.3c-.3.6-.2 1.3 0 1.9l1.3 6.1c1.1 4.4 2.7 8.6 5.3 12.3.4.5.7 1.1 1.3 1.4h.7c.3 0 .2-.3 0-.5l-1-1.9a25.8 25.8 0 0 1-3.6-7 74.1 74.1 0 0 1-3.2-12.4l-.4-.2zm14.5 22.7v.2h3c.4 0 .6-.5.4-.8l-2.3-2.7c-.3-.4-.9-.5-1.3-.4-1.8 0-3.6.2-5.3.3-.4 0-.6.3-.5.7.7 1.5 1.6 2.8 3.6 2.7h2.4zm-24.3-7.4c.3 0 0 0 0 0-.9.2-2-.4-2.5.5-.3.8.8 1.5 1.1 2.3.3.5.7 1 1.2 1.1 1.8.6 3.6 1 5.4 1 .4.1.6-.2.5-.6l-1-1.9c-1.8-2.9-1-2.4-4.7-2.4zm14 6.6h.5c.3 0 .5-.1.6-.3.2-.2 0-.5 0-.7l-1.7-2.6c-.4-.6-.9-.9-1.6-.8l-2.9.3h-2.1c-.3 0-.6.4-.5.7.6 1.5 1.4 2.7 3.2 2.8 1.6.1 3 .4 4.4.6zm-8.8-11.8c.9 0 2.2-.3 3.6-.5.5 0 .8-.4.8-1l-.3-1.6c-.2-.5-.6-.8-1.2-.7l-4.3.5c-.7 0-1.3.6-1.6 1.2-.6 1 0 2 1 2.2h2zm3.1 6.7h2c2 0 2.3-.5 1.3-2.4-.3-.8-.9-1-1.7-1l-4.7.6c-1.1.1-1.3.6-.7 1.6.5.8 1.1 1.3 2.1 1.2h1.7zm9-13c-1.2 0-2.5.3-3.8.8a2 2 0 0 0-.6 3.2c.2.1.5.2.7.1l5-.8c1-.1 1.3-.5 1-1.6-.3-1.4-.6-1.7-2.4-1.7zm-1.2 7.8 4-.5c1 0 1.2-.5.9-1.3-.3-.7-.5-1.6-1.5-1.7-1.8 0-3.6.2-5.4.7-.4.1-.6.5-.6 1 0 1.5.6 2.2 2 1.9l.6-.1zm.3 4 5.5-.6c.5 0 .8-.6.6-1-.6-1.8-1.2-2-2.4-1.8l-2.4.2-2.2.2c-.7.1-1 .5-.7 1.2.1.5.3 1 .6 1.4 0 .3.4.4 1 .4zm21.3-2.7c1.5 0 3.4-.7 4.6-2v-.4l-.1-.2-1 .3c-3 1.4-5.7.7-8-1.7l-1.5-1.5-.4-.1-.1.4c.8 1.8 2 3.3 3.7 4.4.8.5 1.7.8 2.8.8zM813 312v.1l-3.1.3c-.7 0-.9.7-.6 1.3.4.6.9 1 1.6.9 1.7-.4 3.5-.4 5.3-.5.3 0 .7-.2.7-.5s0-.7-.3-1c-.2-.4-.7-.6-1.2-.6H813zm-14.8-3a1590 1590 0 0 0 4.6-.6c.4-.2.5-.6.5-1-.1-.3-.3-.6-.6-.7h-1c-1.6 0-3.3.2-5 .4l-.4.1c-.4.1-.5.7-.4 1 .2.4.5.7.9.8h1.4zm11.5-24-.4-2.9c0-.2-.3-.4-.5-.4l-.6.3a115 115 0 0 0-1.6 4.2c-.1.5.1.9.6 1 2.2.2 2.8-.3 2.5-2.3zM793 310.4l1.7-.1c.6-.1.8-.7.5-1.3-.3-.5-.7-.7-1.2-.6l-2.8.5c-.6 0-1.2 0-1.5.5-.2.4.4.7 1.4.9l1.9.1zm5-8.7c.5 0 1.2 0 1.8-.2 1.5-.3 1.8-.7 1.5-2.3l-.2-.5c-.1-.2-.4-.3-.6-.2-1.2.7-2.6 1.3-3.4 2.5v.5l.3.2h.6zm28.5-6.6v-2.4c0-.1 0-.3-.2-.4-.3 0-.4.2-.5.4-.5 1.7-.6 3.4-.9 5.2 0 .1 0 .3.2.4.1.2.3.4.5.4s.5-.1.6-.3l.3-.9v-2.4zM318.5 74.6l3-.8c.2 0 .5 0 .7.2.2.2.1.6 0 .8l-.7.8-4.6 3.8-6 4.6-.7.6c-2 2.3-4.7 3.9-7 5.8l-7 6c-1.7 1.8-3.7 3.4-5.5 5-3.1 2.8-6.6 5.2-9.6 8.2a54.7 54.7 0 0 1-7.3 6.3c-3.8 2.6-6.8 6.1-10 9.3l-4.2 3.6-8 7c-.7.7-1.5.5-1.9-.4-.3-.8-.3-1.5.1-2.1l.4-.6c.2-.7 1.4-1.2.6-1.8-.6-.5-1.3.3-1.9.8-.8.6-1.8.9-2.5 1.8l-1.4.5c-.7.1-1.1.5-1.5 1-.6.1-1.1.4-1.5 1l-1 .3-2.3.8c-.5.2-1 .2-1.3-.2-.5-.4-.4-.8-.2-1.3l1.9-4.6.5-.4c3.9-1 6.7-3.2 7.6-7.3a6 6 0 0 1 2-3.5c.6-.4 1.2-.7 1.8-.2 1.2 1 2 .4 2.9-.5.5-.7 1.3-1.2 1.6-2l.6-.5c.9-.1 1.5-.7 1.8-1.5l.9-.8 10-9.4c.8-.8 1.7-1.6 2.2-2.8h.5l.5-.4c-.2-.6-.2-1.2.5-1.4a6 6 0 0 1 3.3-.4l2.6.3c1.6 0 2.8-.7 3.2-2.1.7-2.4 2.3-3.8 4.1-5.2 2.9-2.3 5.8-4.6 9-6.4 1.7-1 3.3-1.7 5.2-2 1.2-.3 2.3-.4 3.5.2l-.5.4-.5.5-.5.4-.3.2-.6.5-.5.4-1.2 1.2c-5.3 4.4-10.7 8.7-15.8 13.3a23.9 23.9 0 0 0-6.2 5.9c-.7 0-1.1.4-1.6.9l-4.5 3.6c-2.5 2-5 4-7.1 6.4l-.7 1v.2h.2c.5 0 .9-.3 1.3-.6 2-1.7 4.2-3.4 6-5.4a32 32 0 0 1 4-3.6c.9-.7 1.8-1.5 2.4-2.6.2 0 .5 0 .7-.2 2.1-1.6 4.3-3.2 6-5.2 8.3-6.7 16.4-13.7 25-20.1 2.5-2 4.9-4.1 7.6-5.8l.4-.4.3-.2.6-.5c.2 0 .4-.2.5-.3h.1z" class="st0"/>
  <path d="m239.1 131-1.9 4.6c-.2.5-.3 1 .2 1.3.4.4.8.4 1.3.2l2.2-.8 1.2-.4c-2.3 2.1-5 3.1-8 3.6-.8.2-1.6-.2-2.3-.6-1-.5-2-.5-3-.2-2.5.8-5 1.1-7.6 1.6-2 .4-4.2 1-6.2 1.6-1.8.7-3.6 1-5.3 1.7l-7.3 2.4-2.4.7c-2.5.4-4.9 1.3-7.3 2-1.8.6-3.6 1-5.4 1.4l-6.8 1.7c-.8.2-1.5.5-2.3 0l2-.9c10.3-3.9 20.8-7 31.6-9.6 4.4-1 8.9-2.1 13.2-3.5 4.3-1.4 8.4-3.3 12.2-5.8l1.9-1zM255.5 117c-.3 1-1 1.4-1.6 2-.9 1-1.7 1.5-2.9.5-.5-.4-1.2-.1-1.7.3a6 6 0 0 0-2 3.4c-1 4.2-3.8 6.3-7.7 7.4 1.2-1 2.4-2.1 3.7-3a7 7 0 0 0 2.9-5c.1-1.1.7-2.2 1.2-3.3 1.8-4.2 3.6-8.5 6.3-12.2.7-1 1.4-2.2 2.4-3 .3.6.7.7 1.2.4l4.4-3.4c1.6-1.2 3.4-1.5 5.3-1.8l1 .3c.2.1.2.7 0 .8l-1.4.9c-.3.2-.4.5-.3.9l-2.4 1c-1.4.6-2.7 1.4-3.7 2.6-2.3 2.4-4 5.3-5.6 8.2-.7 1.4-.5 1.9 1 3zM862.8 231.7c-1 .8-1.4 2-2 3.2-.3.8-.7 1.6-1.2 2.3-.5.5-1 .5-1.5.1a123 123 0 0 1-3.3-2.8c-.4-.4-.5-1-.4-1.5 0-1.1.2-2.3-.4-3.3V227c.1-.9.6-1.4 1.4-1.8 1-.6 1.1-.6 2 .3.3.4.7.6 1.2.6 2 .2 3.9 1 5 2.8 0 1-.4 2-.8 2.9zM602.2 404.2c.9-.2 1.5-.8 2.1-1.5 2.5-2.5 5.5-4.4 8.4-6.4l2.2-1.4c.7-.5 1.4-.9 2.2-.8-.3.6-.9.8-1.4 1.2l-4.6 3.2a58 58 0 0 0-8.7 7.2 84.2 84.2 0 0 1-7.3 6.3c-2 1.6-4.2 2.7-6.8 2.8-1.4.1-2.2.8-2.5 2.2l-1 3.2-.1-1.5.6-2.6a6 6 0 0 1 .9-2.2c3.5 0 6.5-1 9.1-3.3l4.8-4c.7-.8 1.5-1.5 2-2.4zM844.3 303.2c.5-2.4 1.4-4.6 2.3-6.9a77.6 77.6 0 0 0 5-17.8 88 88 0 0 0 2.9-13c.2-1.4.3-3 1-4.4.2 2.6-.2 5-.7 7.5a169 169 0 0 1-4.1 18.3c-1.3 4.4-2.9 8.7-4.6 13-.5 1.1-.8 2.4-1.8 3.3zM152.1 458.4c.7-.1 1.4 0 2.1.2l12.8 2.7c3.5.8 7 1.9 10.4 3.3 1.2.5 2.7.5 3.8 1.4-1.4.1-2.7-.3-4-.6-7.7-1.8-15.3-3.5-22.6-6l-2.5-1zM41 416.8c1.1 0 2 .7 3 1.3l8.4 4.6c1.3.7 2.6 1.6 3.6 2.7-1.6-.3-3-1-4.4-1.7-3-1.7-6-3.3-8.7-5.2-.7-.5-1.5-1-2-1.8zM297 81.7c.3.6 0 1-.4 1.3l-7.6 6.2-6.2 4.9c-.4.2-.7.4-1 0l5.8-5 9.4-7.4z" class="st0"/>
  <path d="M855.5 261.1c-.1-1-.1-2 .4-2.9 0 1 0 2-.4 3zM270 97.4c-.6.3-1.3.4-2 .3.6-.4 1.3-.4 2-.3zM264.8 98.4c-.4 0-.7.2-1 .3.3-.2.6-.4 1-.3zM266.7 97.9c-.4 0-.7.2-1.1.3.3-.3.7-.4 1-.3zM256.6 103.6l-.5.5.4-.5zM257.5 102.6l-.5.5.5-.5zM258 102.1l-.5.5.5-.5zM258.5 101.6l-.5.5.5-.5zM259 101.2l-.5.4.5-.4zM259.4 100.9l-.3.3c0-.2.1-.3.3-.3zM260.4 100.3l-.6.3.6-.3zM261.4 99.7l-.7.5.7-.5zM263.3 98.8l-.7.4.7-.4zM277.3 97.3l-.2.1h-.2.4zM278.3 96.8l-.7.5.7-.5zM278.8 96.4l-.5.4.5-.4zM279.2 96l-.4.3c.2 0 .3-.2.4-.3zM280.7 94.9l-.5.4.5-.4zM281.2 94.4l-.5.5.5-.5zM257 103l-.4.6.4-.5zM559.6 377.2a35 35 0 0 1-6.4 5c-1.6 1.2-3.4 2.2-5.1 3.2-.8.5-1.3 1-1 2 .5 2.1-.4 3.8-1.6 5.5-3 3.7-2.7 4-1.3 8.2 2.3 7 6.9 12.4 13.5 16 3.7 2 7.1 4.4 10.2 7.3l.5.5c0 .5.2 1-.1 1.6l-.6-.5-.5-.5c-4-3.2-8.2-6-12.5-8.7a25.1 25.1 0 0 1-9.8-10.3c-.2-.2-.5-.1-.6.2l-.2.9c-.2.2-.3.5-.5.5-.5 0-.4-.4-.4-.6v-2l-.1-1.7c0-1.2-.3-2.3-.8-3.4l-.4-.4-.2.4-.4 2.1c-.3 2.6-1 5-2.3 7.4-.5 1-1.2 1.8-2.2 2.5-1.4 1-2.7.8-3.8-.6-.4-.5-.7-1-.9-1.7-.4-1-.6-2.1-.6-3.3 0-2 0-4 .5-6 .1-.6-.2-1-.8-.7-1 .3-1.9.3-2.8.3l-3.9-.1c-1.6 0-1.8.2-2.1 1.7a30 30 0 0 0-.5 7c-.7.4-1-.2-1.3-.5v-4.2c.5-1 .5-2 .9-3 .6-1.8 1.3-2.2 3.2-2.3h4.3c.4 0 .7-.2.7-.6 0-.2-.3-.3-.5-.5l-4.9-5.6-5.8-6.1c0-.2-.2-.3-.3-.4l-.1-.1-.4-.4h-.1c.4-.2.8-.1 1.1.1.5.5 1 1 1.5 1.3.6.6 1.2 1.3 2 1.6 2.7 2.6 5.3 5.1 7.5 8l.5.6c.5.6.8.5 1 0l.3-.7c.6-1.7.5-1.8-1-2.8l-5.2-3.7-.6-.4-.8-.7c-.2 0-.4-.2-.5-.3l-.6-.5c-.5-1-1.5-1.7-2.5-2.5-.6-.5-1-1.1-.8-2l.3.1c1 .8 1 .5 1.4-.2l2.1-4c.7-1.3 1.1-2.6 1.4-4v-1c0-.2-.2-.4-.5-.3-.6.1-1.1.5-1.6 1l-2.6 2.7-.5-.5c1-1.6 2.4-3 4-4 .4-.1.8-.3 1-.6.5-.3.3-1 0-1.2a3.8 3.8 0 0 0-3.5 0c-.2-.5 0-1 .5-1.4l2.1.3c.5 0 .8-.3.8-.7 0-.6-.1-1.1-.3-1.7l-1.7-6.5v-1c.1-.4.5-.6 1-.5 1 3.3 2 6.6 2.6 10 .6 2.9.5 5.7-.6 8.5a35 35 0 0 1-2.6 5.2c-1 1.6-1.3 1.6.6 3l.5.4c1.2.9 2.2 2 3.6 2.5 1-1.2 1.2-2.7 1.7-4.2 1.5-4.6 1.7-9.2.6-14-1-4.3-2.5-8.4-3.9-12.6-.3-.9-.6-1.7-.7-2.6v-.9c-.1-.5.1-.9.6-1.1l.4 1 4 11.8c.5 1.7.9 3.4 1.2 5.2.9 4 .8 8.1-.3 12.2l-1.2 3.6c-.2 1-1 1.8-.7 2.7.4 1 1.6 1.4 2.4 2l.2.1c.3.2.6.1.8-.2l.2-.7a69.6 69.6 0 0 0 4.7-18.9 5 5 0 0 0 .4-2.3v-8.9c0-.8 0-1.6-.4-2.3l-.1-2.3.1-1.2c0-.2.2-.5.4-.6.2 0 .4.2.4.4.3 1.5.5 2.9.5 4.3v6l.2 2.7c0 3-.1 6.1-.6 9.2-.4 2.2-.5 4.4-.2 6.7.4 4-.1 3.9 3.6 1.7 2.7-1.5 5.1-3.4 7.6-5.2 1.9-1.5 3.6-3.2 5-5.2l5.4-7.7 1.8-2.5.4-.7c0-.1 0-.2.2-.3 0-.2.2-.3.3-.5l.5-.7.1-.3.4-.6.1-.3.4-.5.4-.7s0-.2.2-.3l.3-.5c.3-.2.5-.5.6-.9l.4-.6c0-.2 0-.3.2-.4l.3-.5.5-.9.4-.7s0-.2.2-.3l.3-.5.2-.5.4-.4.4-.7.1-.3.4-.6.1-.4.4-.5c.4.6.4 1.3.5 2a11 11 0 0 0-3 4.8c0 .2-.2.4-.4.6l-.1.4-.4.5-.2.5-.3.4c-1.1 1.4-2.4 2.6-2.8 4.4l-.5.6c-.8 1.9-2 3.4-3.2 5.1a47 47 0 0 1-8.4 10.2c-.2.1-.6.3-.3.7l.6-.2 1.6-1.1c2.4-1.5 4.4-3.5 6.6-5.2l1.2.6-.6.5-.5.4zM533 405.3c.1 1.2.1 2.3.3 3.4.1.9.3 1.7 1 2.5.4.6 1 .7 1.6.2a7 7 0 0 0 2.3-2.7c1.4-3.1 2.1-6.4 2.1-9.9a9 9 0 0 0-.7-3.5 7 7 0 0 0-.9-1.4c-.2-.4-.9-.5-1.3-.2-.7.6-1.3 1.3-1.8 2.2-1.7 3-2.5 6-2.6 9.4zm10-13.2-.5-3.5c0-.6-.5-.8-1-.5l-2.7 1.2c-.7.3-1.3 0-1.5-.8l-.4-2.6-.1-.4c-.1.1-.3.2-.3.4l-2 5.9c-.7 1.5-1.2 3-1.5 4.5 0 .2-.3.5 0 .6.2 0 .3-.2.4-.3l1.6-2.5a5 5 0 0 1 2.1-1.8c1-.5 1.9-.3 2.7.5.5.5.8 1.3 1.2 2 .3.4.3 1.3 1 1.1.3 0 .5-.7.6-1.1.4-.9.4-1.8.4-2.7zm2.9-3.4c0-.5 0-1.1-.3-1.7-.2-.4-.4-.7-1-.7-.4 0-.8.5-.8 1l.5 3.5c0 .3.2.5.4.5s.4-.3.6-.4c.4-.6.5-1.3.5-2.2zM86 405.6c.7 0 1.3.3 2 .5s.8 0 .8-1c1.2.2 2.1.7 3.2 1.2l9 3.9c.8.3 1.3 0 1.3-.9.2-1.3 0-1.8-1.2-2.2l-5-2c-.8-.4-1.8-.6-2.5-1.3.5-.6.6-1 .2-1.1l-3-1.5c-.3-.1-.4-.4-.2-.6l.4-.1c.6 0 1.1.2 1.7.4l6.1 2a5 5 0 0 1 2.5 1.4c.4.4.8.3 1.3.2 1-.2 1.3 0 1.3.8 0 1.2.7 2 1.4 2.7.6.7.7 1.4 0 2-.2.3-.2.7 0 1-.2.6 0 1 .6 1.1l3.6 1.3L122 418c2.3.9 3.4 1.3 3-2.1.4.3.4.8.5 1.3.4 1.3.6 1.5 2 1.6h4.8c-.8.4-1.6.4-2.4.5h-1.7c-.2 0-.5.2-.5.4-.2.4.2.5.5.6l1.8.6 3.3 1c10.4 3.3 21 6.2 31.6 8.8 4.2 1 8.5 1.8 12.8 2.7 1.2.2 1.6 0 2-1.1l.6-2c.3-1.1 1-1.7 2.1-1.9 1.7-.3 3.3-.6 4.8-1.4h.5l.3.3c0 .2 0 .4-.2.4l-1.8.5-.6.4-.2.4s.1.3.3.3l3.3.2-1.4.4c-.2 0-.2.3 0 .3.1.2.4.2.6.3l15 2.7 3 .7c.4.1.9.4 1.3.7.3.2.5.6.3 1-.1.4-.4.5-.7.5-1 .2-2 0-3-.2-2.7-.6-5.4-1-8.2-1.8a36.2 36.2 0 0 0-12.9-.1l-.2.4.2.3c1 .5 2 .7 3 .9 7.1 1.5 14.2 3 21.3 4.1l6.2 1.2 1.6.6c-1.6.5-1.6.5-1.6 1.7l.1 2.1c-.3 0-.6-.2-.7-.6-.3-1.2-1.2-1.6-2.3-1.8l-3.7-.8-14.9-3c-1.7-.4-3.3-.5-5-.3l-4.1.3c-1 0-1.8-.3-2.1-1.2-.5-1.2-1.4-1.5-2.5-1.7-2.5-.4-5-1.1-7.4-1.9-2.2-.7-4.3-1.3-6.6-1.6a15.6 15.6 0 0 0-8.7-1.1l-2.2.2c-1.5 0-1.6 0-2.1-1.6-.2-.7-.6-1.2-1.2-1.4l-1.2-.3c-4.4-1-8.7-2.3-13-3.7l-1.8-.6a8.2 8.2 0 0 0-3.8-.3l-2.7.1c-1 0-1.7-.3-1.9-1.4-.1-1.2-1-1.6-2-1.8a220.8 220.8 0 0 1-12.4-4 11 11 0 0 0-4.4-.8h-2.1c-1 0-1.6-.3-1.8-1.3-.3-1.1-1.2-1.7-2.1-2.2l-1.3-.5a71.3 71.3 0 0 1-9.3-4c-1.4-.8-3-1.2-4.3-2.3zM603.7 372.9l-.2 1.4c-.4.6-.4 1.3-.3 2-.1 2.8-.8 5.4-1.2 8.1l-.3 1.9c0 .3.4.6.7.4 1.8-1.1 3.3-2.5 3.7-4.8.4-.4.3-1.2.9-1.3.8 0 1 .7 1.3 1.3.3.6.4 1.4.6 2l-.3.6a7.4 7.4 0 0 0-2.2 4.6c-.2 1.4-.3 2.7-.8 4-.4.6-.7 1.2-.5 2 .2.4.5.5 1 .3h-.2c.2 0 .4-.2.6-.4l.5-.3.3-.2.7-.4.4-.4.4-.2.6-.4.5-.4.3-.1.7-.5.4-.3.4-.2.6-.4.5-.4.3-.2.7-.3.4-.4.4-.2c.6 1.1.1 2-.6 2.8-2 2.2-4.1 4.4-6.5 6.3-2 1.7-3.8 3.4-5.3 5.4-.9.2-1.5.7-2 1.3a16 16 0 0 1-3.4 2.6c0-2.3-1.3-4.1-2-6.2-.1-.6-.7-1-1.5-1-.7.1-1.2.5-1.5 1.1l-.6 1.8c-.3 1-.9 2-1.7 2.6-1.1 1-2.4.9-3.4-.2-.5-.5-.9-1.2-1.3-1.8l-.8-1.4c-.5-.6-1.3-.6-1.7 0l-1.2 2.3c-.5.9-.8 1.8-1.7 2.3-.1-1.5.3-3 .6-4.4.4-.6.4-1.3.3-2l.1-.9c.6-1 .5-2 .4-3l.1-1.3c.6-1.1.5-2.4.4-3.6v-.8c.3-.5.5-1 .5-1.6l.5-8.1.7-6.5.3-.3.3.3.1 1.9.1 4.3a4 4 0 0 1 0 1.8c-.5.7-.5 1.5-.5 2.3 0 2.4 0 4.8-.4 7.2-.2 1.1-.1 2.3-.1 3.4 0 .9.2 1 1.1.8.9-.3 1.4-.1 2 .5l1.4 1.6c.6.8 1.4 1 2.3.7l2.1-.5c1.1-.2 1.7-.8 1.7-2 .1-1.7.8-3.2 1.3-4.8 1.4-4.7 2.3-9.5 3.1-14.3l.5-2.6c.4-.7.5-1.4.4-2.1l.1-1.3c.5-.8.5-1.7.4-2.5v-.9c.7.3 1 .8 1.4 1.3.3.5.7 1 1.4.9 1.4-.2 1.5.8 1.7 1.8zm-1.6 25.5.5-.5.5-.5c.3-.3.4-.6.5-1v-.4c.3-.5.5-1 .4-1.6l.4-3 .2-2c0-.3-.3-.6-.6-.5-1.4.7-3 1.1-3.8 2.7-.4.6-.5 1.3-.4 2l-.8 1.5c-.9 2.2-1 4.7-2.2 6.8l.1.4c.2.1.5.3.6.2 1.5-1.2 3.2-2 4.1-3.7l.5-.4zM576.5 261.1l-5-.6c-3.6-.6-7.2-.5-10.8-.3-2.8.2-5.4 1-7.9 2.3-2.4 1.3-4.9 2.5-7.2 4-6.5 4-12 9-17.1 14.7-4.1 4.5-7.7 9.5-11.4 14.4-1.8 2.4-3.4 5-5 7.6-.8 1.3-.6 1.8 1 2.2l3.5.7c-.6.5-1.3.5-2 .5-1 .2-1 .3-.4 1.3h-2.9c-1.2 0-2.1.5-2.8 1.6l-3.1 5.4c-2 3.7-4.2 7.3-6.3 10.9 0 .2-.3.4-.4.5 0-.7.3-1.4.6-2l2-4.7c.2-.6 0-1-.6-1.3.7-2.1 1.9-4 2.9-5.8l1.9-3.7c.5-1 .2-1.6-1-1.9-2.1-.4-4.2-.8-6.4-.8l-11.5-.5c.6-.3 1.2-.4 1.9-.4h5.5l2.2-.2.2-.3c0-.1 0-.3-.2-.3l-.7-.2-7-.5c.6-.4 1.2-.5 1.9-.5 5.2 0 10.4-.1 15.6.8 2 .3 2.3.1 3.2-1.4 2.2-4.2 5-8 7.6-11.8l3.3-4.4c2-2.6 4.1-5 6.2-7.4a85 85 0 0 1 11.3-10.8c3-2.3 6.1-4.2 9.3-6.2 2.8-1.7 6-2.7 9.3-2.8l-.4.3c-.7.4-1.7.4-2.3 1.2 1 .6 1.8-.2 2.7-.2l1.2-.3c3.7-1.1 7.4-1.2 11.2-1 2.8.2 5.5.6 8 2z" class="st0"/>
  <path d="M532.5 482c0-2.6.4-5 .7-7.5.6-6 1-12 1.3-18.1.3-8.4.5-16.7 1-25.1.1-4.4.4-8.8 1.3-13.2l.8-2.5c.2-.4.8-.8.2-1.1-.4-.3-.6.4-.7.7l-1.6 3.3c-.6 1.3-1.2 2.6-2.7 3.2-.6.3-.6.9-.7 1.5l-.8 7.4c-.5 5.2-1.6 10.3-2.7 15.5a18 18 0 0 0-.4 4c.2 6.1.1 12.3-.5 18.4-.7-.4-.9-1.1-.9-1.9l-.1-3 .1-5.8v-2.2c0-.1 0-.3-.2-.4-.2 0-.3 0-.4.3l-.5 1.6c-1.6 5.1-3.3 10.3-5.7 15.2-.5-.1-.8-.5-1-1l3.8-9.9a145 145 0 0 0 8-42.8c0-1.2 0-2.4-.7-3.5-.9-1.6-2.1-1.9-3.5-.6l-1.7 2c-1 1-1.9 2.2-3 3.1l-.5.5-.5.5-.9-.9.5-.5 3.8-4.3c1.8-2 2.1-1.9-.8-2.9l-1-.2c0-.4 0-.7.5-.7l1.4-.2c1.4.5 2.9 1 4.3 1.3 1.4.4 2.3 1.3 3 2.6.4 1 .5 2.2.6 3.3 0 .6-.3 1.6.6 1.8.6.1.8-.9 1-1.4l1.3-2.6 1.3-2.3c.7-1 1.7-1.1 2.6-.3.5.5.9 1.1 1.6 1.5h2.1v-.1c.4.7 1 1 2 1h-.1c.5.7 1.1 1 2 1l-.1 1.1-.5-.2a17.5 17.5 0 0 0-1-.4l-.6-.4-.3-.1-.7-.3-.3-.1c-.3-.3-.6-.5-1-.5h-.5c-.2-.1-.4-.3-.5 0l.2.4a78.9 78.9 0 0 1 5.7 8.7 118.3 118.3 0 0 1 5.8 11.6c.2 1.2.7 2.4 1.4 3.4 0 .4.2.8.4 1l.1.4c0 .4.2.8.4 1 .1.2.2.3.1.4l.3.7.2.4c.4 1.3.7 2.6 0 4 0-.5-.2-.8-.5-1v-.5c0-.4-.2-.7-.4-1a1 1 0 0 1-.1-.5c0-.4-.2-.7-.4-1l-.1-.4c0-.4-.2-.7-.4-1l-.2-.4c0-.4-.1-.8-.4-1v-.4l-.4-.6-.6-1.4c-3-7-6.7-13.9-11-20.3l-1.2-1.5c-.3-.3-.5-.7-1-.6-.4 0-.6.5-.7.9-.3 1.8-.8 3.7-1 5.6-.6 4.6-.8 9.2-1 13.8l-.9 26.8c-.2 5.9-.7 11.8-1.6 17.7-.5 1-.5 2-.4 3-.7-.5-.8-1.3-1-2zM295 479.7h-1.2c-.8-.6-1.6-.6-2.5-.6l-2-.2c-.2 0-.4-.2-.4-.3 0-.3.3-.4.5-.4l1.1-.1 2.3.1c1 .5 2 .5 3.1.3l1.8.2c1.2.6 2.6.4 4 .3 2.1 0 4.3.3 6.4.5 6.4.4 12.7 1 19 1.3 15.8.8 31.6 1 47.4.8 8-.1 16-.8 23.9-1.2a420 420 0 0 0 57.3-7.8c.2 0 .5.2.6.4.2.3 0 .6-.3.8l-1.9.5-6.6 1.4a399 399 0 0 1-61.6 7c-2.6 0-5.1.2-7.7.4-5.7.3-11.4.2-17.1.1l-11.2-.2c-9.9 0-19.7-.6-29.6-1a444 444 0 0 1-22.2-2c-1-.5-2-.5-3-.3zM578.4 413.3l1-5.7c.9-.6 1.2-1.5 1.7-2.3l1.3-2.3c.4-.6 1.2-.6 1.6 0l.9 1.4c.4.6.7 1.3 1.2 1.8 1 1 2.3 1.1 3.4.2a5 5 0 0 0 1.7-2.6l.7-1.8c.2-.6.8-1 1.5-1s1.3.3 1.5 1c.6 2 2 3.8 2 6l-1.7 1.4c-2.2 1.7-4.3 3.6-7.4 3.6-.6 0-1.2.3-1.6.8-.5.7-.7 1.5-.9 2.3l-.6 2.6-.4.2c-2.2 1-3.9.5-5-1.6-.4-.7-.7-1.5-.7-2.3l-.2-1.7zM339.2 434c-5.4.1-10.8.2-16.2.1-9 0-17.9-.2-26.8-.5-6.6-.3-13.3-.8-20-1.3l-15.1-1-4-.5c.2-.6.7-.9 1.3-.9l1.6-.2c3.2 0 6.3.5 9.4.7l17.9 1.2c14.4.9 29 1.2 43.4 1.1h8c2.3.2 4.6 0 7 0l1.8.1.2.4-.2.3-2.4.2c-2 .2-4-.1-6 .4z" class="st0"/>
  <path d="m537.8 433.6.1-3c.3-3.1 1-6.3 1-9.5 0-.2.1-.3.3-.3h.4l1.1 1.3A122 122 0 0 1 555 451c.5 1.8 1.1 3.5 1.3 5.4-.1.6-.3 1.2-1 1.4v-.3c0-.4 0-.8-.3-1.1a108 108 0 0 0-14.2-31.5c-.1-.2-.4-.2-.6 0l-.2.7-1 8.7c0 .8 0 1.5.6 2.2 1.8 2.5 3 5.4 4 8.2 1 2.6 2 5 2.6 7.8 0 .2 0 .4-.2.6-.1.4-.4.5-.6.1l-.6-1.2-3-8.5c-.1-.3-.2-.3-.5-.2l-.4.5c-.3-.4-.5-1-.6-1.5.8-1.5-.2-2.4-1-3.4l-.3.1c0 .8 0 1.6-.2 2.4a9 9 0 0 0-.3 4.7c.4 2.3.4 4.5.4 6.8 0 1 0 2 .5 3l.1 4.7c-.2.6 0 1.3-.4 1.8-1-.4-.5-1.2-.6-1.8v-3.8c0-.8 0-1.6-.5-2.3l-.1-3.8.1-2.2v-12.8l-.1-2.1zM522.5 411.8c-1.1 0-2.1-.5-3.2-.8l-1.2-.3c-.8-.2-1.2.1-1.3.9v1l-.4 1c-1.2 2.2-2.7 4.1-5.2 5 .2-.8.9-1.3 1.4-2l2.7-3.2c.5-.5.8-1 .7-1.8 0-.2 0-.4-.4-.4l-.4.3c-.6-1.9-2.1-3-3.5-4.1-.7-.7-1.3-.4-1.9.2.3-3 .2-6 1.5-8.7v-.5c2 .3 3.8.1 5.8 0h9.6c.9 0 1.8.1 2.5-.6l.5.6c0 .4-.3.5-.6.5h-4.4c-1.9.1-2.5.6-3.2 2.4-.4 1-.4 2-1 3v-1.7c-.2-.8-.5-1.2-1.3-1.3H516c-.5.2-1 .4-1 1a7.8 7.8 0 0 0 0 3.7c.1.4.4.8.7 1 1.2.8 2.5 1.4 4 1.8.3.1.7 0 1-.3.4.2.6.9 1.3.4.2.7.7 1.2 1.4 1.5l1 .5-1.3.1c-.5.1-.6.4-.5.8zM515.3 479l2.3 3.1c2.2 3 4.8 5.6 8.2 7.2.2 0 .4.2.6.4-1 0-2 .5-2.5 1.4-1.6-.4-2.9-1.4-4.2-2.2-.2-.2-.5-.3-.7 0 0 0 0 .3.2.4 3 3 6.5 5.2 11 5.3h1c.4.6 1 1 1.8 1h2c-4.2 1.4-8.3 1-12.2-1.2a32.2 32.2 0 0 1-12-14.9c-.3-.4-.3-.9-.5-1.3 1.6.5 2.4 1.9 3.3 3 .3.4.8.3 1-.2 0-.3 0-.6.2-.9l.5-1zM473.6 451.7v7.5c-.4 1.3-1.2 2.5-1.4 3.9-.1 1 .2 1.7 1 2.2l-.4.4c-.7 0-1.4 0-2 .3-.5.2-1 .4-1.4.4-1 0-1.7-.4-2-1.4l-.1-1.4c.8-1.2 1-2.6 1-4 0-1.3 0-2.5.2-3.6a18.5 18.5 0 0 0 .2-5c.1-.1.3-.3.3-.5.3-1.3.6-2.5 1.3-3.6l.4-1.6c2 .1 2.4 1.7 2.8 3.3.2 1 .1 2 .1 3zM511.7 458.2c.1-1.1.6-2.1 1-3.2a90 90 0 0 0 5-22l.1-.2-.1-.6c-.2-.1-.4.1-.6.3l-3.4 5.5-4 6.3-.4.5c-.6-.8 0-1.6 0-2.4.4-1 1-1.8 1.5-2.7l2.5-4 1.7-2.3 7.1-10.8 2.7-3.7c.4-.4.8-.7 1.5-.7.3.7.4 1.2-.3 1.8-.5.4-1 1-1.3 1.6v.5l.4.2c1-.1 2-.6 2.8-1.3.6-.6 1-1.3.8-2.2.4-.6.4-1.4.5-2 0-.2.2-.3.3-.4l.2.3v1.4c0 3.3-2.2 4.7-4.6 4.9-1.2 0-2 .5-2.5 1.5l-2.7 4c-.5.7-.8 1.5-.8 2.5a73.2 73.2 0 0 1-6.5 28.3c-.4-.2-.7-.6-.9-1zM553.8 401.7v3.8c.3.8 1 1 1.7 1.1l8.6 1.5 5.2.9c1 .2 2 .3 2.9 1-.7.1-1.3.2-1.8.7-.7.8-1.6.9-2.6.9l-7-.2c-1.3 0-2.6-.3-3.9-.5a8.6 8.6 0 0 1-4.7-2.8l-2.7-3.4c.2-.2.4-.5.3-.8l-.6-1c-.8-1.7-.8-1.7.7-2.7.6-.4 1.3-1.1 2.1-.8.9.3.4 1.4.5 2l.1 1.3c0 .1.1.3.3.3l.3-.2.6-1zM477 425v1c-.6.9-.6 2-.5 3v.3c-.6 1-.6 2-.5 3 .2 3-.8 5.9-1.6 8.7-.3 1-1 1.6-1.7 2.2-.4.4-1 .3-1.3 0-.6-.5-.9-1.2-1-1.9l-.2-1.9c.3-3.7.8-7.4 1.5-11l1-2.2c.4-.9 1-1.6 2.2-2 .9-.2 1.6 0 2.1.9zM252.2 442.8a32 32 0 0 1-6.4-.2c-2.4-.3-4.7-.3-7-.6-3.6-.6-7.3-1.3-10.9-2.1-.3 0-.5-.3-.8-.4 1.3-.2 2.7 0 4 .2 1 .2 2 .3 3.1.1l.4-.2-.2-.4-1.5-.7h2.1l9.1 1.2c2.5.3 2.5.3 2.8-2.2l.5.9c.1.3.4.6.6.1.3-1 1-1.3 2-1.1l6.5.7 2 .5.2.2s0 .3-.2.3c-.3.2-.7.3-1.1.3-1.5.3-3 .4-4.6.6l-1.6.3c-.2 0-.4.2-.4.3 0 .3.3.4.5.4h4.8v.9H253c-.6 0-.8.4-.7 1zM562 321.5c-1.1-.2-2.3-.6-3.5-.7-2.6-.4-5.2 0-7.7 1l-3.8 1.6.2-.7c.9-2.2.9-2.2-1.5-2-.2 0-.4 0-.4-.2 0 0 0-.3.2-.4a9.6 9.6 0 0 1 4-1.9c.5.3 1.1.4 1.7.3 2.4-.6 4.9-.4 7.4-.3 1.6 0 3.1.4 4.5 1.4l-1 2zM270.6 449.6h1.6l10.5.8h1c.3 0 .5-.3.3-.6l-.8-1.2c1 .3 1.8 1 2.2 1.7a9.5 9.5 0 0 0 3 3.2L272 452c-2-.3-3.9-.2-5.8-.4.9-.5 1.8-.4 2.8-.4.9-.1 1.4-.5 1.6-1.5zM140.6 418.7c2.7.4 5.2 1.3 7.8 2.1l.8.4c.4.1.9-.2 1-.6v-2.4c1.2 0 2.4-.2 3.4.4l-.9.1c-.9.2-1.2.6-1.2 1.7 0 .6.2.9 1.1 1.1h.5c-.5 1 0 1.7.7 2.3.5.4.3 1-.3 1l-.5.1c-1 0-1.3.6-1.3 1.5-.6 0-.9-.5-.9-1 .1-2-1.2-2.4-2.8-2.8l-6.7-1.7c-.6-.1-1.2-.3-1.7-.7.6-.3.9-.8 1-1.5zM34.3 385.2l2 2.4 2.9 3c.6.4 1.2.2 1.4-.6l.3-2.1c0-.8.1-1.5.5-2.1a58 58 0 0 0 .5 2.2c.3 0 .4-.2.4-.5.1-.7 0-1.5.6-2.2l-.1 3.4c0 1.7-.1 3.4.4 5v1c0 .3-.2.6-.6.5-.6-.2-1.2-.4-1.7-.8-2-1.4-4-3-5.6-4.9l-.5-.8c.5-.3.7-.7.5-1.1-.4-.8-1-1.5-1-2.4zM549 326.4c2.7-2 5.7-3.1 9-4 .5-.2.8.1.8.7l-.2 4.1c0 1.2 0 2.4.5 3.5-1.8-.7-1.9-1-1.7-2.5 0-.7.5-1.4-.2-2-.6.4-.3 1.2-.6 1.7l-.3.4c0-2.6.2-3.5-3.1-2l-2.7 1.2c-.8.4-1.6.8-2.5.8l1.1-.9c.6-.4.4-.8-.1-1zM217.4 439.5l-1 .5h-3c-1.4 0-2-.7-1.6-2l.7-1.9c.3-1 1-1.5 2-1.7l2.7-.3 1.9-.5c.3-.2.3-.5.2-.9h.7c.5 0 1 0 1.2.5.2.4-.2.8-1.1 1l-3.5.6c-.5 0-1 .5-.8 1 .3 1.3.2 2.9 1.6 3.7zM453.7 490.2h.8c.7.2 1 .7.7 1.3-.8 1.7-1.8 2.2-3.6 1.8l-4.2-1.2-.2-.4.3-.3c2-.3 4-1.2 6.2-1.2zM535.4 302.2l-2.1-1.4c-2-1-3.9-1.5-5.7.2l-.4.2c1-1.8 2.1-3.3 3.7-4.5l1.6-1.7c.8.8 2 1 3 1.3 1.6.7 3.2 1.2 4.3 2.5l-.5.5c-1.2-.7-2.4-1.6-3.8-2-1-.3-2.1-.4-3.3-.3-.5 0-1 .3-1.4.7-.3.3-.3.9 0 1 .5.4 1 .6 1.5.8 1.3.7 2.7 1 3.7 2.2l-.6.5zM22.6 335.5h1.2c1 0 1.6-.4 1.8-1.4l.3.3c1 .7 1.5.6 2-.5v-.7c.7.9.8 1.9.3 2.9-.6 1.2-1.7 2-3 2.3l-3.1.5c.5-1 1.3-2.1.5-3.4zM539.8 469.4c.9 1.9.9 1.9 2.3.5l.9-.8h.2c.2 0 .2.2.1.3l-.7 1.5c-.1.4 0 .6.5.6h.7c0 .2 0 .4-.2.6l-2 2.4c-1 .9-1.4 2-1.3 3.2v1l-.3-.7c-.2-2.9-.3-5.7-.2-8.6zM520.5 300.8c1-2.4 2.6-4.6 4.3-6.6 2.1-2.2 4.4-4.2 6.6-6.4l.8-.5c-.3.4-.4.8-.7 1l-5.7 6.4c-1 1-1.8 2-2.6 3.1a9 9 0 0 1-2.7 3zM74.7 263.2h-7.5l-1.5-.3c-.4 0-.6-.4-.6-.8h7.6a7 7 0 0 1 1.6.1c.5.2.6.6.4 1zM251.7 450.6c0-.6 0-1.1-.6-1.5a5 5 0 0 1-.8-.8c-.3-.5 0-1.2.5-1.4.7-.3 1.5-.3 2.3-.2 0 .5 0 1.1-.2 1.6a8 8 0 0 0-.6 3.7c-.5-.4-.5-1-.6-1.4z" class="st0"/>
  <path d="M527.2 301.2c.3 1 1.1 1.1 1.9 1.4 1.2.5 2.6.9 3.5 2l-.5.5-3-1.5c-.8-.5-1.8-.7-2.8-.9.2-.5.4-1.1.9-1.5zM109.2 406.6h-1.4c-.6 0-.7.5-.6 1h-.4c-.4-.2-.7-.4-.6-.7 0-.2.3-.5.4-.5.9-.4 1.8-.3 2.6.2zM179.2 440.4c1.4 0 2.7.4 3.9 1-1.4.1-2.7-.1-3.9-1zM509.8 407.6c.1 1.1.2 2.3-.4 3.4-.1-1.2-.2-2.4.4-3.4zM158 426c-1 .5-2 .4-3 .4 1-.6 2-.6 3-.4zM41.5 385.4c0-1-.1-2 .4-3 .1 1 .2 2-.4 3zM160.4 426H158c.8-.6 1.6-.6 2.4 0zM138.6 418.2c.7 0 1.4 0 2 .5-.8 0-1.4 0-2-.5zM43.3 383c.1.6 0 1.3-.4 1.9 0-.7 0-1.4.4-2zM93.6 403.8c-.5 0-1-.2-1.4-.6.6 0 1 .2 1.4.6zM139.6 420.1c-.6 0-1 0-1.5-.4.6 0 1 0 1.5.4zM137.2 417.7c.5 0 1 .1 1.4.5-.5 0-1-.1-1.4-.5zM135.7 417.3c.6 0 1 0 1.5.4a2 2 0 0 1-1.5-.4zM43.9 381l-.5 1.5c0-.6 0-1.1.5-1.5zM177.3 440c.5 0 1 0 1.5.4-.6 0-1 0-1.5-.4zM42 382.4c-.1-.5 0-1 .4-1.4 0 .5-.1 1-.5 1.4zM550.5 317.8l-1 .4c.3-.3.6-.4 1-.4zM91.2 402.8c-.4 0-.7-.2-1-.5.4 0 .8.2 1 .5zM548 328.3c-.2.3-.6.5-1 .5.3-.3.6-.5 1-.5zM92.2 403.2c-.4 0-.7-.2-1-.4.4 0 .8.1 1 .4zM87.8 404.7c.4 0 .7.2 1 .5-.4 0-.7-.2-1-.5zM546.6 327.4c.3-.3.6-.4 1-.5-.3.3-.6.5-1 .5zM137.7 419.6c-.4 0-.8 0-1.1-.3.4 0 .8 0 1 .3zM470.7 445.3h-.2.2zM563.5 319.7l.6.3-.6-.3zM562.5 321.9l-.4-.4.4.4zM548 326.8c.2 0 .3-.2.5-.3-.2 0-.4.2-.5.3zM34.6 388.4l-.4-.6.4.6zM34.2 387.8l-.4-.5.4.5zM514.8 412.5l.4-.6-.4.6zM514.2 413.4l.4-.5-.4.5zM513.8 413.9l.4-.5-.5.5zM513.3 414.4l.4-.5-.4.5zM512.8 414.9l.5-.5-.5.5zM512.3 415.4l.5-.5-.5.5zM511.8 415.9l.5-.5-.5.5zM511.4 416.3l.4-.4-.4.4zM384.7 107l11.7-2.6 1.2-.3c.8-.1 1.2-.6 1.5-1.3l8.9-19 .3-.6.1-.4c1 0 1 0 1 .8l-.2 1.6c-3.1 6-5.9 12-8.8 18.2l-.2.4c0 .3 0 .7.2.9l3.1 2.3c.3.2.5 0 .6-.2l.5-.8a279.5 279.5 0 0 1 30.2-54.8c.4-.6 1.4-1.1 1-2-.4-.5-1.4-.2-2.1-.2h-3.1c-.3 0-.5.1-.6.4l-2.4-1-.2-.4c0-.3.2-.4.4-.5l1.3-.5 2.7.1 16.2.8 15.4.8 18.8 1.1 20 1.2 17.4 1.3 7 .5 7.1.4c7.9.8 15.7 1.4 23.6 2l30.1 2.6c10.7 1 21.5 1.7 32.2 3.2l.5.5 1 .5c1.6 1 2.8 2.3 3.4 4.1 0 .3.2.5.3.7l.2.4-.1.2c-.4 1-.4 1-1.4.4-1-3.8-3.5-5.5-7.3-5.8l-25.5-2.4-25.2-2.2-2.4-.1c-.4 0-.7.3-.5.6.8 1.8-.1 3.1-1.3 4.2a20.5 20.5 0 0 1-5 3.4c-4.7 2.4-9.7 4-14.9 5h-.4c-1.6.2-2.2-.4-1.6-2 .5-1.4 1.1-2.8 1.8-4.1l3.8-7.6c.4-.7.2-1-.6-1l-12.3-1c-.5 0-1.1-.2-1.5.4-.7-.7-1.5-1-2.5-.9-5.1 0-10.2-.6-15.3-1-1.1-.6-2.3-.5-3.5-.5-.8 0-1.1.4-1.4 1-1-.4-2.1-.9-3.3-1l-5.5-.4a9 9 0 0 0-5.3 1.3c-.2.1-.6.2-.4.6 0 .2.4.3.6.3l2.4.1c1.2.1 1.7.8 1.5 2-.1.5-.5 1-.8 1.4a16.4 16.4 0 0 1-4 3.8 9.7 9.7 0 0 1-5.6 1.9h-3c-1 0-1.8.3-2.4 1.4-1.2 2.2-2 4.4-2.6 6.8-1 3.9-1.5 7.8-2 11.8l-.3 4.6c-.1 1.2.2 2.2 1.2 3a24.1 24.1 0 0 0 6.5 3.6l7 2.4-1 .4c-3.9-1-7.6-2.3-11.1-4.3a7.5 7.5 0 0 1-3-2.5c-.5-.9-1.2-1-2-.8l-7.6 1.5-19.7 3.7c-1.3.2-2 .8-2.3 2l-2 6.7c-.1.8.2 1.1 1 1l4.2-.9 12.8-2.7c2.7-.6 5.5-1.2 8.2-2a39.7 39.7 0 0 1 16.8-.7 64.2 64.2 0 0 1 22.8 8.7v.4h-.2l-2.2-1c-5.1-2.9-10.6-5-16.3-6.4a48.7 48.7 0 0 0-16.3-1l-5.7 1.3a23 23 0 0 0-9 4.4 36.1 36.1 0 0 0-6.7 6.3c-6.4 8-12.4 16.2-17.4 25.2a44.1 44.1 0 0 0-5 12.7l-.4.2-.3-.3.2-1.1a46 46 0 0 1 4-10.6 142.2 142.2 0 0 1 17-25c2.8-3.7 6.1-7 10.2-9.4l.5-.5v-.2l-.1-.2h-.3c-5.5 1.5-11.1 2.5-16.7 3.6-1.3.2-1.8.8-2 2l-1.7 6.5c-.2 1.1-.8 1.6-1.9 1.9-4 1-8 1.6-12 2.3-5.6 1-11.2 1.3-16.9 1.8h-.7c-1 .1-1 .3-1.2 1.2l-1 5.4a807.4 807.4 0 0 1-2 10l-.4.1-.2-.4.2-1.4 2.2-11.9.8-5.7a12 12 0 0 0-3.9-9.3c-.8-1-2-1.6-3-2.4-.7-.7-1.6-.8-2.6-.6-3.8 1-7.5 1.7-11.3 2.6-.7-.1-1.4 0-2 .1l-1.7.2c-.7 0-.3-.5-.2-.8l.4-.1c.5.1 1 0 1.5-.4zm79.2-56.8-23.9-1c-2.9-.2-2.4-.4-4 1.8a261.3 261.3 0 0 0-30.7 55.4c-.5 1.2-.5 2.1.3 3.1 2 2.5 3 5.2 2.7 8.3v.8c0 .7.3 1 1 1l1.5-.1c6.1-.4 12.2-1 18.2-2.2l9-1.7c1.2-.2 1.7-.8 2-1.9.3-2 .8-3.9 1.3-5.8a476.7 476.7 0 0 1 15-43.6c1.2-3.1 1-2.6-1.8-3-2.4-.5-4.9-.8-7.4-1.2-.8-.1-1.7-.4-2.5-.8-.5-.2-.7-.7-.7-1.2l.4-1.4c.6-1.5 1.8-2.6 2.9-3.8 1-1 2.2-1.5 3.7-1.3L473 53c5.1.3 10.2.6 15.4 1.1 2.2.3 3.9-.5 5.6-1.6V52l-1.5-.1-28.7-1.7zM460.4 62h-.8c-1.4 0-1.5 0-2 1.2l-.5 1.1a449.8 449.8 0 0 0-10.6 29.5c-.3.7 0 1 .6.9l.7-.2 19.5-3.7 7.3-1.4c1.5-.3 1.6-.4 1.7-1.8.2-3.3.7-6.6 1.2-9.9.6-4.4 1.6-8.6 3.7-12.6l.2-.5c.2-.4 0-.8-.4-.9l-1.4-.1a240.6 240.6 0 0 1-19.2-1.6zm19.5 1h7.4c2.2 0 4-.7 5.6-2 1.1-.8 2.2-1.7 3-2.8.6-.6 1.5-1.3 1-2.2-.3-.7-1.4-.6-2.2-.6L489 55l-15.8-1.2-20-1.5c-4-.3-5 .2-7.3 3.4-1.6 2.3-1.5 2.9 1.3 3.5l.9.2 10.3 1.4c7.1 1 14.3 1.6 21.6 2zm69.5-6.9h-1c-1.4-.3-2.3.3-3 1.6-1.5 3.2-3.2 6.3-4.6 9.5-.3.6-.5 1.2-.6 1.9-.2.3 0 .6.4.6l1.5-.1c2.3-.6 4.6-1.2 7-2 3.3-1 6.7-2.4 9.7-4.5 1-.7 2-1.6 2.8-2.6.7-1 .5-1.8-.4-2.5-.5-.4-1-.7-1.7-.8l-2.4-.4-7.7-.7zM776.6 48.6l-.5-.3-.4-.3-.6-.5c-4-2.2-8-4.5-12.2-6.4a82 82 0 0 0-58-3.8 74.6 74.6 0 0 0-21.5 11.4 132.3 132.3 0 0 0-23.3 22.6 244.3 244.3 0 0 0-26.9 41.5c-7.9 15-14.8 30.6-20.7 46.5-1.7 4.6-3.2 9.3-4.8 14-.3.7-.4 1.5-.6 2.3-.6.2-1.1.3-1.6-.1l.2-.9.3-.6.4-1.9a429.3 429.3 0 0 1 16.7-42.2c4.5-9.9 9.4-19.6 14.9-29 6.4-11 13.4-21.5 21.6-31.3 7.1-8.6 15-16.4 24.1-22.9 6.8-4.8 14-8.5 21.9-11.1a82.8 82.8 0 0 1 69.6 10.6c.5.8 1.3 1.3 1.4 2.4zM556.2 259.2a36.4 36.4 0 0 1 30.8 5.6c5.2 3.5 9.3 8.1 12.5 13.5a74.7 74.7 0 0 1 8 20.4 135 135 0 0 1 3.3 21.4c.7 8.8.8 17.6.4 26.3-.4 10.3-1.4 20.6-2.8 30.8l-.5 2.3c-.6-.3-.9-.9-.9-1.5v-2c0-.9 0-1.8.2-2.8 2-15.1 3.1-30.2 2.5-45.5-.4-10.2-1.5-20.4-4.2-30.3-1.7-6.6-4-13-7.8-18.9a41.8 41.8 0 0 0-21.2-17.3 30.3 30.3 0 0 0-19-1l-1.3.3c-.9 0-1.7.8-2.6.2.5-.8 1.5-.8 2.2-1.2l.4-.3zM656.3 54.3c-.2.9-.8 1.4-1.3 2-3 3.4-6 6.8-8.8 10.3-5.8 7-11.4 14.1-16.5 21.7a387.5 387.5 0 0 0-16.3 25.7c-.8 1.3-1.4 2.9-2.6 4-.3-.9-1-1.7-.7-2.7l-.2-.6c.1-.9.6-1.5 1-2.2 3.8-6.3 7.7-12.6 11.7-18.8l9-13c5-7.4 10.8-14.5 16.5-21.5 1.3-1.7 2.6-3.2 4.4-4.4 1.3.5 2.6.3 3.8-.5zM817.3 241.4v.4c-1.6.6-3.2 1-4.9 1.2-.7 0-1.2-.2-1.5-.8l.1-.9c.4-.5.5-1 .4-1.6.7-4 1.2-8 2.5-12 .5-.4.6-1 .8-1.7.3-1.2 1.1-2.3.8-3.6 0-.5-1 1-1.8 3.3-.2.5-.2 1.1-.3 1.7-.3.2-.4.6-.5 1v.3a8.9 8.9 0 0 1-.1-5.6c.2-1 .6-2 .6-3l.1-.6.3-.5.1-.4.4-1 .1-.5.4-.6v-.3l.5-1 .1-.5.4-1 .1-.5.3-.6.1-.3.4-1c0-.2 0-.3.2-.5l.3-1 .2-.4.3-.6.2-.9c0-.2.2-.4.3-.5v-.4l.5-1v-.4c.5.7.4 1.5.1 2.3a10 10 0 0 0 0 5.8l.6 3.5c.3 2 1.2 3.3 3.2 3.8l-.1.5-.4 1-.5 2.4c-1.3 4.5-2.5 9-3.5 13.6l-.4 1.4c-.4.4-.5 1-.4 1.5zM387 55.2a304.3 304.3 0 0 0-58.6 34c-5.1 4-10.3 7.9-15.1 12.3-5 4.6-10.2 9-14.8 14.3a17.8 17.8 0 0 0-3.2 5.2c-.2-.5-.5-.7-1-.5-1-.1-1.5.6-2 1.2l-6.3 5.9a3 3 0 0 0-.5.5c-.1.1 0 .3 0 .4l.2.1 1.4-.2 4.3-.7 1.5.5-6.7 1.2-18.6 3.9-6.7 1.3c-.3 0-.7.2-.8-.1-.2-.5.3-.5.6-.5l6.4-1.4 14-3c1.5-.2 2.7-1 3.8-2 5.7-5.4 11-11 16.5-16.7 8.6-9 18.3-17 28.4-24.4A285 285 0 0 1 384.5 55l2-.8 1-.4.6 1-1 .4z" class="st0"/>
  <path d="M404.4 46.5c1-.4 2-.4 2.9-.4 3.3 0 6.5 0 9.8.3 2.3.2 4.5.1 6.8.2 1.7 0 3.5.1 5.2.5l-1.3.4c-.2.1-.5.2-.4.5l.2.3 2.4 1.1c0 .8-.5 1.3-.9 2-6.2 10-12.4 20-17.8 30.5-.6 1.2-1 2.4-2 3.3v-1.6c.1-.7 0-.8-.9-.8l.6-1.8a196.5 196.5 0 0 1 16-28.6l1.4-2c.2-.3.8-.7.5-1.2-.3-.4-1-.3-1.4-.2-3.2.6-6.4.4-9.6.3-2.3 0-4.5-.2-6.8-.3-2.7-.2-5.3.2-7.8 1-.5.3-1.1.3-1.7.4.7-.7 1.5-.9 2.4-1.2 1-.3 2-.8 2.8-1.7.4-.5 0-.8-.4-1zM237.9 147l9 2.8c10.5 3.3 21.1 6 32 8.4l5.8 1.4c-1.2.1-1.6.9-1.6 2-2 0-4-.7-6.1-1.2-13.4-3-26.7-6.6-39.7-11l-2.5-1c.8-1 2-1 3-1.4zM825.4 232c0 .6 0 1.2-.4 1.6-.4 0-.7.2-.8.6-.2 1.1-.3 2.2.2 3.2-.4 2.7-1 5.4-1.3 8-.5 3-.4 2.4 2 3l-2.2.2c-.4 0-.7.3-1 .6v.5l.6-.2-.3 1.8c0 .8 0 1.4.4 2-.1.2-.4.3 0 .5l1 .5c-1.2 0-1.8.7-1.9 1.8l-.3 4.8c-.4 3.1-.3 6.3-.4 9.5 0 .6 0 1.3.5 1.8l-.5.7c-.2.2-.3.5 0 .8.2.2.5 0 .7-.2l.3-.3c0 1.7.3 3.3-.4 5 0-.4 0-.7-.2-1l-.3-.3-.3.3-.1.2c-.3.4.2 1.4-.6 1.2-.6 0-.4-1-.4-1.5l-.4-2.3a18 18 0 0 1-.6-5.4c.2-.9.4-1.8.4-2.6 0-2.7.3-5.4.5-8a159.7 159.7 0 0 1 8.8-42.6l1-2.7c.1-.2.3-.5.5-.4.2.1.2.5.1.7 0 .5-.2 1-.4 1.4-1.7 4.7-3 9.5-4.2 14.3-.3.9-.5 1.7 0 2.6zM851.1 278.5l-1.4 6.4-.6 1.8-4 10-1 1.7-.3.1-.3-.3-.7-7.1c0-1 0-2 1.3-2.2.5-.1.6-.7.6-1.2l.6-1.4c.6-.6.8-1.4 1-2.1l1.8-4.7 1-1.4a22 22 0 0 0 1.4-10 9 9 0 0 1 1-5.6c2 .7 2.4 1.2 2.2 3-.3 2.8-.7 5.5-1.5 8-.5 1.7-.7 3.4-1.1 5zM146.8 168.8a151.2 151.2 0 0 0-29.3 21.2 168.8 168.8 0 0 0-41.2 58.2c0 .3-.2.6-.4.9 0 .2-.3.4-.5.2l-.2-.4.8-2.2c1.6-3.5 3-7 4.8-10.3a159 159 0 0 1 25.6-36.5 163.4 163.4 0 0 1 39.7-31.5l.7-.2v.6zM829.8 187.6c1.3-2.4 2.7-5 4.4-7.2.8-.2 1.5 0 2 .8.5 1 1.2 2 .5 3-1.8 2.6-2.7 5.6-4 8.5-.8 1.8-2 3.4-3.5 4.8-.5.4-1 .4-1.5-.2-.9-1-1.2-2.2-.7-3.6a32 32 0 0 1 1.8-4c.4-.6 1-1.2 1-2zM576 203l.7-.2c3-.6 6-1.2 9-1.5 3.4-.4 6.9-.8 10.2-1.7.8-.2 1.6-.4 2.4-.3l-.3.3c-.2.2-.4.5 0 .5l1.6-.1c1-.2 2-.3 3-.2-.6.6-1.5.7-2.4 1l-13.3 3.5c-4.3 1-8.5 2.2-12.8 3.3-.8.2-1.5.5-2.4.4l.8-.5 1.7-.7.2-.4-.5-.3h-.2c.4-.6 1-.6 1.6-.9.5-.2 1.4-.2 1.3-.7 0-.7-1-.2-1.5-.5l1-.4c.2-.1.7 0 .4-.4l-.5-.1zM770.8 174.6l.2-.2 10.4-5.6 9-4.2 5.6-2.3a63 63 0 0 0 6.2-2.6l7-3.2c.3 0 .5 0 .6.2v.5c-.5.5-1 .8-1.7 1-4.2 2.2-8.5 4.3-12.8 6.3l-10.4 5c-3.7 2-7.6 3.5-11.5 5.1-.5.3-1 .4-1.6.5-.2-.3-.6-.4-1-.5zM788.7 111.9l.4-.2c.2.4.2.8.2 1.2-2.9 2.5-6 4.5-9.3 6.5-9.5 6-19.3 11.6-29.2 16.9-3 1.6-5.7 3.3-8.8 4.5l-.6.5c-.5-.1-.8-.4-1-.9l.4-.1.6-.4 14.6-8a352 352 0 0 0 24.5-14.3l7.8-5.3.4-.4zM199 151.8l-.3.2-.6.3c-16 6-31.2 13.8-46 22.3-1-.3-1-.4-.4-1l1-.9c9.6-5.5 19.4-10.7 29.5-15.3 4-1.8 13.6-5.3 14.3-5.6 1-.4 2-.7 3-.8l-.5.8zM591.5 182.3c-1-.6-2.1-.7-3.2-1a105 105 0 0 0-8.5-2.1c-1.1-.2-2-.2-3 .3l-1.7.2c-.2 0-.4.1-.4 0-.2-.2 0-.4.1-.6l.9-1.1c.2-.3 0-.6 0-1l1.7-2.4c1.6-2.2 3.1-4.4 4.5-6.8l1.3-2h.5c.7-.7 1.4-.6 2 .2 0 .6-.3 1-.5 1.5a67.1 67.1 0 0 1-6.1 9.8c-.3.4 0 .9.4 1h.5c2.2.2 4.4.8 6.6 1.4 2.4.6 4.8 1.2 7.3 1.2-.5 1-1.4 1.3-2.4 1.4zM684.9 144.1c-1 .2-2-.1-3-.2l-14.8-2c-1.5-.2-3-.2-4.6-.2l.2-.2.4-.3c0-.2 0-.3-.3-.2l-3.5 1-.4-.2c0-.1 0-.3.2-.4a6.6 6.6 0 0 1 4.4-1.7c2.7 0 5.4.4 8.1.8l13.2 1.8c2.4.3 4.7.9 7 1.6.4.1.8.5 1.2.7 0 .2-.2.3-.3.4l-5.1-1.1c-1-.2-1.9-.3-2.8.2z" class="st0"/>
  <path d="M841 287.7c.4.6.3 1.4.6 2l.3.2.3-.2c.4-1.3.6-2.6.7-4 .4-.4.4-1 .5-1.4.6.8.5 1.8.5 2.8 0 .4.4.6.9.6 0 .5-.2 1-.6 1.2-1.4.3-1.3 1.2-1.4 2.2-1 1-1.4 2.2-1.5 3.6 0 .8-.2 1.6-.9 2.2 0-1 0-2.1-.7-3a9 9 0 0 0-2.5-1.9c-.7-.3-1.1-.2-1.8.4a5.3 5.3 0 0 0-1.6 3.9c0 2.4-.4 5-.7 7.4-.1.5-.1 1 .1 1.4-1 1-2.1 1.2-3.4.6.8-.2 1.5-.6 1.7-1.5l.7-3.2c.9-6.4 1.3-12.7 1-19.2V280c.5 1 .4 2 .4 2.9l.1 8 .2.6c.3 0 .3-.3.3-.5-.2-1.5.4-2.8 1-4.2l.7 1.8a6.7 6.7 0 0 0 2.8 3.2c.8.5 1.6 0 1.7-1v-2l.6-1zM795.5 265.4c-.1.9-.6 1.5-1 2.2-2 3.2-4.1 6.3-6.5 9.2-1.5 2-3.3 3.7-5 5.4l-1.1.6c-.1-.8-.3-1.5.1-2.3.2-.4.1-.7 0-1.1l2.8-3.2c2.2-2.5 4-5.2 5.8-8l1-1.3h.7a5 5 0 0 1 3.2-1.5zM661.1 185.2c.9-.3 1.8-.7 2.6-1.2.2 0 .3-.4.3-.5 0-.2-.3-.4-.5-.5h-2l-3.7-.2c.3 0 .5-.3.9-.3l8-.6a8 8 0 0 1 3.9.5c1 .5 2 .5 3 .2 1.2-.3 2.4-.5 3.5-1 1.9-.9 3.8-1.2 5.8-1.2h2.9c-1.1.7-2.4.8-3.7 1-1.4 0-2.8.5-4.1 1.1a44.3 44.3 0 0 1-10.3 3.2c-2 .4-4 1-6 1 0-.2.3-.3.4-.5.5-.5.4-.7-.3-.9h-.7zM831.7 118c.5-.5 1.2-.8 1.8-1.1 4-1.8 7.5-4.2 11.3-6.3 1-.6 1.8-1.3 2.6-2.1.4-.5.5-1 .3-1.6l1.4.4c2.7.8 4.1 2.7 4.9 5.3 1 3.2 1.6 6.5 2 9.9.1 1.9.7 3.8.4 5.7-.7-1.5-.8-3-1-4.7-.4-3.4-1.2-6.8-2.4-10l-1.1-2.7c-.7-1.4-1.6-1.6-3-1l-.8.6-12.8 6.8c-1 .6-2 1.2-3 1.4l-.6-.6zM495.9 162.5c-.8.1-1.6 0-2.4-.2-4-.9-8.3-1.1-12.4-1.7l-8.4-1c-.3 0-.7-.3-1-.4.6-.2 1.3 0 1.9-.5 2.2-.2 4.4.3 6.7.6 5.4.6 10.7 1.5 16.1 2.3.5 0 1 .3 1.4.4-.7.2-1.3 0-2 .5zM846.2 266.5l1.2.2c.7.2 1-.1 1.3-.7 1.2 1.2 1.4 2.8 1.2 4.4-.2 2.3-.5 4.6-1.3 6.8-.3.7-.5 1.5-.4 2.3l-1.8 4.7c-.3.7-.5 1.5-1.1 2l1.2-5.5 1.9-7.3c.3-1.2.3-2.5.2-3.8 0-.8-.4-1.3-1.2-1.6l-2.1-1 1-.5zM199 151.8l.5-.9c3.2-1.6 6.5-2.9 10-3.7.6 0 1.2-.1 1.1.8l-11.6 3.8zM124.6 174a79.4 79.4 0 0 1-8.2 3 7.4 7.4 0 0 1 4.2-2.5l2.6-.6c.5-.1 1 0 1.4.2zM388 46.1h12c.8 0 1.7 0 2.5.4l-2.8.1-8.9-.1c-1 0-1.9 0-2.8-.4zM382.7 258.3l.1-.3c2.1-1.3 4.3-2.4 6.7-3.1v.3l-5.6 2.8-1.2.3zM198 149.7c0 .4-.4.6-.8.6-.3 0-.7-.2-.7-.6 0-.5.5-.6.9-.6.3 0 .6.2.7.6zM817.8 266.5c-.1-1.8-.2-3.7.3-5.5v5.3l-.3.2zM689.2 180c-1 .5-2.2.5-3.4.4 1-.6 2.2-.5 3.4-.4zM271 102.1h-3.3c1.1-.6 2.3-.4 3.5-.4l-.2.5zM825.5 249.4h-3c1-.5 2-.5 3 0zM605 199.3c-.7.4-1.5.5-2.4.5.8-.6 1.6-.6 2.5-.5zM243.5 135c.3-.5.8-.9 1.5-1-.4.5-.9.9-1.5 1zM242 136c.4-.6.9-.9 1.5-1-.3.5-.8.8-1.5 1zM115 177.6c-.3.3-.6.4-1 .4.2-.3.5-.7 1-.4z" class="st0"/>
  <path d="M659.6 185.7c.5-.4 1-.5 1.5-.5a2 2 0 0 1-1.5.5zM598.7 199.2a2 2 0 0 1 1.5-.4c-.4.4-1 .5-1.5.4zM600.6 198.7c.5-.3 1-.4 1.6-.3-.5.3-1 .4-1.6.3zM245 134l1.4-.5c-.4.3-1 .5-1.5.5zM825.8 230.7c0 .4 0 .7-.3 1 0-.4 0-.8.3-1zM826.3 228.7c0 .4 0 .7-.3 1 0-.3 0-.7.3-1zM826.8 226.8c0 .4 0 .7-.3 1 0-.4 0-.7.3-1zM827.8 223.4c0 .4-.1.7-.4 1 0-.4.1-.7.4-1zM590.5 182.7l1-.4c-.3.3-.6.4-1 .4zM108.6 180.3l-.3.2c0-.5.2-.2.3-.2zM771.8 175.1c-.3.3-.6.5-1 .5.3-.3.6-.5 1-.5zM830.2 216.2c0 .4-.1.7-.4 1 0-.4.2-.8.4-1zM830.7 214.7c0 .4 0 .8-.4 1 0-.3.2-.7.4-1zM825 237h-.5c.2-.2.3-.2.5 0zM827.3 225.3l-.3.6.3-.6zM828.3 222l-.3.6.3-.6zM828.7 220.5l-.3.6.3-.6zM829.2 219c0 .3-.2.5-.3.7l.3-.6zM829.7 217.6l-.3.6.3-.6zM831.3 119l-.6.4.6-.3zM832.2 118.5l-.5.4.5-.4zM829.8 119l.6-.4-.6.4zM830.8 118.5l.6-.3c-.3 0-.4.2-.6.3zM769.9 175l.6-.3-.6.3zM272 101.6l-.5.5-.1-.4h.6zM781 280c.3 0 .4-.2.6-.4l-.5.5zM780.6 280.5l.5-.4-.5.4zM818.1 282c-.6-2-.4-4-.3-5.9.7 2 .4 4 .3 5.9zM838.6 299.8c.2-1.2.7-2.3 1.8-3a4 4 0 0 1-1.8 3zM833.6 305l.6-.4-.6.4zM277.3 107.4c-.6 1.1-1.5 1.9-2.5 2.6a33 33 0 0 0-3.8 3.6c-1.9 2-4 3.7-6.1 5.4-.4.3-.8.6-1.3.7l-.2-.1v-.2l.7-1c2.1-2.4 4.6-4.4 7.1-6.4l4.5-3.6c.5-.5 1-.9 1.6-1zM283.6 101.6l.4.4c-1.7 2-3.9 3.6-6 5.2l-.7.2c1.9-2.2 3.8-4.3 6.3-5.8zM256 116.6c.5-.7 1.2-1.2 2-1.5-.4.8-1 1.4-2 1.5zM255.5 117c.1-.2.3-.3.6-.4l-.6.5zM301 86.7l-.5.4.6-.4zM301.6 86.2l-.5.5.5-.5zM302.9 85.2c-.2 0-.3.2-.5.3.2 0 .3-.2.5-.3zM303.4 84.7c0 .2-.2.4-.5.4l.5-.4zM316.6 76l.4-.3-.4.4zM317.4 75.5l.5-.5-.5.5zM318 75c0-.2.2-.3.5-.3l-.6.3zM302.3 85.6c0 .2-.2.3-.3.4l.3-.4zM586.2 413.9c.4-.6 1-1 1.6-1 3 0 5.2-1.7 7.4-3.4l1.6-1.4a16 16 0 0 0 3.4-2.6c.5-.6 1.2-1.1 2-1.3-.6 1-1.4 1.6-2.2 2.3l-4.7 4.2a13.4 13.4 0 0 1-9.1 3.2zM482.3 242.8c-.7.6-.9 1.2-.4 2 1.8 3.7 2.2 7.6 1.4 11.6-.6 2.7-1.4 5.3-2.6 7.8a69.9 69.9 0 0 1-8 13.7c-4.2 5.6-8.5 11.1-12.9 16.6a340.2 340.2 0 0 1-13.1 15.8c-.1.2 0 .5.3.5l1.2-.1 22.2-4.4c6-1.2 12-2.4 18.2-2.6l7 .5.6.1.3.4-.3.3-2.2.1h-5.5c-.7 0-1.3.2-1.9.5-4.4 0-8.6.8-12.9 1.6l-27.5 5.5c-1.6.3-3 1-4.2 2.1a58.8 58.8 0 0 1-8 6.4 29 29 0 0 1-7 3.3c-5.4 1.9-10.9 3.2-16.4 4.3a390.8 390.8 0 0 1-53.4 7.6c-4.6.4-9.2.7-13.8.7-7.5 0-14.9-1-22.2-2.7-7.6-1.9-14.9-4.6-22-8l-3.6-1.8a9 9 0 0 1-3.1-2.7c-1.9-2.6-1.3-4.4.4-6l1.6-1.1 3-2c.5-.5.4-.9.1-1.4.1-.4 0-.7-.5-.9-.5-.2-1-.5-1.4-1 1.2 0 2.2.6 3.2 1 .8.4 1.5.4 2.3-.1l.8-.5a315 315 0 0 1 42.2-21.3c6.2-2.4 12.6-4 19-5.2a65.6 65.6 0 0 0 19.5-7.2 499.8 499.8 0 0 1 74.9-31.6 56.8 56.8 0 0 1 19.9-2.8c1.1 0 2.2 0 3.3.4.4.4 1 .5 1.5.6zm-129.5 53c-2.3-.8-4.8-1.2-7-2.5-.5-.3-1-.3-1.6 0l-3 1a290 290 0 0 0-30.3 15.4l-.8.5-.1.2.1.2 2-.4 26-7.3c1.4-.4 2.8-1 4.2-1.7l10.5-5.4c-.2 1-.8 1.5-1.7 2l-7.3 3.6-1.7 1c-.3.1-.4.5 0 .7l1 .7a66 66 0 0 0 21.7 6.2c5.8.6 11.7.3 17.6-.2l24.5-2.4c9.2-1 18.4-1.8 27.5-3.3l12-2c1.2-.2 2.2-.7 3-1.7l1-1.3c4-5 8-9.8 11.8-14.7l7.5-9.8c2.5-3.5 4.8-7.1 6.5-11 1.4-3 2.5-6 3-9.2.1-.8.5-2-.1-2.5-.8-.7-1.6.4-2.4.7l-.8.5c-4.2 2.5-8.5 5-12.6 7.6-8.2 5-16.4 10-24 15.7a66 66 0 0 1-21 10.6 234.6 234.6 0 0 1-46.5 9.6c-5 .5-10 .6-15-.1l-4-.6zm-40.2 19.5c.7 0 1.2.4 1.8.7l4.1 2a73 73 0 0 0 34.7 5.7l20.7-2.2c7.4-.8 14.9-1.6 22.3-2.6 7.7-1 15.3-2 23-3.2 5.8-.9 11.7-2 17.5-3.3 1.4-.3 2.5-1 3.6-1.9a89 89 0 0 0 6.3-7c0-.2-.1-.5-.4-.4l-1.6.2c-6.1 1.2-12.3 2-18.4 2.8a1006.2 1006.2 0 0 1-45.4 4.6c-4 .3-7.9.6-11.9.5a61 61 0 0 1-15.8-3c-4-1.2-8.2-2.4-12-4.6-.7-.5-1.4-.4-2.2-.1a5565 5565 0 0 1-24.4 7l-3.7.9c-2.4.4-4.7 1.2-6.8 2.4l-6.6 4.1-1 .7c-.4.4-.4 1 0 1.2l1.7 1 7 3.4a92 92 0 0 0 46.5 8.3c6-.5 12.2-1 18.3-1.7l17-2.2c5.5-.8 11-1.8 16.4-2.7 7-1.3 13.9-2.9 20.7-5 4.5-1.2 8.4-3.6 12-6.5.2-.2.5-.5.2-.8h-.6c-4.7 1.1-9.5 2-14.2 2.7a965.4 965.4 0 0 1-35.7 4.8l-14 1.6a2259.8 2259.8 0 0 1-23 2.2 71 71 0 0 1-34.6-8.5c-.5-.3-1.2-.5-1.4-1.2zm53-19.3c5 0 10.3-.6 15.5-1.4a239.7 239.7 0 0 0 39.8-9.4c6-2 11.6-4.8 16.7-8.6 7.8-5.8 15.9-11 24.2-16l15.7-9.5 1-.6c.3-.2.5-.5.4-.8 0-1.2-.4-2.2-1.1-3.1-.3-.3-.7-.4-1.1-.5H475c-5.5 0-10.9 1-16.1 2.7a489 489 0 0 0-75.5 31.9 69 69 0 0 1-19.7 7c-4 .8-8 1.7-11.8 2.8l-4.5 1.7c-.2 0-.4.3-.4.5s.2.4.4.5l3.7 1.2c4.7 1.3 9.5 1.7 14.5 1.6z" class="st0"/>
  <path d="M295.7 309.4c.3.6.9.9 1.4 1.1.4.2.6.5.5 1l-10-4.2-7.2-3c-.6-.3-1.2-.1-1.8 0l-6 2.1c-5 1.7-10.1 2.5-15.4 2.6-7.4.3-14.8.2-22.2-.1-4.8-.3-9.6-.8-14.4-1.3a510.9 510.9 0 0 1-28.8-3.6c-9.8-1.7-19.6-3.3-29.4-5.2-13.5-2.5-27-4.8-40.3-8.2-9.7-2.4-19.4-5.1-28.9-8.6a60.3 60.3 0 0 1-11.9-5.8c-1.3-.8-2.5-1.8-3.5-2.9-2.4-2.5-3.6-5.3-3-8.8.9-.8 1.4-1.7 1-3 1.8-4.2 3.6-8.5 5.7-12.7a152.7 152.7 0 0 1 19.5-30.2c.2 0 .4-.2.4-.5l.4-.5.2-.4c.3 0 .4-.2.4-.5.3 0 .4-.2.5-.5.2 0 .4-.2.4-.5.4-.2.6-.4.6-.8.3-.1.5-.3.5-.5.2-.2.4-.3.4-.6.3 0 .4-.2.5-.5.2 0 .8 0 .5.4l-2 3.2c-.4.6-.9 1-1 1.7-.8.4-1.3 1-1.4 2a199.1 199.1 0 0 0-13.3 19.2 174.5 174.5 0 0 0-11.4 23.4 8.6 8.6 0 0 0 2.1 9.3c1.5 1.5 3.2 2.7 5 3.8 3 1.7 6 3 9.2 4.2 9.4 3.5 19 6.2 28.7 8.7 10.7 2.6 21.5 4.7 32.3 6.7 7.2 1.4 14.4 2.8 21.6 4a504.6 504.6 0 0 0 50.5 7 249.5 249.5 0 0 0 36.7.4c5.1-.6 10-2.1 14.9-4 8-3 15.8-6.4 23.5-10l45-21.7 14-6.6 1.6-.6.6-.3c.4 0 .7-.2 1-.5l.3-.1.7-.4.3-.1.6-.3.4-.2.6-.3.4-.1.6-.4.4-.1c.5.2.7.5.5 1-.4 0-.7.2-1 .5-.4 0-.7 0-1 .4l-.3.1a17.5 17.5 0 0 1-1 .5c-.4 0-.7.1-1 .4-.4 0-.7.2-1 .5l-.3.1-.7.3-16.3 7.9-35 16.8a578.9 578.9 0 0 1-28.7 13.1l-.1.4.1.1 1.2.5c4.3 1.5 8.5 3.2 12.6 5.2zM40.9 305c15.3 1 30.3 4 44.9 8.6 16 5.1 32.2 9.2 48.5 12.7a771.3 771.3 0 0 0 61.2 10.3 103 103 0 0 1 18.6 4.1 399 399 0 0 1 27.7 10l31.5 12.3c7 2.7 14.3 5 21.6 6.7l1.2.3c.2.1.4.4.3.6-.1.2-.4.3-.6.3-.6 0-1.3 0-1.9-.2a128.2 128.2 0 0 1-23.2-7.3l-33.3-13a348 348 0 0 0-23.7-8.3c-6.3-2-12.7-3.4-19.3-4.2a664 664 0 0 1-77.6-14.2c-11-2.7-21.8-5.7-32.5-9.1a176.6 176.6 0 0 0-45.5-8.5c-.8 0-1.6 0-2.3-.3-.2-.2-.4-.4-.3-.6 0-.2.2-.3.3-.4h1l3.4.1zM85 369.9l-.4-.1-.6-.4c-5.7-3-11.1-6.1-16.4-9.7a81.2 81.2 0 0 1-16.2-14.4c-1-1.5-1-1.8.5-3a38.3 38.3 0 0 1 12-5.8 77.3 77.3 0 0 1 19.4-2.8l12.8-.2c6.3 0 12.5.6 18.8 1.3 9.1 1 18.1 2.6 27.2 4.1l25 4.6c7.9 1.5 15.9 3.1 23.8 4.9 13.7 3.1 27 7 40.3 12l28.9 10.8.8.5v.2c0 .1-.2.3-.3.2l-2-.6c-13-5-26-10-39.3-14.4a337 337 0 0 0-31.2-8.4 868.2 868.2 0 0 0-35-6.9l-23.8-4.1c-5.4-1-10.9-1.5-16.3-2.2-11-1.4-21.9-1.2-32.8-.8-7.2.3-14.2 1.7-21 4.3a26.6 26.6 0 0 0-7.2 4.3c-.3.3-.4.7 0 1.1.6.8 1.2 1.7 1.9 2.4 3.7 4 7.8 7.5 12.2 10.6A149.7 149.7 0 0 0 84.9 369v1zM113.5 381.4a366 366 0 0 0 24.8 8.2 628 628 0 0 0 73.8 16c5.7 1 11.4 2 17.1 2.8 5.8.8 11.7 1.4 17.5 2l11.8 1.6 13.9 1.8 17 2.3c9 1.1 18 2.6 26.9 4l15.2 3c.2 0 .4.3.5.4l.1.2-.2.2h-.9c-7.4-1.7-14.9-2.9-22.3-4-5.8-1-11.6-1.8-17.5-2.6l-23.6-3.3-21.4-2.6c-4.7-.5-9.4-1.2-14.1-1.9-6.7-.9-13.4-1.7-20.1-2.8a631.9 631.9 0 0 1-49.5-9.7 452 452 0 0 1-41.8-12l-8.6-3c-.3-.4-.6-.5-1-.5l1-.5h.3c.4.3.7.4 1 .4zM338.4 357.8l28-1.1c8.3-.4 16.7-1 25-1.9 14-1.3 28-3.2 41.7-6.7a103 103 0 0 0 19-6.4c4.1-2 8.1-4.5 12-6.9 5.8-3.5 11.4-7 17-10.7 6.1-3.9 12-8 17.5-12.8l.2-.2c.2-.2.5-.6.8-.3.3.2 0 .5-.2.7l-2.5 2.3c-4.7 3.9-9.7 7.3-14.7 10.6-8 5.3-16.2 10.3-24.4 15.2-6.3 3.7-13 6.2-20 8.1-9.4 2.7-18.8 4.5-28.4 5.9a579.7 579.7 0 0 1-56.3 4.6c-14 .4-28 .7-42 .1-.7 0-1.5.4-1.9-.5.6-.5 1.2-.2 1.9-.2l22.4.1h4.8zM270.6 385.8c5-.2 10.3 3 11.7 8.7 1.5 5.7-1.5 10.1-6.3 12.1-6.6 2.8-14.2-1.7-15.7-8.1-1.6-6.4 3.6-12.8 9.7-12.7h.6zm1.1 19c4.9 0 8.2-2.8 8.4-7a8.6 8.6 0 0 0-4.5-8.2 8.6 8.6 0 0 0-9.2 0 7 7 0 0 0-3.6 5c-.3 2.3 0 4.4 1.4 6.3 2 2.7 4.6 4 7.5 4zM500.8 318.3c.6.3.7.7.5 1.3l-2 4.7c-.3.7-.6 1.3-.6 2a352.5 352.5 0 0 0-25.3 67.2l-1 4.3-.2.9c-.2.5-.4.7-1 .6-.3-.2-.4-.5-.3-.8l.5-3a364.6 364.6 0 0 1 26.3-71.2l1-2.2.4-.6.1-.4.4-.6.1-.4.4-.5.1-.4.4-.6.2-.3zM339.2 434c2-.4 4-.2 6-.3l2.3-.2.2-.3c0-.1 0-.4-.2-.4h-1.9c-2.3-.1-4.6 0-7-.2 1-.3 2.1-.3 3.2-.3 6.2-.2 12.4-.3 18.6-.7 5.4-.3 10.7-.8 16.1-1.2 5.4-.3 10.7-1 16.1-1h2.2c-.5.3-1.2.3-1.8.5-.6 0-1.2.3-1.8.4l-.2.4.2.3.7.3c-2.6.8-5.3 1.2-8 1.4l-11 .8h-.5c-8.1.5-16.2 1-24.3.7h-6.3l-2.6-.1zM338.6 453.5c-9.4.3-19-.4-28.7-.6-1.2 0-2.4-.2-3.6-.4l-.3-.3.4-.2 2.2-.1 20.5.5c7 0 14.2.2 21.2 0 6.7-.2 13.4-.5 20-1.1 5.7-.6 11.4-1 17-1.7 4.4-.5 8.7-1 13-1.7l10.4-1.8 1-.2c.3 0 .4.2.5.4l-.2.4-1.4.5-2.1.4a386.5 386.5 0 0 1-36.1 4.6c-5.6.4-11.1.7-16.7.8-5.6 0-11.2.6-17.1.5z" class="st0"/>
  <path d="m391.9 431.3-.7-.3-.2-.3.2-.4 1.8-.5c.6 0 1.3 0 1.8-.4a522.8 522.8 0 0 0 29.4-4c.2 0 .5.2.5.5s0 .5-.3.6l-1.6.4a323 323 0 0 1-18.9 2.9l-8.6 1a6 6 0 0 0-3.4.5zM59.4 374.4c0 1-.5 1.9-1.5 2.6-1.6 1.1-3.5.4-4-1.4a4 4 0 0 1 1.2-4.1c1.3-1 2.8-.8 3.7.6.4.6.6 1.2.6 2.3zm-1.6-.3c0-.8-.3-1.4-1-1.7-.6-.2-1.4.2-1.8 1l-.3.6c-.2 1 .2 2 1 2.2.9.2 1.9-.6 2-1.6v-.5zM225.8 417c0 .9-.5 1.9-1.5 2.6-1.5 1-3.5.4-4-1.4a4 4 0 0 1 1.2-4.1c1.3-1 2.9-.9 3.8.5.4.7.6 1.3.5 2.4zm-1.6-.3c0-.8-.2-1.4-1-1.7-.5-.2-1.3.2-1.7 1l-.3.6c-.3 1 .2 2 1 2.1.8.2 1.9-.6 2-1.5v-.5zM75.8 261.6c.4 1.2-.1 2-1 3l-.1-1.4c.2-.4.1-.8-.3-1l-1.7-.1h-7.6c.9-.5 1.9-.5 2.8-.5h7.8zM468.7 451.4c.1 1.5 0 3-.2 4.6l-.2 3.5c-.1 1.5-.2 2.9-1 4.1l1-10.3c0-.7.2-1.3.4-1.9zM301.6 479c-1.3.1-2.7.3-4-.3 1.4-.1 2.7 0 4 .4z" class="st0"/>
  <path d="M391.9 431.3a6 6 0 0 1 3.4-.5c-1 .5-2.2.6-3.4.5zM295.9 478.5c-1 .2-2.1.2-3-.3 1 0 2 0 3 .3zM295 479.7c1.1-.2 2.1-.2 3.1.3-1 .2-2 .1-3-.3zM500.6 318.6l-.3.6.3-.6zM500.1 319.6l-.3.6.3-.6zM499.6 320.6zM499.1 321.5l-.3.6.3-.6zM102.9 218.6c0-.7.4-1.2.8-1.7.7-1 1.5-2 2.1-3.2.3-.4-.3-.4-.6-.4.2-.4.3-.8.6-1.1 4.3-5.3 8.5-10.7 13.4-15.4a160.9 160.9 0 0 1 31.3-23c.7-.5 1.3-1 2.2-1-.4.2-.7.6-1 .9-.6.5-.6.5.4.9-.4.8-1.2 1-1.8 1.5-5.9 3.6-11.6 7.5-17 11.8-3.2 2.4-6.3 5-9.2 7.8l-2.8 2.7a168.6 168.6 0 0 0-16.1 17.8c-.7.9-1.2 2-2.3 2.4zM104 214.8c-.1.4-.3.7-.7.9 0-.4.3-.7.6-.9zM101 218.7c0 .2-.2.4-.5.5 0-.3.2-.5.5-.5zM101.4 218.1c0 .3-.2.5-.4.5 0-.2.2-.4.4-.5zM101.8 217.6l-.4.5c0-.3.1-.4.4-.5zM102.4 216.7c0 .3-.1.5-.4.5l.4-.5zM102.9 216.2c0 .3-.2.4-.5.5 0-.3.2-.4.5-.5z" class="st0"/>
  <path d="M103.3 215.7c0 .3-.2.4-.4.5 0-.3.2-.4.4-.5zM104.4 214.3c0 .3-.2.5-.5.5l.5-.5zM104.8 213.8c0 .3-.2.4-.4.5 0-.3.2-.4.4-.5zM105.3 213.3c0 .2-.2.4-.5.5 0-.3.2-.4.5-.5zM599.2 369.7c.1 1 .1 1.8-.4 2.6 0-.9 0-1.8.4-2.6zM598.7 373.6c0 .7 0 1.4-.4 2 0-.7 0-1.4.4-2zM603.2 376.3c-.1-.7 0-1.4.3-2 .1.7 0 1.4-.3 2zM566.9 356.9l-.5.9c0-.4.2-.7.5-1zM565.5 359.3c-.1.4-.3.7-.6.9 0-.4.3-.7.6-1zM569.8 352l-.4.5.4-.5zM569.2 352.9c0 .2-.2.3-.3.5l.3-.5zM568.7 353.8l-.4.6.4-.6zM568.3 354.4c0 .2-.2.3-.3.5l.3-.4zM567.8 355.3l-.4.6.4-.6zM567.3 356.2l-.4.6.4-.6zM566.4 357.8l-.4.5.4-.5zM565.9 358.6l-.4.7c0-.3.2-.4.4-.7zM564.9 360.1l-.4.6.4-.6zM564.4 361l-.4.7.4-.7zM564 361.6l-.4.5.4-.5zM563.4 362.5l-.3.6.3-.6zM563 363.4l-.5.7.4-.7zM562.5 364l-.4.6.4-.5zM562 364.9l-.4.6c0-.2.2-.4.4-.6zM568.4 425l-.5-.6c.3 0 .4.3.5.5zM559.6 377.2l.6-.5-.6.5zM560.1 376.7l.6-.5c-.1.3-.3.4-.6.5zM521.4 420.1l.5-.5c0 .3-.2.4-.5.5zM521 420.6c0-.2.2-.3.4-.5 0 .3-.2.4-.5.5zM540.7 414.8c1.2-2.4 1.5-4.9 2-7.4.1-.6.1-1.3.4-1.9l.1 2c0 .2 0 .7.4.6.2 0 .3-.4.5-.5 0 1.4-.4 2.7-.7 4.1l-.6 3h-2.1zM537.5 372.8c0-4.2.1-8.4-.1-12.6v-1c.4.8.5 1.6.5 2.4v8.8c0 .8 0 1.6-.4 2.4zM525.8 354c.3.2.4.5.4.9l-.4-1zM567.3 358.7l-.4.7.4-.7zM566.8 359.7l-.4.6.4-.6zM566.2 360.7l-.3.5.3-.5zM563 365.6l-.4.6.5-.6zM523.9 388.6l-.5-.4.5.4zM525.3 389.7l-.6-.4c.2 0 .4.2.6.4zM523.4 388.3a.7.7 0 0 1-.6-.5l.6.5zM518.5 386.2c0-.2-.2-.3-.3-.4l.3.4zM567.8 426l-.6-.5.6.5zM568.3 426.5a.7.7 0 0 1-.5-.5l.5.5zM518 385.7l-.3-.4.4.4zM216.4 441.5l3 .7 16.3 2.7 1.4.4 4.3.8 1.1.3.3.3-.3.3h-2c-1.2-.2-2.5-.4-3.8-.3l-13.8-2.2c-.6-.1-1.2-.2-2 0-2.3.5-4.8.7-7.3.7l-.1-2.2c0-1.1 0-1.1 1.5-1.6h1.4zM599.8 393.6l-.4 2.3c0 .7-.3 1.3-.3 2-.1 1 .4 1.4 1.4 1.3l1.1-.4c-1 1.7-2.6 2.5-4 3.6h-.7c0-.1-.2-.4-.1-.5 1.1-2.1 1.3-4.6 2.2-6.8.2-.6.5-1 .8-1.5zM581 396c-.1-1.2 0-2.4.3-3.6 0 1.2.3 2.4-.4 3.6zM605.6 393v1.2c0 .5 0 .9.4 1.2-.4.2-.7.1-.9-.3-.1-.8 0-1.4.5-2zM580.4 400.3c0-1 0-2 .4-3 .1 1 .2 2-.4 3zM600.3 391.6a3 3 0 0 1-.5 2c0-.7 0-1.4.5-2zM580 403.2c0-.7 0-1.4.3-2 .1.7 0 1.4-.3 2zM603.6 396c0-.6.1-1.1.4-1.6 0 .6 0 1.1-.4 1.6zM603 397.4l.6-1c0 .4-.2.7-.5 1zM602.1 398.4l.5-.5-.5.5zM602.6 397.9l.5-.5-.5.5z" class="st0"/>
  <path d="M606 395.5c0-.3.2-.4.5-.5l-.6.5zM606.5 395c.2 0 .3-.2.5-.3l-.5.3zM607.3 394.5l.7-.4-.7.4zM608 394l.4-.3-.4.4zM608.8 393.5l.6-.4-.6.4zM609.4 393c.2 0 .3-.2.5-.3l-.5.4zM601.6 398.9l.5-.5-.5.5zM610.2 392.6l.7-.5-.7.4zM610.9 392.1l.4-.3-.4.3zM611.7 391.6l.6-.4-.6.4zM612.3 391.1c.2 0 .3-.2.5-.3l-.5.3zM613.1 390.6l.7-.4-.7.4zM613.8 390.2l.4-.3-.4.3zM236.7 446.7l3.9.3h1.9l.2-.2c0-.2 0-.3-.2-.4a8 8 0 0 0-1.2-.3l-4.2-.8c-.5 0-1-.3-1.4-.4 2-.2 3.9.3 5.8.5l5.7.9c.5 0 1 .3 1.5.7.4.4.2 1.2-.3 1.4a7 7 0 0 1-1.7.2c-1.5 0-3-.3-4.5-.6-1.8-.3-3.6-.8-5.4-.9v-.4zM534 481c0 1 0 2-.4 3-.2-1-.2-2 .4-3zM542.8 414.7c.7.2 1.4.4 1.9 1-.8 0-1.5-.3-2-1zM544.7 415.7c.8 0 1.4.4 2 1-.9 0-1.6-.3-2-1zM541.7 415.8l-.3.4-.2-.3c.1-.4.3-.2.5-.1zM543.2 416.3c-.4 0-.7-.2-1-.5.4 0 .7.2 1 .4zM554.3 440c.3.2.5.5.4 1-.2-.4-.4-.7-.4-1zM553.8 442c-.3-.3-.5-.7-.4-1 .2.2.4.6.4 1zM554.8 441.3c.3.3.5.7.5 1-.3-.2-.5-.6-.5-1zM554.3 443.4c-.3-.3-.4-.6-.4-1 .2.3.4.6.4 1zM554.8 444.8c-.3-.3-.4-.6-.4-1 .2.3.4.6.4 1zM555.2 446.3c-.3-.3-.4-.6-.3-1 .2.3.4.6.3 1zM555.7 447.7c-.3-.2-.4-.6-.4-1 .3.3.4.7.4 1zM544.2 416.7l-.7-.3.7.3zM545.1 417.1a.6.6 0 0 1-.6-.3l.6.3zM546.1 417.6c-.3 0-.5 0-.6-.3l.6.3zM520 419.7c.1-.2.3-.4.5-.4l-.4.4zM546.6 424.4l.5.5-.5-.5zM553.3 440.6l-.4-.6.4.6zM555.3 442.7l.3.7c0-.3-.2-.5-.3-.7zM554.9 456.4c.2.3.4.7.3 1-.3-.2-.4-.6-.3-1zM537.8 433.6l.1 2.1v15c-.4-.7-.4-1.4-.4-2.1v-13.1c0-.7.2-1.3.3-2zM476.5 429c0-1-.1-2.1.4-3 .1 1 0 2-.4 3zM540.8 443.8c0 .7-.3 1.3-.7 1.8a6 6 0 0 0-.8 3.6v6.7c-.5-1-.5-2-.5-3 0-2.3 0-4.5-.3-6.8-.3-1.5-.4-3.2.3-4.7l.1 1.6c.1.2.4.3.6.1l.7-.8c0 .5.3 1 .6 1.5zM541.7 443.5l-.5-.2c.3-.1.4 0 .5.2zM541.2 443.3l-.4.5.4-.5zM509.3 444.8l.4-.5a8 8 0 0 1-.4.5zM575.6 177c.2.4.3.7 0 1l-.8 1.1c-.1.2-.3.4-.1.6 0 .1.2 0 .4 0l1.6-.3a28.3 28.3 0 0 1-5.4 4.8c-2.8 1.8-5.7 2.9-9 3-1.4 0-2.7.3-4 .7l-4 1.1c.1-.8-.5-.7-1-.9l.6-.4.3-.3-.3-.3-.7-.2-1.7-.1-20.5-1.1-25-1.7-18.6-1.2-9.6-.7a10382.6 10382.6 0 0 1-39.3-2.9l-14.2-1.1-21.4-1.7-14.7-1.2-20-1.9-11.7-1a442 442 0 0 1-18.5-2l-19.9-2.5c-1 0-2-.3-3-.5-.8-.5-1.7-.5-2.5-.4-.9-.6-2-.5-3-.5-.2-.9-.8-1.2-1.7-1.2l-4 .3-1.5-.2c-.4-.3-1-.4-1.5-.3l-.9-.1c-.4-.3-1-.4-1.5-.4l-1.4-.1c-.4-.3-1-.4-1.5-.4h-.9c-.5-.4-1-.5-1.5-.5l-1.4-.1-1-.3-1.4-.2-1-.3-1.4-.2-1.1-.3-1.4-.2-1-.3h-.4c0-1.1.4-1.9 1.5-2h.4c.6.4 1.1.5 1.7.5l1.3.1c.4.3 1 .4 1.5.4h.4c.5.4 1 .5 1.6.4l1.3.2c.5.3 1 .4 1.5.3h.4c.6.5 1.3.6 2 .5l1 .1c.5.4 1.2.5 2 .4h.3c.7.5 1.4.5 2 .5h1a3 3 0 0 0 2 .5h.3c.8.5 1.7.5 2.5.5h1c.6.4 1.2.5 2 .4l.8.1c.7.4 1.4.5 2 .4l1.4.1c.5.3 1 .4 1.6.4 3.3.1 6.6.8 9.9 1.3a663 663 0 0 0 28.7 3.1l17.6 1.7 14.7 1.2 19.7 1.6 17.1 1.3 21.4 1.7c5.8.4 11.6 1 17.4 1.2 1.8 0 3.7.3 5.5.5l18.3 1.2 18.3 1.2 6.3.5 19.2 1.2 21 1.2 6.3.3c2 .1 4.2.3 6.2-.1a19 19 0 0 0 8.4-4.6l3-2.8z" class="st0"/>
  <path d="M553.3 188.1c.5.2 1.1.1 1 1h-.5a102.1 102.1 0 0 0-1.8.6l-.6.3-.8.1-.7.3-.8.2-.6.3-.8.2-.7.3-.8.2-.6.3c-14.8 5-29.5 10.2-44.2 15.5l-22.1 8.3-1.4.6c-.2 0-.5 0-.6.3h-.3c-.4 0-.8.2-1 .5l-.5.1c-.4 0-.7.1-1 .4l-.4.1c-.3 0-.5.1-.7.3l-.3.1c-.4 0-.8.1-1 .4-.2 0-.3 0-.4.2-.4 0-.8 0-1 .4h-.5c-.3 0-.5.2-.6.4l-.4.1c-.4 0-.7.1-1 .4l-.4.1c-.3 0-.5.1-.6.3l-.4.1c-.4 0-.7.1-1 .5h-.4c-.4 0-.7.2-1 .5-2.2.5-4.2 1.5-6.3 2.3-11.3 4.4-22.5 9-33.7 13.8L401 247.7l-1 .3-.8-.4c1-.6 2.4-1 3.3-1.8l8.9-4a1599.4 1599.4 0 0 1 122.2-47.2l11-3.6c.4 0 .7-.1 1-.4.1 0 .3-.1.4 0 .4 0 .7-.2 1-.5h.5c.4 0 .7-.2 1-.4.1-.1.3-.2.4-.1.4 0 .8-.2 1-.4l.5-.1c.4 0 .7-.1 1-.4l.4-.1c.4 0 .8-.1 1-.4h.5zM186 265.4l.5.2c.2 1.3.1 1.4-.9 1.7l-.7.2-.4-.2a44.2 44.2 0 0 0-18.6-2.5c-2.1.2-2.2.2-2.9 2.5l-2.8 8.2-1 3.2c-.1.3-.3.7 0 .8.3.2.7.1 1 0l1.5-.7 13.5-5.7c.4 0 .8-.1 1.1-.4.4 0 .7-.2 1-.4.4 0 .7-.2 1-.4l.3-.2c.4.2.7.5.3 1l-1 .5-4.9 2-4 1.7-.1.4.4.2c.4 0 .6.2.7.5l-6.4 2.8-7.6 3.2-.6.3h-.5l-.1-.5.3-.9 6-17.6v-.2c.4-1.8 1.4-2.5 3.3-2.6 3 0 6-.3 9.1 0a41.3 41.3 0 0 1 12.5 3z" class="st0"/>
  <path d="m185 267.5.6-.2c1-.3 1-.4.9-1.7a9 9 0 0 1 4 1.9c.8.5.8 1.3 0 1.8-.4.3-.8.6-1.4.8-6 2.7-12.1 5.4-18.4 7.8l-.7.1a.9.9 0 0 0-.7-.5l-.4-.2c0-.1 0-.3.2-.4l4-1.7 4.8-2c.3-.1.7-.3 1-.6.4-.4.1-.7-.3-1 1-.7 2.3-1 3.5-1.6l2.6-1.3c.5-.3.5-.7.2-1.2zM402.6 245.8c-1 .9-2.3 1.2-3.4 1.8l-2.4 1c-7.4 3.7-15 6.7-22.5 10-1 .5-2 1-3.1 1.1 1.8-2 4.1-3.1 6.6-4.2l8.5-3.9 12.4-5.6 2.3-.9c.7-.3 1.2 0 1.6.7z" class="st0"/>
  <path d="M371.1 259.7c1.2 0 2.2-.6 3.2-1 7.5-3.4 15.1-6.4 22.5-10 .7-.5 1.6-.7 2.4-1 .3 0 .6.2.9.4-1.9 1.2-4 2-6 2.9l-13.8 6.2c-.9.4-1.8.8-2.5 1.4-.3 0-.7.2-1 .5h.1a2 2 0 0 0-1.4.6l-3.3 1.3c-1.3.5-2.5 1.3-4 1.6.2-.5 0-.8-.5-1 1-1 2.4-1.2 3.4-1.9zM303.8 165.5l4-.3c1 0 1.6.4 1.9 1.2-2 0-4-.2-5.9-1zM309.7 166.4c1 0 2-.1 3 .5-1 .1-2 0-3-.5zM101.4 220.5c.1-.9.6-1.5 1.5-1.9-.2 1-.8 1.5-1.5 2z" class="st0"/>
  <path d="M312.6 167c.8-.2 1.7-.1 2.4.3-.8 0-1.6 0-2.4-.4zM301 165c.5 0 1 0 1.4.3-.5 0-1 0-1.5-.3zM293.2 163.5c.6 0 1 .1 1.5.4-.5 0-1 0-1.5-.4zM298.5 164.5c.6 0 1 0 1.6.4-.6 0-1.1 0-1.6-.4zM295.6 164c.6 0 1 0 1.5.4-.5 0-1 0-1.5-.4zM545.6 190.6c-.3.3-.6.5-1 .4.3-.3.6-.4 1-.4zM547 190.2c-.2.2-.5.4-1 .4.3-.3.7-.5 1-.4zM548.5 189.7c-.3.3-.6.4-1 .4.3-.3.6-.5 1-.4zM550 189.2c-.3.3-.6.4-1 .4.3-.3.6-.4 1-.4zM551.4 188.7c-.3.3-.6.5-1 .4.3-.3.6-.4 1-.4zM552.9 188.3c-.3.2-.6.4-1 .3.3-.2.6-.4 1-.3zM290.8 163l1 .4c-.4 0-.7 0-1-.3zM288.3 162.6c.4 0 .7.2 1 .3-.3 0-.7 0-1-.3zM286 162.1l1 .3c-.4 0-.8 0-1-.3zM283.5 161.6l1 .3c-.3 0-.7 0-1-.3zM186 265.4c-.4 0-.7-.1-1-.3.4 0 .8 0 1 .3zM363.4 263.6c-.3.3-.6.5-1 .5.3-.3.6-.5 1-.5zM101 221c0-.2.1-.4.4-.5 0 .3-.2.5-.5.6zM362.4 264l-.6.4c.1-.2.3-.3.6-.3zM198 152.2c.3 0 .4-.2.6-.3l-.5.3zM364.4 263.1l-.7.4c.2-.3.4-.4.7-.4zM365.3 262.7l-.6.3.6-.3zM366.3 262.2l-.6.4c.2-.3.3-.4.6-.4zM367.3 261.7l-.6.4c.1-.3.3-.4.6-.4zM473.6 158.7c-.6.4-1.3.3-2 .5l-16-2.1-13-1.7-19.1-2.3-15.4-1.6-17.5-1.9-16.1-1.5-16.8-1.7-11.6-1.2-13.2-1.3-11.8-1.2-11.5-1.1-13.4-1.3-4.8-.6c-.3 0-.4-.3-.3-.5l.3-.2 5.3.4 14.2 1.4 15.6 1.6 13.5 1.3 15.4 1.5 12.4 1.3 17 1.7 12.6 1.3 15.1 1.6 12.3 1.3a1479.2 1479.2 0 0 1 27.5 3.3l21.3 3zM382.7 107.5c0 .3-.5.8.2.8l1.7-.1c.6-.2 1.3-.3 2-.2-1.8 1-3.8 1.2-5.7 1.7l-30 6.5-13 2.6c-.8.1-1.7.3-2.6.2.9-.7 2.1-.6 3-1.2.5-.3.1-.5 0-.7.6-.6 1.5-.7 2.4-1l9.6-2.1c9.9-2.4 19.9-4.3 29.8-6.3.9-.2 1.7-.4 2.6-.2zM507.9 53.8c.3-.5.6-1 1.4-1 1.2 0 2.4-.1 3.4.5h-2.6c-.2 0-.3.2-.3.4v.2l1 .7A18 18 0 0 1 517 62c1.3 2.8 2 5.6 2.6 8.5l.6 2.6.1.2.5-.1.3-.6 8-16c0-.3.2-.6.4-.9.2-.6-.1-.8-.6-1-.3 0-.5-.2-.7-.3 1-.2 1.8.1 2.5.9l-1 2.2-8.5 16.8c-.5 1-.8 2.1-.8 3.3v2.4c.2 4.3-.3 8.5-.4 12.8v.4c-.3 3.1-2 5.1-4.8 6.2-1.6.6-3.2.9-5 1-5 .4-9.9-.3-14.8-1.3-1.5-.3-3-.4-4.4-1.2l1-.4 1.5.2c4 1 8.1 1.6 12.3 1.9 2.3.1 4.5.1 6.7-.3a12 12 0 0 0 3.5-1 4.8 4.8 0 0 0 2.7-3.6l.4-3.3c.4-5.2.5-10.4.1-15.6a39 39 0 0 0-2.7-12.4c-1.5-3.8-4-6.8-7.6-8.8l-1-.7z" class="st0"/>
  <path d="M338.2 117c.2.3.6.5.2.8-1 .6-2.2.5-3 1.2l-40.9 9-1.6.2-1.5-.5c.6-.4.6-1 .8-1.6.5-2 1.1-3.9 2-5.6.6-.2.9 0 1 .5l-1.6 5c0 .4.1.7.5.6l.7-.1L329 119l9.2-2zM387.6 53.8l-1 .5c.2-.3.5-.5 1-.5zM822.7 137.6c.3 2.8-1 4.6-3.3 5.7l-9 4c-1.8.6-3.2 0-4.2-1.5-.8-1.2-.7-2.7.4-3.7.5-.4 1-.8 1.7-1l4.1-2a8 8 0 0 0 3.6-2.6 7.9 7.9 0 0 1 4-2.9c1.4-.3 2.3.3 2.6 1.6l.1 2.4zM795.5 265.4c-1.2.2-2.3.5-3.2 1.5h-.6a179 179 0 0 0 9-17.5c4.3-9 8-18.2 11.7-27.4l1-2c0 1.1-.4 2-.6 3a8.9 8.9 0 0 0 0 5.7c-.2 1.5-1 2.7-1.6 4-3.3 7.1-6.3 14.4-9.8 21.5a263 263 0 0 1-6 11.2zM817.2 126.3c-.6 1-1.6 1.3-2.5 1.8l-11.8 6.6c-2 1-4 2.2-5.9 3.3l-1.3.5h-.2v-.3l.7-.6c5.3-3.1 10.7-6.2 16.3-9 1.5-.8 3-1.8 4.7-2.3zM816.7 211.3l-.4 1c0-.4.2-.7.4-1zM817.3 209.9l-.4 1c0-.4.1-.7.4-1zM818.7 206l-.4 1c0-.4 0-.8.4-1zM814.3 217.6c0 .3-.2.7-.4 1 0-.4.2-.7.4-1zM818.2 125.8c-.2.4-.6.5-1 .5.3-.4.7-.5 1-.5zM815.3 215.2l-.4 1c0-.4.1-.8.4-1zM815.8 213.8l-.4 1c0-.5.1-.8.4-1zM813.8 219l-.3.6.3-.6zM814.8 216.5l-.3.7c0-.3.2-.5.3-.7zM818.2 207.4l-.3.6.3-.6zM817.7 208.8l-.3.6.3-.6zM741.4 141.3l.6-.4-.6.4zM816.2 212.7l-.3.6.3-.6zM482.3 242.8c-.6-.1-1-.3-1.5-.6.2 0 .3-.2.5-.3l16.2-7.5a650.7 650.7 0 0 1 74.2-27.8l.4-.1c.5 0 .8-.1 1-.4h.7l.6.3-.2.4-1.7.7-.8.5a673 673 0 0 0-88.1 34.2l-1.3.6zM614.7 240.8c-.2 2.1-.6 4.3-1.3 6.3a55.4 55.4 0 0 1-8 15.3c-1.2 1.6-2 1.6-3.5.2-3.1-3-5.6-6.6-7.5-10.5-1-1.8-.6-2.7 1-4l.8-.5 4.1-2.5c3.9-2 7.8-3.9 11.8-5.4l1-.4c1.2-.3 1.7 0 1.6 1.5zm-7.8 16.4c.7-.2.9-1 1.2-1.4 2-3.7 3.4-7.6 4.7-11.6a9 9 0 0 0 .4-2.8c0-.4-.3-.6-.7-.5-.6.2-1.2.4-1.7.9a76 76 0 0 0-14 7c-1.6 1.1-1.7 1.5-.8 3.2a63.9 63.9 0 0 0 7 10.3c.4.2.7.2.9-.1l.6-1.3c0-1 .4-1.9.8-2.7a294.5 294.5 0 0 0 2.7-7.8c.1-.5-.2-.8-.7-.6-2.7.6-5.5.8-8.4.8l-.9-.1-.2-.2.2-.1.9-.2c2.5-.3 5-.4 7.4-.9 1.4-.3 2.3-.9 3-2.2.7-1.6 1.6-3 2.5-4.6.4.1.5.4.3.7l-2.3 4.2c-.4.8-.8 1.6-1 2.5-.2 1.8-.8 3.7-1.4 5.5a6 6 0 0 0-.4 2c0 .2-.5.2-.1.4v-.4zM585.8 166c-.7-.8-1.4-1-2.1-.2h-.5C590.7 151 598 136 606 121.5l1.5-2.8.4-.5.1-.4.4-.6c.3-.2.5-.5.6-1l.3-.5.2-.3.4-.6c0 .2.3.4.2.6-.2 1 .3 1.8.7 2.7l-.4.6-.1.4-.4.5c-7.3 12.8-13.7 26-20.3 39.2l-3.8 7.3zM307.9 164c-.9 0-1.7 0-2.5-.5.8 0 1.7 0 2.5.5zM313.7 165c-.7 0-1.4 0-2-.5.7 0 1.4 0 2 .4zM310.8 164.4c-.7.1-1.4 0-2-.4.7 0 1.4 0 2 .4zM296.8 162a3 3 0 0 1-2-.4c.7 0 1.4 0 2 .4zM299.6 162.5c-.7 0-1.3 0-2-.4.8 0 1.4 0 2 .4zM302.1 163c-.7 0-1.4 0-2-.4.7 0 1.4 0 2 .4zM305 163.5c-.7 0-1.4 0-2-.4.7 0 1.4 0 2 .4zM286.7 160c-.6.1-1.1 0-1.6-.3.6 0 1.1 0 1.6.4zM289.5 160.6c-.5 0-1-.1-1.5-.4.5 0 1 0 1.5.4zM294.4 161.5c-.6 0-1 0-1.6-.3.6 0 1.1 0 1.6.3zM316.7 165.4c-.6 0-1.1 0-1.6-.4.5 0 1 0 1.6.4zM291.6 161c-.6 0-1.2 0-1.7-.4.6 0 1.2 0 1.7.4z" class="st0"/>
  <path d="M609 116.2c0 .4-.2.7-.5 1 0-.5.2-.8.5-1zM608 118l-.5.6.4-.5zM608.5 117.1l-.4.6c0-.2.2-.4.4-.6zM609.9 114.7l-.4.6.4-.6zM609.4 115.6l-.4.6c0-.2.2-.4.4-.6zM720.6 179.4c1-1.2 2.2-2 3.6-2.7 2.6-1.3 5.1-2.7 7.9-3.6 1-.3 1.7-.9 1.7-2s.5-1.9 1.3-2.5c1.2-1 2.5-1.7 4-2 1.3-.4 2.2 0 2.8 1.2l.5 1.6c.1 1.5 0 3-.1 4.4-.1 1-.6 1.8-1.3 2.5-1 1-2.1 1.7-3.3 2.3-4.4 2-8.9 3.8-13.3 5.7l-1.4.4c-.6-.4-1-1-.8-1.8.1-.6.6-.9 1.2-1l3.5-1.7 10-4.2c2-.8 3-2.1 2.9-4.2v-1.2c-.2-.8-.7-1.2-1.4-1l-1.6.6c-.8.3-1.2.8-1 1.7.4 1.7-.4 2.7-1.8 3.5l-1.3.7c-3.4 1.6-7 3-10.3 4.8-.6.4-1.2.1-1.6-.5l-.2-1zM384.7 107c-.5.4-1 .5-1.5.4.4-.4.9-.5 1.5-.4zM387 55.2l1-.4c-.2.3-.5.4-1 .4zM408.3 83.2l-.4.6.4-.6zM610 119.5c0-.2.2-.3.3-.5l-.4.5zM610.5 118.6l.3-.6-.3.6zM606 174l-.3.6.3-.6zM813.4 227.4c.1-.6.1-1.2.3-1.7.8-2.4 1.7-3.8 1.8-3.3.3 1.3-.5 2.4-.8 3.7-.2.6-.4 1.2-.8 1.7l-.5-.4zM811.4 239.8c0 .5 0 1-.4 1.5 0-.6 0-1 .4-1.6zM813 228.4c0-.4.1-.8.4-1 0 .4-.1.7-.4 1zM576 203c.2.1.4.1.4.3.4.4-.1.2-.2.3l-1.1.4-1.7.2-16.1 3c-19.3 4-38.2 9-57 14.5-14.8 4.3-29.3 9-43.8 13.7a1707.8 1707.8 0 0 0-77 27.2l-16.9 6.4c-.4.2-.8.5-1.3.4l-.2-.1v-.4l1-.6 14.8-7.7.6-.4.4-.1c.3 0 .5-.1.6-.4.4 0 .7 0 1-.4.8 0 1.4-.7 2.3-.6-.2.6-.8.7-1.3 1l-7.6 3.9c-.8.4-1.6.7-2.2 1.4.8 0 1.6-.3 2.3-.7 7.8-3.2 15.8-6 23.7-8.9 16.6-6 33.3-12 50-17.6 24.1-8.1 48.3-15.7 72.7-22.4 12.6-3.4 25.3-6.6 38-9 5.5-1.2 11-2.1 16.5-3l2.1-.3z" class="st0"/>
  <path d="M381.7 258.8c.2-.6.6-.6 1-.6-.1.6-.5.6-1 .6zM624.5 66.1c0 .3.2.5.3.7l-.3-.7zM430.6 49c-.2 0-.4.2-.6.4.1-.3.3-.4.6-.5zM817.3 241.4c0-.6 0-1 .4-1.5 0 .5 0 1-.4 1.5zM822.1 222.6l.4-1c0 .3 0 .7-.4 1zM775.7 48c.2 0 .3.2.4.3l-.4-.3zM775 47.5l.7.4c-.2 0-.4-.2-.6-.4zM788.7 111.9l-.4.4c0-.2.2-.4.4-.4zM741.4 139.9l-.6.4.6-.4zM552.8 189.5c.3-.3.6-.4 1-.4-.3.3-.6.5-1 .4zM550 190.5l.6-.3c-.2.2-.4.3-.7.3zM548.5 191l.6-.4c-.1.3-.4.4-.6.3zM547 191.4l.7-.3c-.2.3-.4.3-.7.3zM545.6 192l.6-.4-.6.3zM551.4 190l.6-.3c-.1.2-.3.3-.6.3zM363.9 264.5c-.3.3-.6.5-1 .5.3-.3.6-.5 1-.5zM364.9 264c-.3.4-.6.5-1 .5.3-.3.6-.4 1-.4zM367.2 263a1 1 0 0 1-1 .5c.3-.3.6-.5 1-.4zM368.2 262.6c-.2.3-.5.5-1 .4.3-.2.6-.4 1-.4zM362.6 265c-.2.3-.4.4-.7.4l.7-.3zM365.9 263.6c-.1.2-.3.3-.6.3l.6-.3zM175.3 273.1c.2-.3.6-.4 1-.4-.3.3-.6.4-1 .4zM176.3 272.7c.3-.3.6-.5 1-.4-.3.2-.6.4-1 .4zM177.3 272.3c.3-.3.6-.5 1-.5-.3.3-.6.4-1 .5zM184.5 267.3c-.4 0-.7-.1-1-.4.4 0 .8.2 1 .4zM570.7 207c.3-.4.6-.5 1-.5-.3.3-.6.5-1 .4zM572.1 206.4c.3-.3.7-.4 1.1-.3-.3.3-.6.4-1 .3zM480.8 242.2c0-.2.3-.3.5-.3l-.5.3zM312.7 315.2c-.8 0-1.4-.3-2-.7-1.2-.6-1.7-1.3-1.3-1.3.7-.1 1.1.4 1.6.8.6.4 1.3.6 1.6 1.3zM187.6 150l1 1.7 2 1 3.9-1 4.8-2 7.8-2 11.6-2.8s4.8-2 4.8-3-1-1.9-1-1.9h-2.9l-32 10z" class="st0"/>
  <path d="m200.5 150.5 1.7-.8 4.3-1.6 3.8-1.1 4.8-1.2 6.5-1.9 3.9-1h2.9l1.4 1 7.2 2.7.8.4 10.6 3.3 27 7 14.9 3 26.1 4.9s34.5 4 36.6 4.4c2.1.4 31.7 3.1 31.7 3.1l40.1 3.2 38.7 2.9 30.7 1.9 23.6 1.6L548 184l16.2.5-.9 2.5s-6.6 1.4-6.8 1.3l-6.8 2-12.5 4.4-21.1 7.4-24 8.7-39 14.9-40.7 17-12.8 5.6-17.4 8-11.5 5.3-15.5 7-22.3 10.7-39 18.5-10.4 4.7-7.5 2.7s-7.6 2.7-10.7 3-10.4 1.6-15.9.8c-5.6-.7-12.1.2-21-.7-8.8-1-19.6-2-19.6-2l-12.2-1.7-21.4-3.6-22.4-4-20.3-4-15-3.7-13.2-3.7-9.4-3.1-7.4-3-7.6-4.3-1.1-1-1.6-1.6-1.3-1.9-.7-1.8-.5-1.8v-1.7l1.3-4.6 15-28.6 9.6-13.9 12-14.5 16.8-16 18-12.4 13.4-7.3 24.7-12.2 15-5.5z" style="fill:none;stroke:#6b6a6a;stroke-miterlimit:10"/>
</svg>
